<?xml version="1.0" encoding="UTF-8" standalone="no"?>
<!DOCTYPE svg PUBLIC "-//W3C//DTD SVG 1.1//EN"
 "http://www.w3.org/Graphics/SVG/1.1/DTD/svg11.dtd">
<!-- Generated by graphviz version 14.1.1 (20251213.1925)
 -->
<!-- Title: includes/Tensorium/Physics/DiffGeometry/BSSN/BSSNAutoDiff.hpp Pages: 1 -->
<svg width="733pt" height="516pt"
 viewBox="0.00 0.00 733.00 516.00" xmlns="http://www.w3.org/2000/svg" xmlns:xlink="http://www.w3.org/1999/xlink">
<g id="graph0" class="graph" transform="scale(1 1) rotate(0) translate(4 512.25)">
<title>includes/Tensorium/Physics/DiffGeometry/BSSN/BSSNAutoDiff.hpp</title>
<!-- Node1 -->
<g id="Node000001" class="node">
<title>Node1</title>
<g id="a_Node000001"><a xlink:title=" ">
<polygon fill="#999999" stroke="#666666" points="588,-508.25 455.75,-508.25 455.75,-466.5 588,-466.5 588,-508.25"/>
<text xml:space="preserve" text-anchor="start" x="463.75" y="-494.75" font-family="Helvetica,sans-Serif" font-size="10.00">includes/Tensorium</text>
<text xml:space="preserve" text-anchor="start" x="463.75" y="-483.5" font-family="Helvetica,sans-Serif" font-size="10.00">/Physics/DiffGeometry</text>
<text xml:space="preserve" text-anchor="middle" x="521.88" y="-472.25" font-family="Helvetica,sans-Serif" font-size="10.00">/BSSN/BSSNAutoDiff.hpp</text>
</a>
</g>
</g>
<!-- Node2 -->
<g id="Node000002" class="node">
<title>Node2</title>
<g id="a_Node000002"><a xlink:href="_b_s_s_n_ricci_conformal_tensor_8hpp.html" target="_top" xlink:title="Computes the conformal Ricci tensor contributions from the conformal factor &#160;in the BSSN formalism.">
<polygon fill="white" stroke="#666666" points="420,-430.5 227.75,-430.5 227.75,-388.75 420,-388.75 420,-430.5"/>
<text xml:space="preserve" text-anchor="start" x="235.75" y="-417" font-family="Helvetica,sans-Serif" font-size="10.00">includes/Tensorium</text>
<text xml:space="preserve" text-anchor="start" x="235.75" y="-405.75" font-family="Helvetica,sans-Serif" font-size="10.00">/Physics/DiffGeometry</text>
<text xml:space="preserve" text-anchor="middle" x="323.88" y="-394.5" font-family="Helvetica,sans-Serif" font-size="10.00">/BSSN/BSSNRicciConformalTensor.hpp</text>
</a>
</g>
</g>
<!-- Node1&#45;&gt;Node2 -->
<g id="edge1_Node000001_Node000002" class="edge">
<title>Node1&#45;&gt;Node2</title>
<g id="a_edge1_Node000001_Node000002"><a xlink:title=" ">
<path fill="none" stroke="#63b8ff" d="M458.23,-462.03C432.05,-452.01 402.07,-440.54 377.08,-430.98"/>
<polygon fill="#63b8ff" stroke="#63b8ff" points="456.81,-465.23 467.4,-465.53 459.31,-458.69 456.81,-465.23"/>
</a>
</g>
</g>
<!-- Node4 -->
<g id="Node000004" class="node">
<title>Node4</title>
<g id="a_Node000004"><a xlink:href="_b_s_s_n_setup_8hpp.html" target="_top" xlink:title=" ">
<polygon fill="white" stroke="#666666" points="546.75,-275 425,-275 425,-233.25 546.75,-233.25 546.75,-275"/>
<text xml:space="preserve" text-anchor="start" x="433" y="-261.5" font-family="Helvetica,sans-Serif" font-size="10.00">includes/Tensorium</text>
<text xml:space="preserve" text-anchor="start" x="433" y="-250.25" font-family="Helvetica,sans-Serif" font-size="10.00">/Physics/DiffGeometry</text>
<text xml:space="preserve" text-anchor="middle" x="485.88" y="-239" font-family="Helvetica,sans-Serif" font-size="10.00">/BSSN/BSSNSetup.hpp</text>
</a>
</g>
</g>
<!-- Node1&#45;&gt;Node4 -->
<g id="edge23_Node000001_Node000004" class="edge">
<title>Node1&#45;&gt;Node4</title>
<g id="a_edge23_Node000001_Node000004"><a xlink:title=" ">
<path fill="none" stroke="#63b8ff" d="M585.57,-460.26C597.3,-452.46 608,-442.66 614.88,-430.5 624.01,-414.35 621.82,-405.95 614.88,-388.75 595.07,-339.72 547.7,-298.67 516.21,-275.5"/>
<polygon fill="#63b8ff" stroke="#63b8ff" points="584.01,-457.11 577.29,-465.29 587.65,-463.09 584.01,-457.11"/>
</a>
</g>
</g>
<!-- Node13 -->
<g id="Node000013" class="node">
<title>Node13</title>
<g id="a_Node000013"><a xlink:href="_b_s_s_n_ricci_tilde_tensor_8hpp.html" target="_top" xlink:title="Computes the conformal part &#160;of the Ricci tensor in the BSSN formalism.">
<polygon fill="white" stroke="#666666" points="606,-430.5 437.75,-430.5 437.75,-388.75 606,-388.75 606,-430.5"/>
<text xml:space="preserve" text-anchor="start" x="445.75" y="-417" font-family="Helvetica,sans-Serif" font-size="10.00">includes/Tensorium</text>
<text xml:space="preserve" text-anchor="start" x="445.75" y="-405.75" font-family="Helvetica,sans-Serif" font-size="10.00">/Physics/DiffGeometry</text>
<text xml:space="preserve" text-anchor="middle" x="521.88" y="-394.5" font-family="Helvetica,sans-Serif" font-size="10.00">/BSSN/BSSNRicciTildeTensor.hpp</text>
</a>
</g>
</g>
<!-- Node1&#45;&gt;Node13 -->
<g id="edge20_Node000001_Node000013" class="edge">
<title>Node1&#45;&gt;Node13</title>
<g id="a_edge20_Node000001_Node000013"><a xlink:title=" ">
<path fill="none" stroke="#63b8ff" d="M521.88,-454.75C521.88,-446.71 521.88,-438.29 521.88,-430.98"/>
<polygon fill="#63b8ff" stroke="#63b8ff" points="518.38,-454.56 521.88,-464.56 525.38,-454.56 518.38,-454.56"/>
</a>
</g>
</g>
<!-- Node3 -->
<g id="Node000003" class="node">
<title>Node3</title>
<g id="a_Node000003"><a xlink:href="_b_s_s_n_ricci_complete_8hpp.html" target="_top" xlink:title=" ">
<polygon fill="white" stroke="#666666" points="512.25,-352.75 351.5,-352.75 351.5,-311 512.25,-311 512.25,-352.75"/>
<text xml:space="preserve" text-anchor="start" x="359.5" y="-339.25" font-family="Helvetica,sans-Serif" font-size="10.00">includes/Tensorium</text>
<text xml:space="preserve" text-anchor="start" x="359.5" y="-328" font-family="Helvetica,sans-Serif" font-size="10.00">/Physics/DiffGeometry</text>
<text xml:space="preserve" text-anchor="middle" x="431.88" y="-316.75" font-family="Helvetica,sans-Serif" font-size="10.00">/BSSN/BSSNRicciComplete.hpp</text>
</a>
</g>
</g>
<!-- Node2&#45;&gt;Node3 -->
<g id="edge2_Node000002_Node000003" class="edge">
<title>Node2&#45;&gt;Node3</title>
<g id="a_edge2_Node000002_Node000003"><a xlink:title=" ">
<path fill="none" stroke="#63b8ff" d="M361.86,-381.98C375.33,-372.54 390.25,-362.07 402.85,-353.23"/>
<polygon fill="#63b8ff" stroke="#63b8ff" points="360.23,-378.85 354.06,-387.46 364.25,-384.58 360.23,-378.85"/>
</a>
</g>
</g>
<!-- Node2&#45;&gt;Node4 -->
<g id="edge19_Node000002_Node000004" class="edge">
<title>Node2&#45;&gt;Node4</title>
<g id="a_edge19_Node000002_Node000004"><a xlink:title=" ">
<path fill="none" stroke="#63b8ff" d="M322.54,-377.06C323.3,-356.13 327.64,-329.26 342.88,-311 363.28,-286.54 395.79,-272.74 424.67,-264.98"/>
<polygon fill="#63b8ff" stroke="#63b8ff" points="319.04,-376.74 322.46,-386.77 326.04,-376.8 319.04,-376.74"/>
</a>
</g>
</g>
<!-- Node3&#45;&gt;Node4 -->
<g id="edge3_Node000003_Node000004" class="edge">
<title>Node3&#45;&gt;Node4</title>
<g id="a_edge3_Node000003_Node000004"><a xlink:title=" ">
<path fill="none" stroke="#63b8ff" d="M453.03,-301.2C459.17,-292.59 465.73,-283.38 471.36,-275.48"/>
<polygon fill="#63b8ff" stroke="#63b8ff" points="450.18,-299.17 447.22,-309.34 455.88,-303.23 450.18,-299.17"/>
</a>
</g>
</g>
<!-- Node5 -->
<g id="Node000005" class="node">
<title>Node5</title>
<g id="a_Node000005"><a xlink:href="_functionnal_r_g_8hpp.html" target="_top" xlink:title=" ">
<polygon fill="white" stroke="#666666" points="228.38,-191.62 77.38,-191.62 77.38,-161.12 228.38,-161.12 228.38,-191.62"/>
<text xml:space="preserve" text-anchor="start" x="85.38" y="-178.12" font-family="Helvetica,sans-Serif" font-size="10.00">includes/Tensorium</text>
<text xml:space="preserve" text-anchor="middle" x="152.88" y="-166.88" font-family="Helvetica,sans-Serif" font-size="10.00">/Functional/FunctionnalRG.hpp</text>
</a>
</g>
</g>
<!-- Node4&#45;&gt;Node5 -->
<g id="edge4_Node000004_Node000005" class="edge">
<title>Node4&#45;&gt;Node5</title>
<g id="a_edge4_Node000004_Node000005"><a xlink:title=" ">
<path fill="none" stroke="#63b8ff" d="M413.72,-237.17C363.98,-226.11 296.38,-210.97 236.88,-197.25 229.72,-195.6 222.23,-193.85 214.79,-192.11"/>
<polygon fill="#63b8ff" stroke="#63b8ff" points="412.69,-240.52 423.21,-239.27 414.21,-233.69 412.69,-240.52"/>
</a>
</g>
</g>
<!-- Node10 -->
<g id="Node000010" class="node">
<title>Node10</title>
<g id="a_Node000010"><a xlink:href="_b_s_s_n_atilde_tensor_8hpp.html" target="_top" xlink:title=" ">
<polygon fill="white" stroke="#666666" points="395.62,-197.25 246.12,-197.25 246.12,-155.5 395.62,-155.5 395.62,-197.25"/>
<text xml:space="preserve" text-anchor="start" x="254.12" y="-183.75" font-family="Helvetica,sans-Serif" font-size="10.00">includes/Tensorium</text>
<text xml:space="preserve" text-anchor="start" x="254.12" y="-172.5" font-family="Helvetica,sans-Serif" font-size="10.00">/Physics/DiffGeometry</text>
<text xml:space="preserve" text-anchor="middle" x="320.88" y="-161.25" font-family="Helvetica,sans-Serif" font-size="10.00">/BSSN/BSSNAtildeTensor.hpp</text>
</a>
</g>
</g>
<!-- Node4&#45;&gt;Node10 -->
<g id="edge13_Node000004_Node000010" class="edge">
<title>Node4&#45;&gt;Node10</title>
<g id="a_edge13_Node000004_Node000010"><a xlink:title=" ">
<path fill="none" stroke="#63b8ff" d="M425.29,-228.24C403.17,-218.35 378.81,-207.12 359.15,-197.73"/>
<polygon fill="#63b8ff" stroke="#63b8ff" points="423.66,-231.35 434.22,-232.21 426.5,-224.95 423.66,-231.35"/>
</a>
</g>
</g>
<!-- Node11 -->
<g id="Node000011" class="node">
<title>Node11</title>
<g id="a_Node000011"><a xlink:href="_b_s_s_n_print_debug_8hpp.html" target="_top" xlink:title=" ">
<polygon fill="white" stroke="#666666" points="558.38,-197.25 413.38,-197.25 413.38,-155.5 558.38,-155.5 558.38,-197.25"/>
<text xml:space="preserve" text-anchor="start" x="421.38" y="-183.75" font-family="Helvetica,sans-Serif" font-size="10.00">includes/Tensorium</text>
<text xml:space="preserve" text-anchor="start" x="421.38" y="-172.5" font-family="Helvetica,sans-Serif" font-size="10.00">/Physics/DiffGeometry</text>
<text xml:space="preserve" text-anchor="middle" x="485.88" y="-161.25" font-family="Helvetica,sans-Serif" font-size="10.00">/BSSN/BSSNPrintDebug.hpp</text>
</a>
</g>
</g>
<!-- Node4&#45;&gt;Node11 -->
<g id="edge15_Node000004_Node000011" class="edge">
<title>Node4&#45;&gt;Node11</title>
<g id="a_edge15_Node000004_Node000011"><a xlink:title=" ">
<path fill="none" stroke="#63b8ff" d="M479.21,-221.5C478.99,-213.46 479.2,-205.04 479.81,-197.73"/>
<polygon fill="#63b8ff" stroke="#63b8ff" points="475.7,-221.52 479.74,-231.31 482.69,-221.14 475.7,-221.52"/>
</a>
</g>
</g>
<!-- Node12 -->
<g id="Node000012" class="node">
<title>Node12</title>
<g id="a_Node000012"><a xlink:href="_b_s_s_nextrin_tensor_8hpp.html" target="_top" xlink:title=" ">
<polygon fill="white" stroke="#666666" points="725.25,-197.25 576.5,-197.25 576.5,-155.5 725.25,-155.5 725.25,-197.25"/>
<text xml:space="preserve" text-anchor="start" x="584.5" y="-183.75" font-family="Helvetica,sans-Serif" font-size="10.00">includes/Tensorium</text>
<text xml:space="preserve" text-anchor="start" x="584.5" y="-172.5" font-family="Helvetica,sans-Serif" font-size="10.00">/Physics/DiffGeometry</text>
<text xml:space="preserve" text-anchor="middle" x="650.88" y="-161.25" font-family="Helvetica,sans-Serif" font-size="10.00">/BSSN/BSSNextrinTensor.hpp</text>
</a>
</g>
</g>
<!-- Node4&#45;&gt;Node12 -->
<g id="edge17_Node000004_Node000012" class="edge">
<title>Node4&#45;&gt;Node12</title>
<g id="a_edge17_Node000004_Node000012"><a xlink:title=" ">
<path fill="none" stroke="#63b8ff" d="M534.26,-227.97C555.1,-218.15 579.42,-207.04 600.47,-197.73"/>
<polygon fill="#63b8ff" stroke="#63b8ff" points="532.94,-224.73 525.4,-232.18 535.94,-231.05 532.94,-224.73"/>
</a>
</g>
</g>
<!-- Node6 -->
<g id="Node000006" class="node">
<title>Node6</title>
<g id="a_Node000006"><a xlink:href="_christoffel_symbol_8hpp.html" target="_top" xlink:title=" ">
<polygon fill="white" stroke="#666666" points="210.75,-119.5 95,-119.5 95,-77.75 210.75,-77.75 210.75,-119.5"/>
<text xml:space="preserve" text-anchor="start" x="103" y="-106" font-family="Helvetica,sans-Serif" font-size="10.00">includes/Tensorium</text>
<text xml:space="preserve" text-anchor="start" x="103" y="-94.75" font-family="Helvetica,sans-Serif" font-size="10.00">/Physics/DiffGeometry</text>
<text xml:space="preserve" text-anchor="middle" x="152.88" y="-83.5" font-family="Helvetica,sans-Serif" font-size="10.00">/ChristoffelSymbol.hpp</text>
</a>
</g>
</g>
<!-- Node5&#45;&gt;Node6 -->
<g id="edge5_Node000005_Node000006" class="edge">
<title>Node5&#45;&gt;Node6</title>
<g id="a_edge5_Node000005_Node000006"><a xlink:title=" ">
<path fill="none" stroke="#63b8ff" d="M146.43,-149.39C145.92,-139.75 146.05,-128.97 146.82,-119.91"/>
<polygon fill="#63b8ff" stroke="#63b8ff" points="142.93,-149.6 147.29,-159.26 149.91,-149 142.93,-149.6"/>
</a>
</g>
</g>
<!-- Node8 -->
<g id="Node000008" class="node">
<title>Node8</title>
<g id="a_Node000008"><a xlink:href="_riemann_tensor_8hpp.html" target="_top" xlink:title=" ">
<polygon fill="white" stroke="#666666" points="115.75,-41.75 0,-41.75 0,0 115.75,0 115.75,-41.75"/>
<text xml:space="preserve" text-anchor="start" x="8" y="-28.25" font-family="Helvetica,sans-Serif" font-size="10.00">includes/Tensorium</text>
<text xml:space="preserve" text-anchor="start" x="8" y="-17" font-family="Helvetica,sans-Serif" font-size="10.00">/Physics/DiffGeometry</text>
<text xml:space="preserve" text-anchor="middle" x="57.88" y="-5.75" font-family="Helvetica,sans-Serif" font-size="10.00">/RiemannTensor.hpp</text>
</a>
</g>
</g>
<!-- Node5&#45;&gt;Node8 -->
<g id="edge11_Node000005_Node000008" class="edge">
<title>Node5&#45;&gt;Node8</title>
<g id="a_edge11_Node000005_Node000008"><a xlink:title=" ">
<path fill="none" stroke="#63b8ff" d="M111.86,-154.43C98.88,-145.07 85.72,-133.08 76.88,-119.5 61.28,-95.57 54.21,-62.83 53.4,-42.02"/>
<polygon fill="#63b8ff" stroke="#63b8ff" points="109.72,-157.21 119.96,-159.91 113.64,-151.41 109.72,-157.21"/>
</a>
</g>
</g>
<!-- Node9 -->
<g id="Node000009" class="node">
<title>Node9</title>
<g id="a_Node000009"><a xlink:href="_tensorium_8hpp.html" target="_top" xlink:title=" ">
<polygon fill="white" stroke="#666666" points="328.88,-113.88 228.88,-113.88 228.88,-83.38 328.88,-83.38 328.88,-113.88"/>
<text xml:space="preserve" text-anchor="start" x="236.88" y="-100.38" font-family="Helvetica,sans-Serif" font-size="10.00">includes/Tensorium</text>
<text xml:space="preserve" text-anchor="middle" x="278.88" y="-89.12" font-family="Helvetica,sans-Serif" font-size="10.00">/Tensorium.hpp</text>
</a>
</g>
</g>
<!-- Node5&#45;&gt;Node9 -->
<g id="edge12_Node000005_Node000009" class="edge">
<title>Node5&#45;&gt;Node9</title>
<g id="a_edge12_Node000005_Node000009"><a xlink:title=" ">
<path fill="none" stroke="#63b8ff" d="M186.86,-154.94C208.28,-142.07 235.41,-125.75 254.66,-114.19"/>
<polygon fill="#63b8ff" stroke="#63b8ff" points="185.23,-151.84 178.47,-159.99 188.84,-157.84 185.23,-151.84"/>
</a>
</g>
</g>
<!-- Node6&#45;&gt;Node5 -->
<g id="edge6_Node000006_Node000005" class="edge">
<title>Node6&#45;&gt;Node5</title>
<g id="a_edge6_Node000006_Node000005"><a xlink:title=" ">
<path fill="none" stroke="#63b8ff" d="M159.54,-131.09C159.82,-141.39 159.42,-152.34 158.33,-160.77"/>
<polygon fill="#63b8ff" stroke="#63b8ff" points="163.05,-131.22 159.01,-121.42 156.06,-131.6 163.05,-131.22"/>
</a>
</g>
</g>
<!-- Node7 -->
<g id="Node000007" class="node">
<title>Node7</title>
<g id="a_Node000007"><a xlink:href="_ricci_tensor_8hpp.html" target="_top" xlink:title=" ">
<polygon fill="white" stroke="#666666" points="331.75,-41.75 216,-41.75 216,0 331.75,0 331.75,-41.75"/>
<text xml:space="preserve" text-anchor="start" x="224" y="-28.25" font-family="Helvetica,sans-Serif" font-size="10.00">includes/Tensorium</text>
<text xml:space="preserve" text-anchor="start" x="224" y="-17" font-family="Helvetica,sans-Serif" font-size="10.00">/Physics/DiffGeometry</text>
<text xml:space="preserve" text-anchor="middle" x="273.88" y="-5.75" font-family="Helvetica,sans-Serif" font-size="10.00">/RicciTensor.hpp</text>
</a>
</g>
</g>
<!-- Node6&#45;&gt;Node7 -->
<g id="edge7_Node000006_Node000007" class="edge">
<title>Node6&#45;&gt;Node7</title>
<g id="a_edge7_Node000006_Node000007"><a xlink:title=" ">
<path fill="none" stroke="#63b8ff" d="M195,-71.26C210.2,-61.74 227.11,-51.15 241.36,-42.23"/>
<polygon fill="#63b8ff" stroke="#63b8ff" points="193.2,-68.25 186.58,-76.52 196.92,-74.18 193.2,-68.25"/>
</a>
</g>
</g>
<!-- Node6&#45;&gt;Node8 -->
<g id="edge9_Node000006_Node000008" class="edge">
<title>Node6&#45;&gt;Node8</title>
<g id="a_edge9_Node000006_Node000008"><a xlink:title=" ">
<path fill="none" stroke="#63b8ff" d="M118.43,-70.16C106.86,-60.94 94.17,-50.81 83.4,-42.23"/>
<polygon fill="#63b8ff" stroke="#63b8ff" points="116.23,-72.88 126.23,-76.38 120.6,-67.41 116.23,-72.88"/>
</a>
</g>
</g>
<!-- Node7&#45;&gt;Node5 -->
<g id="edge8_Node000007_Node000005" class="edge">
<title>Node7&#45;&gt;Node5</title>
<g id="a_edge8_Node000007_Node000005"><a xlink:title=" ">
<path fill="none" stroke="#63b8ff" d="M315.75,-49.23C324.69,-57.27 332.93,-66.86 337.88,-77.75 345.55,-94.64 348.94,-104.6 337.88,-119.5 330.2,-129.84 265.21,-147.87 214.41,-160.65"/>
<polygon fill="#63b8ff" stroke="#63b8ff" points="318.14,-46.67 308.21,-42.99 313.68,-52.06 318.14,-46.67"/>
</a>
</g>
</g>
<!-- Node8&#45;&gt;Node5 -->
<g id="edge10_Node000008_Node000005" class="edge">
<title>Node8&#45;&gt;Node5</title>
<g id="a_edge10_Node000008_Node000005"><a xlink:title=" ">
<path fill="none" stroke="#63b8ff" d="M69.65,-53.13C74.76,-73.34 81.84,-99.49 94.88,-119.5 105.87,-136.38 123.53,-150.8 136.69,-160.76"/>
<polygon fill="#63b8ff" stroke="#63b8ff" points="73.06,-52.32 67.21,-43.48 66.27,-54.04 73.06,-52.32"/>
</a>
</g>
</g>
<!-- Node10&#45;&gt;Node4 -->
<g id="edge14_Node000010_Node000004" class="edge">
<title>Node10&#45;&gt;Node4</title>
<g id="a_edge14_Node000010_Node000004"><a xlink:title=" ">
<path fill="none" stroke="#63b8ff" d="M381.59,-202.32C403.72,-212.21 428.07,-223.44 447.72,-232.83"/>
<polygon fill="#63b8ff" stroke="#63b8ff" points="383.22,-199.21 372.66,-198.35 380.37,-205.61 383.22,-199.21"/>
</a>
</g>
</g>
<!-- Node11&#45;&gt;Node4 -->
<g id="edge16_Node000011_Node000004" class="edge">
<title>Node11&#45;&gt;Node4</title>
<g id="a_edge16_Node000011_Node000004"><a xlink:title=" ">
<path fill="none" stroke="#63b8ff" d="M492.54,-209.06C492.76,-217.1 492.55,-225.52 491.93,-232.83"/>
<polygon fill="#63b8ff" stroke="#63b8ff" points="496.05,-209.04 492.02,-199.24 489.06,-209.41 496.05,-209.04"/>
</a>
</g>
</g>
<!-- Node12&#45;&gt;Node4 -->
<g id="edge18_Node000012_Node000004" class="edge">
<title>Node12&#45;&gt;Node4</title>
<g id="a_edge18_Node000012_Node000004"><a xlink:title=" ">
<path fill="none" stroke="#63b8ff" d="M602.36,-202.59C581.51,-212.41 557.19,-223.53 536.15,-232.83"/>
<polygon fill="#63b8ff" stroke="#63b8ff" points="603.7,-205.83 611.23,-198.38 600.7,-199.5 603.7,-205.83"/>
</a>
</g>
</g>
<!-- Node13&#45;&gt;Node3 -->
<g id="edge21_Node000013_Node000003" class="edge">
<title>Node13&#45;&gt;Node3</title>
<g id="a_edge21_Node000013_Node000003"><a xlink:title=" ">
<path fill="none" stroke="#63b8ff" d="M489.25,-381.16C478.28,-371.94 466.26,-361.81 456.06,-353.23"/>
<polygon fill="#63b8ff" stroke="#63b8ff" points="486.69,-383.59 496.6,-387.35 491.2,-378.23 486.69,-383.59"/>
</a>
</g>
</g>
<!-- Node13&#45;&gt;Node4 -->
<g id="edge22_Node000013_Node000004" class="edge">
<title>Node13&#45;&gt;Node4</title>
<g id="a_edge22_Node000013_Node000004"><a xlink:title=" ">
<path fill="none" stroke="#63b8ff" d="M525.84,-377.07C527.23,-357.63 527.15,-332.42 520.88,-311 517.11,-298.15 509.48,-285.37 502.3,-275.29"/>
<polygon fill="#63b8ff" stroke="#63b8ff" points="522.37,-376.56 524.95,-386.83 529.34,-377.19 522.37,-376.56"/>
</a>
</g>
</g>
</g>
</svg>
