<?xml version="1.0" encoding="UTF-8" standalone="no"?>
<!DOCTYPE svg PUBLIC "-//W3C//DTD SVG 1.1//EN"
 "http://www.w3.org/Graphics/SVG/1.1/DTD/svg11.dtd">
<!-- Generated by graphviz version 14.1.1 (20251213.1925)
 -->
<!-- Title: includes/Tensorium/Physics/DiffGeometry/BSSN_Grid/Grid/BSSNGridOperations.hpp Pages: 1 -->
<svg width="301pt" height="227pt"
 viewBox="0.00 0.00 301.00 227.00" xmlns="http://www.w3.org/2000/svg" xmlns:xlink="http://www.w3.org/1999/xlink">
<g id="graph0" class="graph" transform="scale(1 1) rotate(0) translate(4 222.75)">
<title>includes/Tensorium/Physics/DiffGeometry/BSSN_Grid/Grid/BSSNGridOperations.hpp</title>
<!-- Node1 -->
<g id="Node000001" class="node">
<title>Node1</title>
<g id="a_Node000001"><a xlink:title="Grid&#45;wide helpers such as halo application shared by evolution and initialization code.">
<polygon fill="#999999" stroke="#666666" points="205.75,-218.75 0,-218.75 0,-177 205.75,-177 205.75,-218.75"/>
<text xml:space="preserve" text-anchor="start" x="8" y="-205.25" font-family="Helvetica,sans-Serif" font-size="10.00">includes/Tensorium</text>
<text xml:space="preserve" text-anchor="start" x="8" y="-194" font-family="Helvetica,sans-Serif" font-size="10.00">/Physics/DiffGeometry</text>
<text xml:space="preserve" text-anchor="middle" x="102.88" y="-182.75" font-family="Helvetica,sans-Serif" font-size="10.00">/BSSN_Grid/Grid/BSSNGridOperations.hpp</text>
</a>
</g>
</g>
<!-- Node2 -->
<g id="Node000002" class="node">
<title>Node2</title>
<g id="a_Node000002"><a xlink:href="_b_s_s_n_grid_so_a_8hpp.html" target="_top" xlink:title="Structure&#45;of&#45;arrays storage for all BSSN state variables.">
<polygon fill="white" stroke="#666666" points="171.62,-141 34.12,-141 34.12,-121.75 171.62,-121.75 171.62,-141"/>
<text xml:space="preserve" text-anchor="middle" x="102.88" y="-127.5" font-family="Helvetica,sans-Serif" font-size="10.00">../Fields/BSSNGridSoA.hpp</text>
</a>
</g>
</g>
<!-- Node1&#45;&gt;Node2 -->
<g id="edge1_Node000001_Node000002" class="edge">
<title>Node1&#45;&gt;Node2</title>
<g id="a_edge1_Node000001_Node000002"><a xlink:title=" ">
<path fill="none" stroke="#63b8ff" d="M102.88,-176.82C102.88,-169.15 102.88,-160.39 102.88,-152.7"/>
<polygon fill="#63b8ff" stroke="#63b8ff" points="106.38,-152.96 102.88,-142.96 99.38,-152.96 106.38,-152.96"/>
</a>
</g>
</g>
<!-- Node3 -->
<g id="Node000003" class="node">
<title>Node3</title>
<g id="a_Node000003"><a xlink:title=" ">
<polygon fill="#e0e0e0" stroke="#999999" points="81.75,-80.12 26,-80.12 26,-60.88 81.75,-60.88 81.75,-80.12"/>
<text xml:space="preserve" text-anchor="middle" x="53.88" y="-66.62" font-family="Helvetica,sans-Serif" font-size="10.00">algorithm</text>
</a>
</g>
</g>
<!-- Node2&#45;&gt;Node3 -->
<g id="edge2_Node000002_Node000003" class="edge">
<title>Node2&#45;&gt;Node3</title>
<g id="a_edge2_Node000002_Node000003"><a xlink:title=" ">
<path fill="none" stroke="#63b8ff" d="M95.43,-121.43C88.31,-112.87 77.37,-99.73 68.5,-89.07"/>
<polygon fill="#63b8ff" stroke="#63b8ff" points="71.44,-87.14 62.36,-81.69 66.06,-91.61 71.44,-87.14"/>
</a>
</g>
</g>
<!-- Node4 -->
<g id="Node000004" class="node">
<title>Node4</title>
<g id="a_Node000004"><a xlink:href="_grid_layout_8hpp.html" target="_top" xlink:title=" ">
<polygon fill="white" stroke="#666666" points="205.5,-85.75 100.25,-85.75 100.25,-55.25 205.5,-55.25 205.5,-85.75"/>
<text xml:space="preserve" text-anchor="start" x="108.25" y="-72.25" font-family="Helvetica,sans-Serif" font-size="10.00">Tensorium_Grid/Grid</text>
<text xml:space="preserve" text-anchor="middle" x="152.88" y="-61" font-family="Helvetica,sans-Serif" font-size="10.00">/GridLayout.hpp</text>
</a>
</g>
</g>
<!-- Node2&#45;&gt;Node4 -->
<g id="edge3_Node000002_Node000004" class="edge">
<title>Node2&#45;&gt;Node4</title>
<g id="a_edge3_Node000002_Node000004"><a xlink:title=" ">
<path fill="none" stroke="#63b8ff" d="M110.47,-121.43C116.51,-114.31 125.25,-104.02 133.23,-94.63"/>
<polygon fill="#63b8ff" stroke="#63b8ff" points="135.75,-97.07 139.55,-87.19 130.41,-92.54 135.75,-97.07"/>
</a>
</g>
</g>
<!-- Node5 -->
<g id="Node000005" class="node">
<title>Node5</title>
<g id="a_Node000005"><a xlink:title=" ">
<polygon fill="#e0e0e0" stroke="#999999" points="77,-19.25 28.75,-19.25 28.75,0 77,0 77,-19.25"/>
<text xml:space="preserve" text-anchor="middle" x="52.88" y="-5.75" font-family="Helvetica,sans-Serif" font-size="10.00">cassert</text>
</a>
</g>
</g>
<!-- Node4&#45;&gt;Node5 -->
<g id="edge4_Node000004_Node000005" class="edge">
<title>Node4&#45;&gt;Node5</title>
<g id="a_edge4_Node000004_Node000005"><a xlink:title=" ">
<path fill="none" stroke="#63b8ff" d="M127.9,-54.8C112.67,-45.83 93.27,-34.41 78.01,-25.42"/>
<polygon fill="#63b8ff" stroke="#63b8ff" points="79.91,-22.48 69.52,-20.42 76.36,-28.51 79.91,-22.48"/>
</a>
</g>
</g>
<!-- Node6 -->
<g id="Node000006" class="node">
<title>Node6</title>
<g id="a_Node000006"><a xlink:title=" ">
<polygon fill="#e0e0e0" stroke="#999999" points="143,-19.25 94.75,-19.25 94.75,0 143,0 143,-19.25"/>
<text xml:space="preserve" text-anchor="middle" x="118.88" y="-5.75" font-family="Helvetica,sans-Serif" font-size="10.00">cstddef</text>
</a>
</g>
</g>
<!-- Node4&#45;&gt;Node6 -->
<g id="edge5_Node000004_Node000006" class="edge">
<title>Node4&#45;&gt;Node6</title>
<g id="a_edge5_Node000004_Node000006"><a xlink:title=" ">
<path fill="none" stroke="#63b8ff" d="M144.47,-54.95C140.04,-47.28 134.55,-37.77 129.8,-29.54"/>
<polygon fill="#63b8ff" stroke="#63b8ff" points="132.91,-27.92 124.87,-21.01 126.84,-31.42 132.91,-27.92"/>
</a>
</g>
</g>
<!-- Node7 -->
<g id="Node000007" class="node">
<title>Node7</title>
<g id="a_Node000007"><a xlink:title=" ">
<polygon fill="#e0e0e0" stroke="#999999" points="212.5,-19.25 161.25,-19.25 161.25,0 212.5,0 212.5,-19.25"/>
<text xml:space="preserve" text-anchor="middle" x="186.88" y="-5.75" font-family="Helvetica,sans-Serif" font-size="10.00">memory</text>
</a>
</g>
</g>
<!-- Node4&#45;&gt;Node7 -->
<g id="edge6_Node000004_Node000007" class="edge">
<title>Node4&#45;&gt;Node7</title>
<g id="a_edge6_Node000004_Node000007"><a xlink:title=" ">
<path fill="none" stroke="#63b8ff" d="M161.28,-54.95C165.71,-47.28 171.2,-37.77 175.95,-29.54"/>
<polygon fill="#63b8ff" stroke="#63b8ff" points="178.91,-31.42 180.88,-21.01 172.84,-27.92 178.91,-31.42"/>
</a>
</g>
</g>
<!-- Node8 -->
<g id="Node000008" class="node">
<title>Node8</title>
<g id="a_Node000008"><a xlink:title=" ">
<polygon fill="#e0e0e0" stroke="#999999" points="292.75,-19.25 231,-19.25 231,0 292.75,0 292.75,-19.25"/>
<text xml:space="preserve" text-anchor="middle" x="261.88" y="-5.75" font-family="Helvetica,sans-Serif" font-size="10.00">type_traits</text>
</a>
</g>
</g>
<!-- Node4&#45;&gt;Node8 -->
<g id="edge7_Node000004_Node000008" class="edge">
<title>Node4&#45;&gt;Node8</title>
<g id="a_edge7_Node000004_Node000008"><a xlink:title=" ">
<path fill="none" stroke="#63b8ff" d="M180.1,-54.8C197.02,-45.66 218.66,-33.97 235.43,-24.91"/>
<polygon fill="#63b8ff" stroke="#63b8ff" points="236.69,-28.21 243.83,-20.37 233.37,-22.05 236.69,-28.21"/>
</a>
</g>
</g>
</g>
</svg>
