<?xml version="1.0" encoding="UTF-8" standalone="no"?>
<!DOCTYPE svg PUBLIC "-//W3C//DTD SVG 1.1//EN"
 "http://www.w3.org/Graphics/SVG/1.1/DTD/svg11.dtd">
<!-- Generated by graphviz version 14.1.1 (20251213.1925)
 -->
<!-- Title: includes/Tensorium/Core/Spectral.hpp Pages: 1 -->
<svg width="1680pt" height="337pt"
 viewBox="0.00 0.00 1680.00 337.00" xmlns="http://www.w3.org/2000/svg" xmlns:xlink="http://www.w3.org/1999/xlink">
<g id="graph0" class="graph" transform="scale(1 1) rotate(0) translate(4 333.25)">
<title>includes/Tensorium/Core/Spectral.hpp</title>
<!-- Node1 -->
<g id="Node000001" class="node">
<title>Node1</title>
<g id="a_Node000001"><a xlink:title=" ">
<polygon fill="#999999" stroke="#666666" points="1202.99,-329.25 1102.99,-329.25 1102.99,-298.75 1202.99,-298.75 1202.99,-329.25"/>
<text xml:space="preserve" text-anchor="start" x="1110.99" y="-315.75" font-family="Helvetica,sans-Serif" font-size="10.00">includes/Tensorium</text>
<text xml:space="preserve" text-anchor="middle" x="1152.99" y="-304.5" font-family="Helvetica,sans-Serif" font-size="10.00">/Core/Spectral.hpp</text>
</a>
</g>
</g>
<!-- Node2 -->
<g id="Node000002" class="node">
<title>Node2</title>
<g id="a_Node000002"><a xlink:href="_maths_utils_8hpp.html" target="_top" xlink:title=" ">
<polygon fill="white" stroke="#666666" points="396.11,-141 305.86,-141 305.86,-110.5 396.11,-110.5 396.11,-141"/>
<text xml:space="preserve" text-anchor="start" x="313.86" y="-127.5" font-family="Helvetica,sans-Serif" font-size="10.00">../Utils/MathUtils</text>
<text xml:space="preserve" text-anchor="middle" x="350.99" y="-116.25" font-family="Helvetica,sans-Serif" font-size="10.00">/MathsUtils.hpp</text>
</a>
</g>
</g>
<!-- Node1&#45;&gt;Node2 -->
<g id="edge1_Node000001_Node000002" class="edge">
<title>Node1&#45;&gt;Node2</title>
<g id="a_edge1_Node000001_Node000002"><a xlink:title=" ">
<path fill="none" stroke="#63b8ff" d="M1102.57,-312.41C1014.9,-310.35 829.25,-301.34 677.99,-262.75 568.67,-234.86 448.07,-177.09 388.52,-146.59"/>
<polygon fill="#63b8ff" stroke="#63b8ff" points="390.31,-143.58 379.82,-142.1 387.1,-149.8 390.31,-143.58"/>
</a>
</g>
</g>
<!-- Node3 -->
<g id="Node000003" class="node">
<title>Node3</title>
<g id="a_Node000003"><a xlink:href="_allocator_8hpp.html" target="_top" xlink:title=" ">
<polygon fill="white" stroke="#666666" points="953.49,-135.38 802.49,-135.38 802.49,-116.12 953.49,-116.12 953.49,-135.38"/>
<text xml:space="preserve" text-anchor="middle" x="877.99" y="-121.88" font-family="Helvetica,sans-Serif" font-size="10.00">../Backend/SIMD/Allocator.hpp</text>
</a>
</g>
</g>
<!-- Node1&#45;&gt;Node3 -->
<g id="edge2_Node000001_Node000003" class="edge">
<title>Node1&#45;&gt;Node3</title>
<g id="a_edge2_Node000001_Node000003"><a xlink:title=" ">
<path fill="none" stroke="#63b8ff" d="M1131.41,-298.39C1080.36,-263.82 952.6,-177.28 900.57,-142.04"/>
<polygon fill="#63b8ff" stroke="#63b8ff" points="902.71,-139.27 892.47,-136.56 898.78,-145.06 902.71,-139.27"/>
</a>
</g>
</g>
<!-- Node4 -->
<g id="Node000004" class="node">
<title>Node4</title>
<g id="a_Node000004"><a xlink:href="_s_i_m_d_8hpp.html" target="_top" xlink:title=" ">
<polygon fill="white" stroke="#666666" points="546.11,-74.5 485.86,-74.5 485.86,-55.25 546.11,-55.25 546.11,-74.5"/>
<text xml:space="preserve" text-anchor="middle" x="515.99" y="-61" font-family="Helvetica,sans-Serif" font-size="10.00">SIMD.hpp</text>
</a>
</g>
</g>
<!-- Node1&#45;&gt;Node4 -->
<g id="edge18_Node000001_Node000004" class="edge">
<title>Node1&#45;&gt;Node4</title>
<g id="a_edge18_Node000001_Node000004"><a xlink:title=" ">
<path fill="none" stroke="#63b8ff" d="M1102.65,-311.6C938.07,-306.79 417.01,-289.77 250.99,-262.75 159.12,-247.8 121.89,-265.36 48.99,-207.5 12.96,-178.92 -18.06,-144.42 12.99,-110.5 43.89,-76.73 359.17,-68.36 474.24,-66.42"/>
<polygon fill="#63b8ff" stroke="#63b8ff" points="474.23,-69.92 484.17,-66.26 474.12,-62.92 474.23,-69.92"/>
</a>
</g>
</g>
<!-- Node8 -->
<g id="Node000008" class="node">
<title>Node8</title>
<g id="a_Node000008"><a xlink:title=" ">
<polygon fill="#e0e0e0" stroke="#999999" points="762.74,-19.25 709.24,-19.25 709.24,0 762.74,0 762.74,-19.25"/>
<text xml:space="preserve" text-anchor="middle" x="735.99" y="-5.75" font-family="Helvetica,sans-Serif" font-size="10.00">iostream</text>
</a>
</g>
</g>
<!-- Node1&#45;&gt;Node8 -->
<g id="edge64_Node000001_Node000008" class="edge">
<title>Node1&#45;&gt;Node8</title>
<g id="a_edge64_Node000001_Node000008"><a xlink:title=" ">
<path fill="none" stroke="#63b8ff" d="M1203.33,-309.98C1267.7,-303.12 1376.93,-280.68 1427.99,-207.5 1452.87,-171.83 1468.85,-143.9 1440.99,-110.5 1397.75,-58.67 915.24,-22.59 774.37,-13.1"/>
<polygon fill="#63b8ff" stroke="#63b8ff" points="774.67,-9.62 764.46,-12.44 774.2,-16.6 774.67,-9.62"/>
</a>
</g>
</g>
<!-- Node11 -->
<g id="Node000011" class="node">
<title>Node11</title>
<g id="a_Node000011"><a xlink:title=" ">
<polygon fill="#e0e0e0" stroke="#999999" points="964.49,-19.25 921.49,-19.25 921.49,0 964.49,0 964.49,-19.25"/>
<text xml:space="preserve" text-anchor="middle" x="942.99" y="-5.75" font-family="Helvetica,sans-Serif" font-size="10.00">vector</text>
</a>
</g>
</g>
<!-- Node1&#45;&gt;Node11 -->
<g id="edge67_Node000001_Node000011" class="edge">
<title>Node1&#45;&gt;Node11</title>
<g id="a_edge67_Node000001_Node000011"><a xlink:title=" ">
<path fill="none" stroke="#63b8ff" d="M1203.3,-311.74C1286.37,-308.67 1447.33,-298.19 1489.99,-262.75 1515.12,-241.87 1513.99,-225.93 1513.99,-193.25 1513.99,-193.25 1513.99,-193.25 1513.99,-124.75 1513.99,-14.31 1098.03,-9.25 976.16,-10.14"/>
<polygon fill="#63b8ff" stroke="#63b8ff" points="976.15,-6.64 966.19,-10.24 976.22,-13.64 976.15,-6.64"/>
</a>
</g>
</g>
<!-- Node12 -->
<g id="Node000012" class="node">
<title>Node12</title>
<g id="a_Node000012"><a xlink:title=" ">
<polygon fill="#e0e0e0" stroke="#999999" points="1079.49,-74.5 1036.49,-74.5 1036.49,-55.25 1079.49,-55.25 1079.49,-74.5"/>
<text xml:space="preserve" text-anchor="middle" x="1057.99" y="-61" font-family="Helvetica,sans-Serif" font-size="10.00">cmath</text>
</a>
</g>
</g>
<!-- Node1&#45;&gt;Node12 -->
<g id="edge62_Node000001_Node000012" class="edge">
<title>Node1&#45;&gt;Node12</title>
<g id="a_edge62_Node000001_Node000012"><a xlink:title=" ">
<path fill="none" stroke="#63b8ff" d="M1203.12,-298.66C1299.38,-268.78 1494.14,-195.51 1418.99,-110.5 1397.41,-86.09 1176.12,-72.04 1091.05,-67.51"/>
<polygon fill="#63b8ff" stroke="#63b8ff" points="1091.44,-64.02 1081.27,-67 1091.07,-71.01 1091.44,-64.02"/>
</a>
</g>
</g>
<!-- Node13 -->
<g id="Node000013" class="node">
<title>Node13</title>
<g id="a_Node000013"><a xlink:href="_c_p_u__id_8hpp.html" target="_top" xlink:title=" ">
<polygon fill="white" stroke="#666666" points="632.24,-141 515.74,-141 515.74,-110.5 632.24,-110.5 632.24,-141"/>
<text xml:space="preserve" text-anchor="start" x="523.74" y="-127.5" font-family="Helvetica,sans-Serif" font-size="10.00">../Backend/SIMD/CPU</text>
<text xml:space="preserve" text-anchor="middle" x="573.99" y="-116.25" font-family="Helvetica,sans-Serif" font-size="10.00">_id.hpp</text>
</a>
</g>
</g>
<!-- Node1&#45;&gt;Node13 -->
<g id="edge14_Node000001_Node000013" class="edge">
<title>Node1&#45;&gt;Node13</title>
<g id="a_edge14_Node000001_Node000013"><a xlink:title=" ">
<path fill="none" stroke="#63b8ff" d="M1102.76,-310.65C1003.16,-305.43 784.25,-291.04 714.99,-262.75 658.77,-239.79 612.39,-182.71 589.46,-150.27"/>
<polygon fill="#63b8ff" stroke="#63b8ff" points="592.53,-148.55 583.98,-142.3 586.77,-152.52 592.53,-148.55"/>
</a>
</g>
</g>
<!-- Node14 -->
<g id="Node000014" class="node">
<title>Node14</title>
<g id="a_Node000014"><a xlink:href="_matrix_8hpp.html" target="_top" xlink:title=" ">
<polygon fill="white" stroke="#666666" points="785.86,-262.75 724.11,-262.75 724.11,-243.5 785.86,-243.5 785.86,-262.75"/>
<text xml:space="preserve" text-anchor="middle" x="754.99" y="-249.25" font-family="Helvetica,sans-Serif" font-size="10.00">Matrix.hpp</text>
</a>
</g>
</g>
<!-- Node1&#45;&gt;Node14 -->
<g id="edge19_Node000001_Node000014" class="edge">
<title>Node1&#45;&gt;Node14</title>
<g id="a_edge19_Node000001_Node000014"><a xlink:title=" ">
<path fill="none" stroke="#63b8ff" d="M1102.58,-305.54C1023.36,-293.82 871.14,-271.31 797.27,-260.38"/>
<polygon fill="#63b8ff" stroke="#63b8ff" points="798.01,-256.95 787.61,-258.95 796.99,-263.88 798.01,-256.95"/>
</a>
</g>
</g>
<!-- Node15 -->
<g id="Node000015" class="node">
<title>Node15</title>
<g id="a_Node000015"><a xlink:href="_vector_8hpp.html" target="_top" xlink:title=" ">
<polygon fill="white" stroke="#666666" points="786.24,-201.88 723.74,-201.88 723.74,-182.62 786.24,-182.62 786.24,-201.88"/>
<text xml:space="preserve" text-anchor="middle" x="754.99" y="-188.38" font-family="Helvetica,sans-Serif" font-size="10.00">Vector.hpp</text>
</a>
</g>
</g>
<!-- Node1&#45;&gt;Node15 -->
<g id="edge58_Node000001_Node000015" class="edge">
<title>Node1&#45;&gt;Node15</title>
<g id="a_edge58_Node000001_Node000015"><a xlink:title=" ">
<path fill="none" stroke="#63b8ff" d="M1104.18,-298.32C1024.91,-274.47 869.62,-227.74 795.81,-205.53"/>
<polygon fill="#63b8ff" stroke="#63b8ff" points="797.15,-202.28 786.56,-202.75 795.13,-208.98 797.15,-202.28"/>
</a>
</g>
</g>
<!-- Node16 -->
<g id="Node000016" class="node">
<title>Node16</title>
<g id="a_Node000016"><a xlink:title=" ">
<polygon fill="#e0e0e0" stroke="#999999" points="1134.11,-135.38 1085.86,-135.38 1085.86,-116.12 1134.11,-116.12 1134.11,-135.38"/>
<text xml:space="preserve" text-anchor="middle" x="1109.99" y="-121.88" font-family="Helvetica,sans-Serif" font-size="10.00">cassert</text>
</a>
</g>
</g>
<!-- Node1&#45;&gt;Node16 -->
<g id="edge61_Node000001_Node000016" class="edge">
<title>Node1&#45;&gt;Node16</title>
<g id="a_edge61_Node000001_Node000016"><a xlink:title=" ">
<path fill="none" stroke="#63b8ff" d="M1149.61,-298.39C1141.96,-265.26 1123.3,-184.4 1114.59,-146.71"/>
<polygon fill="#63b8ff" stroke="#63b8ff" points="1118.05,-146.14 1112.39,-137.18 1111.23,-147.72 1118.05,-146.14"/>
</a>
</g>
</g>
<!-- Node18 -->
<g id="Node000018" class="node">
<title>Node18</title>
<g id="a_Node000018"><a xlink:title=" ">
<polygon fill="#e0e0e0" stroke="#999999" points="87.86,-135.38 32.11,-135.38 32.11,-116.12 87.86,-116.12 87.86,-135.38"/>
<text xml:space="preserve" text-anchor="middle" x="59.99" y="-121.88" font-family="Helvetica,sans-Serif" font-size="10.00">algorithm</text>
</a>
</g>
</g>
<!-- Node1&#45;&gt;Node18 -->
<g id="edge59_Node000001_Node000018" class="edge">
<title>Node1&#45;&gt;Node18</title>
<g id="a_edge59_Node000001_Node000018"><a xlink:title=" ">
<path fill="none" stroke="#63b8ff" d="M1102.54,-312.48C921.67,-309.9 307.4,-294.74 134.99,-207.5 107.04,-193.36 84.17,-164.29 71.31,-145.16"/>
<polygon fill="#63b8ff" stroke="#63b8ff" points="74.4,-143.5 66.04,-136.99 68.52,-147.29 74.4,-143.5"/>
</a>
</g>
</g>
<!-- Node22 -->
<g id="Node000022" class="node">
<title>Node22</title>
<g id="a_Node000022"><a xlink:href="_tensor_8hpp.html" target="_top" xlink:title=" ">
<polygon fill="white" stroke="#666666" points="1225.61,-201.88 1162.36,-201.88 1162.36,-182.62 1225.61,-182.62 1225.61,-201.88"/>
<text xml:space="preserve" text-anchor="middle" x="1193.99" y="-188.38" font-family="Helvetica,sans-Serif" font-size="10.00">Tensor.hpp</text>
</a>
</g>
</g>
<!-- Node1&#45;&gt;Node22 -->
<g id="edge46_Node000001_Node000022" class="edge">
<title>Node1&#45;&gt;Node22</title>
<g id="a_edge46_Node000001_Node000022"><a xlink:title=" ">
<path fill="none" stroke="#63b8ff" d="M1158.01,-298.32C1165.37,-276.84 1179.07,-236.81 1187.28,-212.84"/>
<polygon fill="#63b8ff" stroke="#63b8ff" points="1190.49,-214.26 1190.42,-203.67 1183.87,-212 1190.49,-214.26"/>
</a>
</g>
</g>
<!-- Node23 -->
<g id="Node000023" class="node">
<title>Node23</title>
<g id="a_Node000023"><a xlink:title=" ">
<polygon fill="#e0e0e0" stroke="#999999" points="1341.86,-135.38 1304.11,-135.38 1304.11,-116.12 1341.86,-116.12 1341.86,-135.38"/>
<text xml:space="preserve" text-anchor="middle" x="1322.99" y="-121.88" font-family="Helvetica,sans-Serif" font-size="10.00">array</text>
</a>
</g>
</g>
<!-- Node1&#45;&gt;Node23 -->
<g id="edge60_Node000001_Node000023" class="edge">
<title>Node1&#45;&gt;Node23</title>
<g id="a_edge60_Node000001_Node000023"><a xlink:title=" ">
<path fill="none" stroke="#63b8ff" d="M1166.32,-298.39C1197.35,-264.39 1274.24,-180.15 1307.38,-143.85"/>
<polygon fill="#63b8ff" stroke="#63b8ff" points="1309.63,-146.57 1313.79,-136.83 1304.46,-141.85 1309.63,-146.57"/>
</a>
</g>
</g>
<!-- Node24 -->
<g id="Node000024" class="node">
<title>Node24</title>
<g id="a_Node000024"><a xlink:title=" ">
<polygon fill="#e0e0e0" stroke="#999999" points="1409.86,-135.38 1360.11,-135.38 1360.11,-116.12 1409.86,-116.12 1409.86,-135.38"/>
<text xml:space="preserve" text-anchor="middle" x="1384.99" y="-121.88" font-family="Helvetica,sans-Serif" font-size="10.00">iomanip</text>
</a>
</g>
</g>
<!-- Node1&#45;&gt;Node24 -->
<g id="edge63_Node000001_Node000024" class="edge">
<title>Node1&#45;&gt;Node24</title>
<g id="a_edge63_Node000001_Node000024"><a xlink:title=" ">
<path fill="none" stroke="#63b8ff" d="M1173.78,-298.4C1187.61,-288.55 1206.09,-275.14 1221.99,-262.75 1275.48,-221.03 1336.32,-168.99 1366.28,-143.04"/>
<polygon fill="#63b8ff" stroke="#63b8ff" points="1368.48,-145.77 1373.74,-136.57 1363.89,-140.49 1368.48,-145.77"/>
</a>
</g>
</g>
<!-- Node25 -->
<g id="Node000025" class="node">
<title>Node25</title>
<g id="a_Node000025"><a xlink:title=" ">
<polygon fill="#e0e0e0" stroke="#999999" points="1595.74,-262.75 1542.24,-262.75 1542.24,-243.5 1595.74,-243.5 1595.74,-262.75"/>
<text xml:space="preserve" text-anchor="middle" x="1568.99" y="-249.25" font-family="Helvetica,sans-Serif" font-size="10.00">numbers</text>
</a>
</g>
</g>
<!-- Node1&#45;&gt;Node25 -->
<g id="edge65_Node000001_Node000025" class="edge">
<title>Node1&#45;&gt;Node25</title>
<g id="a_edge65_Node000001_Node000025"><a xlink:title=" ">
<path fill="none" stroke="#63b8ff" d="M1203.21,-307.47C1275.32,-299.26 1412.27,-282.65 1527.99,-262.75 1528.99,-262.58 1530.01,-262.4 1531.03,-262.21"/>
<polygon fill="#63b8ff" stroke="#63b8ff" points="1531.49,-265.69 1540.65,-260.36 1530.17,-258.82 1531.49,-265.69"/>
</a>
</g>
</g>
<!-- Node26 -->
<g id="Node000026" class="node">
<title>Node26</title>
<g id="a_Node000026"><a xlink:title=" ">
<polygon fill="#e0e0e0" stroke="#999999" points="1672.36,-262.75 1613.61,-262.75 1613.61,-243.5 1672.36,-243.5 1672.36,-262.75"/>
<text xml:space="preserve" text-anchor="middle" x="1642.99" y="-249.25" font-family="Helvetica,sans-Serif" font-size="10.00">stdexcept</text>
</a>
</g>
</g>
<!-- Node1&#45;&gt;Node26 -->
<g id="edge66_Node000001_Node000026" class="edge">
<title>Node1&#45;&gt;Node26</title>
<g id="a_edge66_Node000001_Node000026"><a xlink:title=" ">
<path fill="none" stroke="#63b8ff" d="M1203.41,-309.26C1285.14,-302.79 1451.78,-287.9 1601.94,-263.1"/>
<polygon fill="#63b8ff" stroke="#63b8ff" points="1602.4,-266.58 1611.68,-261.47 1601.24,-259.67 1602.4,-266.58"/>
</a>
</g>
</g>
<!-- Node3&#45;&gt;Node4 -->
<g id="edge3_Node000003_Node000004" class="edge">
<title>Node3&#45;&gt;Node4</title>
<g id="a_edge3_Node000003_Node000004"><a xlink:title=" ">
<path fill="none" stroke="#63b8ff" d="M822.22,-115.68C749.06,-103.78 622.38,-83.18 557.26,-72.59"/>
<polygon fill="#63b8ff" stroke="#63b8ff" points="558.14,-69.19 547.71,-71.03 557.02,-76.09 558.14,-69.19"/>
</a>
</g>
</g>
<!-- Node3&#45;&gt;Node8 -->
<g id="edge12_Node000003_Node000008" class="edge">
<title>Node3&#45;&gt;Node8</title>
<g id="a_edge12_Node000003_Node000008"><a xlink:title=" ">
<path fill="none" stroke="#63b8ff" d="M866.84,-115.79C842.89,-96.54 786.22,-51 755.91,-26.64"/>
<polygon fill="#63b8ff" stroke="#63b8ff" points="758.24,-24.02 748.26,-20.49 753.86,-29.48 758.24,-24.02"/>
</a>
</g>
</g>
<!-- Node3&#45;&gt;Node11 -->
<g id="edge13_Node000003_Node000011" class="edge">
<title>Node3&#45;&gt;Node11</title>
<g id="a_edge13_Node000003_Node000011"><a xlink:title=" ">
<path fill="none" stroke="#63b8ff" d="M883.09,-115.79C893.67,-97.21 918.21,-54.12 932.38,-29.25"/>
<polygon fill="#63b8ff" stroke="#63b8ff" points="935.25,-31.28 937.16,-20.85 929.17,-27.81 935.25,-31.28"/>
</a>
</g>
</g>
<!-- Node3&#45;&gt;Node12 -->
<g id="edge11_Node000003_Node000012" class="edge">
<title>Node3&#45;&gt;Node12</title>
<g id="a_edge11_Node000003_Node000012"><a xlink:title=" ">
<path fill="none" stroke="#63b8ff" d="M905.72,-115.68C937.97,-105.13 991.14,-87.74 1025.35,-76.55"/>
<polygon fill="#63b8ff" stroke="#63b8ff" points="1026.31,-79.92 1034.73,-73.48 1024.14,-73.26 1026.31,-79.92"/>
</a>
</g>
</g>
<!-- Node5 -->
<g id="Node000005" class="node">
<title>Node5</title>
<g id="a_Node000005"><a xlink:title=" ">
<polygon fill="#e0e0e0" stroke="#999999" points="544.36,-19.25 491.61,-19.25 491.61,0 544.36,0 544.36,-19.25"/>
<text xml:space="preserve" text-anchor="middle" x="517.99" y="-5.75" font-family="Helvetica,sans-Serif" font-size="10.00">complex</text>
</a>
</g>
</g>
<!-- Node4&#45;&gt;Node5 -->
<g id="edge4_Node000004_Node000005" class="edge">
<title>Node4&#45;&gt;Node5</title>
<g id="a_edge4_Node000004_Node000005"><a xlink:title=" ">
<path fill="none" stroke="#63b8ff" d="M516.32,-55.08C516.56,-48.49 516.91,-39.21 517.23,-30.82"/>
<polygon fill="#63b8ff" stroke="#63b8ff" points="520.71,-31.25 517.59,-21.12 513.72,-30.98 520.71,-31.25"/>
</a>
</g>
</g>
<!-- Node6 -->
<g id="Node000006" class="node">
<title>Node6</title>
<g id="a_Node000006"><a xlink:title=" ">
<polygon fill="#e0e0e0" stroke="#999999" points="611.11,-19.25 562.86,-19.25 562.86,0 611.11,0 611.11,-19.25"/>
<text xml:space="preserve" text-anchor="middle" x="586.99" y="-5.75" font-family="Helvetica,sans-Serif" font-size="10.00">cstddef</text>
</a>
</g>
</g>
<!-- Node4&#45;&gt;Node6 -->
<g id="edge5_Node000004_Node000006" class="edge">
<title>Node4&#45;&gt;Node6</title>
<g id="a_edge5_Node000004_Node000006"><a xlink:title=" ">
<path fill="none" stroke="#63b8ff" d="M528.03,-54.84C538.39,-47.07 553.59,-35.67 565.95,-26.4"/>
<polygon fill="#63b8ff" stroke="#63b8ff" points="568.01,-29.23 573.91,-20.43 563.81,-23.63 568.01,-29.23"/>
</a>
</g>
</g>
<!-- Node7 -->
<g id="Node000007" class="node">
<title>Node7</title>
<g id="a_Node000007"><a xlink:title=" ">
<polygon fill="#e0e0e0" stroke="#999999" points="415.61,-19.25 370.36,-19.25 370.36,0 415.61,0 415.61,-19.25"/>
<text xml:space="preserve" text-anchor="middle" x="392.99" y="-5.75" font-family="Helvetica,sans-Serif" font-size="10.00">cstring</text>
</a>
</g>
</g>
<!-- Node4&#45;&gt;Node7 -->
<g id="edge6_Node000004_Node000007" class="edge">
<title>Node4&#45;&gt;Node7</title>
<g id="a_edge6_Node000004_Node000007"><a xlink:title=" ">
<path fill="none" stroke="#63b8ff" d="M495.12,-54.84C475.68,-46.43 446.44,-33.77 424.22,-24.15"/>
<polygon fill="#63b8ff" stroke="#63b8ff" points="425.91,-21.06 415.34,-20.3 423.13,-27.49 425.91,-21.06"/>
</a>
</g>
</g>
<!-- Node4&#45;&gt;Node8 -->
<g id="edge7_Node000004_Node000008" class="edge">
<title>Node4&#45;&gt;Node8</title>
<g id="a_edge7_Node000004_Node000008"><a xlink:title=" ">
<path fill="none" stroke="#63b8ff" d="M546.58,-56.47C586.05,-46.92 654.74,-30.29 697.66,-19.9"/>
<polygon fill="#63b8ff" stroke="#63b8ff" points="698.4,-23.32 707.3,-17.57 696.75,-16.52 698.4,-23.32"/>
</a>
</g>
</g>
<!-- Node9 -->
<g id="Node000009" class="node">
<title>Node9</title>
<g id="a_Node000009"><a xlink:title=" ">
<polygon fill="#e0e0e0" stroke="#999999" points="473.99,-19.25 433.99,-19.25 433.99,0 473.99,0 473.99,-19.25"/>
<text xml:space="preserve" text-anchor="middle" x="453.99" y="-5.75" font-family="Helvetica,sans-Serif" font-size="10.00">string</text>
</a>
</g>
</g>
<!-- Node4&#45;&gt;Node9 -->
<g id="edge8_Node000004_Node000009" class="edge">
<title>Node4&#45;&gt;Node9</title>
<g id="a_edge8_Node000004_Node000009"><a xlink:title=" ">
<path fill="none" stroke="#63b8ff" d="M505.47,-54.84C496.6,-47.22 483.67,-36.12 473,-26.95"/>
<polygon fill="#63b8ff" stroke="#63b8ff" points="475.36,-24.37 465.5,-20.51 470.8,-29.68 475.36,-24.37"/>
</a>
</g>
</g>
<!-- Node10 -->
<g id="Node000010" class="node">
<title>Node10</title>
<g id="a_Node000010"><a xlink:title=" ">
<polygon fill="#e0e0e0" stroke="#999999" points="690.86,-19.25 629.11,-19.25 629.11,0 690.86,0 690.86,-19.25"/>
<text xml:space="preserve" text-anchor="middle" x="659.99" y="-5.75" font-family="Helvetica,sans-Serif" font-size="10.00">type_traits</text>
</a>
</g>
</g>
<!-- Node4&#45;&gt;Node10 -->
<g id="edge9_Node000004_Node000010" class="edge">
<title>Node4&#45;&gt;Node10</title>
<g id="a_edge9_Node000004_Node000010"><a xlink:title=" ">
<path fill="none" stroke="#63b8ff" d="M540.41,-54.84C563.58,-46.27 598.65,-33.31 624.82,-23.63"/>
<polygon fill="#63b8ff" stroke="#63b8ff" points="625.85,-26.98 634.02,-20.23 623.42,-20.41 625.85,-26.98"/>
</a>
</g>
</g>
<!-- Node4&#45;&gt;Node11 -->
<g id="edge10_Node000004_Node000011" class="edge">
<title>Node4&#45;&gt;Node11</title>
<g id="a_edge10_Node000004_Node000011"><a xlink:title=" ">
<path fill="none" stroke="#63b8ff" d="M546.35,-60.09C623.92,-50.42 828.89,-24.85 909.63,-14.78"/>
<polygon fill="#63b8ff" stroke="#63b8ff" points="910.05,-18.26 919.54,-13.55 909.19,-11.31 910.05,-18.26"/>
</a>
</g>
</g>
<!-- Node13&#45;&gt;Node7 -->
<g id="edge15_Node000013_Node000007" class="edge">
<title>Node13&#45;&gt;Node7</title>
<g id="a_edge15_Node000013_Node000007"><a xlink:title=" ">
<path fill="none" stroke="#63b8ff" d="M532.26,-110.09C510.15,-101.38 483.07,-89.17 460.99,-74.5 440.84,-61.12 421.07,-41.62 408.08,-27.69"/>
<polygon fill="#63b8ff" stroke="#63b8ff" points="410.93,-25.62 401.61,-20.58 405.75,-30.33 410.93,-25.62"/>
</a>
</g>
</g>
<!-- Node13&#45;&gt;Node8 -->
<g id="edge16_Node000013_Node000008" class="edge">
<title>Node13&#45;&gt;Node8</title>
<g id="a_edge16_Node000013_Node000008"><a xlink:title=" ">
<path fill="none" stroke="#63b8ff" d="M594.83,-110.06C625.52,-88.44 682.61,-48.23 713.96,-26.14"/>
<polygon fill="#63b8ff" stroke="#63b8ff" points="715.77,-29.15 721.93,-20.53 711.74,-23.43 715.77,-29.15"/>
</a>
</g>
</g>
<!-- Node13&#45;&gt;Node9 -->
<g id="edge17_Node000013_Node000009" class="edge">
<title>Node13&#45;&gt;Node9</title>
<g id="a_edge17_Node000013_Node000009"><a xlink:title=" ">
<path fill="none" stroke="#63b8ff" d="M529.72,-110.11C511.29,-102.1 490.98,-90.48 476.99,-74.5 466.17,-62.14 460.31,-44.31 457.22,-30.63"/>
<polygon fill="#63b8ff" stroke="#63b8ff" points="460.69,-30.16 455.38,-20.99 453.82,-31.47 460.69,-30.16"/>
</a>
</g>
</g>
<!-- Node14&#45;&gt;Node2 -->
<g id="edge23_Node000014_Node000002" class="edge">
<title>Node14&#45;&gt;Node2</title>
<g id="a_edge23_Node000014_Node000002"><a xlink:title=" ">
<path fill="none" stroke="#63b8ff" d="M723.95,-251.43C670.95,-249.33 560.36,-240.92 473.99,-207.5 437.39,-193.34 400.43,-167.1 376.71,-148.37"/>
<polygon fill="#63b8ff" stroke="#63b8ff" points="379.16,-145.85 369.18,-142.31 374.77,-151.31 379.16,-145.85"/>
</a>
</g>
</g>
<!-- Node14&#45;&gt;Node3 -->
<g id="edge20_Node000014_Node000003" class="edge">
<title>Node14&#45;&gt;Node3</title>
<g id="a_edge20_Node000014_Node000003"><a xlink:title=" ">
<path fill="none" stroke="#63b8ff" d="M763.83,-243.11C784.22,-222.33 834.79,-170.78 861.25,-143.81"/>
<polygon fill="#63b8ff" stroke="#63b8ff" points="863.65,-146.35 868.16,-136.77 858.66,-141.45 863.65,-146.35"/>
</a>
</g>
</g>
<!-- Node14&#45;&gt;Node4 -->
<g id="edge22_Node000014_Node000004" class="edge">
<title>Node14&#45;&gt;Node4</title>
<g id="a_edge22_Node000014_Node000004"><a xlink:title=" ">
<path fill="none" stroke="#63b8ff" d="M723.98,-251.77C614.51,-250.24 246.71,-242.53 134.99,-207.5 79.75,-190.18 51.62,-191.31 22.99,-141 16.28,-129.22 13.84,-120.51 22.99,-110.5 53.18,-77.45 360.85,-68.64 474.28,-66.5"/>
<polygon fill="#63b8ff" stroke="#63b8ff" points="474.13,-70.01 484.06,-66.33 474,-63.01 474.13,-70.01"/>
</a>
</g>
</g>
<!-- Node14&#45;&gt;Node8 -->
<g id="edge44_Node000014_Node000008" class="edge">
<title>Node14&#45;&gt;Node8</title>
<g id="a_edge44_Node000014_Node000008"><a xlink:title=" ">
<path fill="none" stroke="#63b8ff" d="M723.96,-248.98C668.72,-241.52 554.69,-217.18 506.99,-141 499.79,-129.51 499.56,-121.84 506.99,-110.5 528.97,-76.92 638.85,-39.7 698.05,-21.64"/>
<polygon fill="#63b8ff" stroke="#63b8ff" points="698.82,-25.07 707.38,-18.84 696.8,-18.37 698.82,-25.07"/>
</a>
</g>
</g>
<!-- Node14&#45;&gt;Node11 -->
<g id="edge45_Node000014_Node000011" class="edge">
<title>Node14&#45;&gt;Node11</title>
<g id="a_edge45_Node000014_Node000011"><a xlink:title=" ">
<path fill="none" stroke="#63b8ff" d="M786.29,-245.94C834.24,-234.59 924.36,-205.44 962.99,-141 984,-105.94 965.99,-56.39 953.15,-29.6"/>
<polygon fill="#63b8ff" stroke="#63b8ff" points="956.42,-28.31 948.78,-20.97 950.18,-31.47 956.42,-28.31"/>
</a>
</g>
</g>
<!-- Node14&#45;&gt;Node12 -->
<g id="edge43_Node000014_Node000012" class="edge">
<title>Node14&#45;&gt;Node12</title>
<g id="a_edge43_Node000014_Node000012"><a xlink:title=" ">
<path fill="none" stroke="#63b8ff" d="M786.19,-249.95C843.8,-245.36 963.9,-232.95 995.99,-207.5 1034.61,-176.86 1049.73,-117.27 1055.19,-86.06"/>
<polygon fill="#63b8ff" stroke="#63b8ff" points="1058.61,-86.83 1056.69,-76.41 1051.69,-85.75 1058.61,-86.83"/>
</a>
</g>
</g>
<!-- Node14&#45;&gt;Node13 -->
<g id="edge21_Node000014_Node000013" class="edge">
<title>Node14&#45;&gt;Node13</title>
<g id="a_edge21_Node000014_Node000013"><a xlink:title=" ">
<path fill="none" stroke="#63b8ff" d="M741.97,-243.11C713.36,-223.29 644.38,-175.51 604.28,-147.73"/>
<polygon fill="#63b8ff" stroke="#63b8ff" points="606.44,-144.98 596.23,-142.16 602.46,-150.73 606.44,-144.98"/>
</a>
</g>
</g>
<!-- Node14&#45;&gt;Node15 -->
<g id="edge24_Node000014_Node000015" class="edge">
<title>Node14&#45;&gt;Node15</title>
<g id="a_edge24_Node000014_Node000015"><a xlink:title=" ">
<path fill="none" stroke="#63b8ff" d="M754.99,-243.18C754.99,-235.4 754.99,-223.83 754.99,-213.78"/>
<polygon fill="#63b8ff" stroke="#63b8ff" points="758.49,-213.79 754.99,-203.79 751.49,-213.79 758.49,-213.79"/>
</a>
</g>
</g>
<!-- Node14&#45;&gt;Node16 -->
<g id="edge42_Node000014_Node000016" class="edge">
<title>Node14&#45;&gt;Node16</title>
<g id="a_edge42_Node000014_Node000016"><a xlink:title=" ">
<path fill="none" stroke="#63b8ff" d="M786.11,-251.43C856.83,-249.28 1026.98,-240.69 1071.99,-207.5 1091.63,-193.01 1101.49,-165.77 1106.17,-146.96"/>
<polygon fill="#63b8ff" stroke="#63b8ff" points="1109.57,-147.78 1108.27,-137.27 1102.73,-146.3 1109.57,-147.78"/>
</a>
</g>
</g>
<!-- Node17 -->
<g id="Node000017" class="node">
<title>Node17</title>
<g id="a_Node000017"><a xlink:href="_gemm_kernel___optimized_8hpp.html" target="_top" xlink:title=" ">
<polygon fill="white" stroke="#666666" points="326.24,-207.5 143.74,-207.5 143.74,-177 326.24,-177 326.24,-207.5"/>
<text xml:space="preserve" text-anchor="start" x="151.74" y="-194" font-family="Helvetica,sans-Serif" font-size="10.00">Tensorium/Backend/CPU</text>
<text xml:space="preserve" text-anchor="middle" x="234.99" y="-182.75" font-family="Helvetica,sans-Serif" font-size="10.00">_Kernels/GemmKernel_Optimized.hpp</text>
</a>
</g>
</g>
<!-- Node14&#45;&gt;Node17 -->
<g id="edge34_Node000014_Node000017" class="edge">
<title>Node14&#45;&gt;Node17</title>
<g id="a_edge34_Node000014_Node000017"><a xlink:title=" ">
<path fill="none" stroke="#63b8ff" d="M723.63,-248.57C648.96,-240.12 457.95,-218.49 338.06,-204.92"/>
<polygon fill="#63b8ff" stroke="#63b8ff" points="338.52,-201.45 328.19,-203.8 337.73,-208.41 338.52,-201.45"/>
</a>
</g>
</g>
<!-- Node15&#45;&gt;Node2 -->
<g id="edge25_Node000015_Node000002" class="edge">
<title>Node15&#45;&gt;Node2</title>
<g id="a_edge25_Node000015_Node000002"><a xlink:title=" ">
<path fill="none" stroke="#63b8ff" d="M723.4,-187.95C663.59,-181.45 529.55,-165.6 407.57,-141.39"/>
<polygon fill="#63b8ff" stroke="#63b8ff" points="408.54,-138.01 398.05,-139.47 407.16,-144.88 408.54,-138.01"/>
</a>
</g>
</g>
<!-- Node15&#45;&gt;Node3 -->
<g id="edge26_Node000015_Node000003" class="edge">
<title>Node15&#45;&gt;Node3</title>
<g id="a_edge26_Node000015_Node000003"><a xlink:title=" ">
<path fill="none" stroke="#63b8ff" d="M772.35,-182.15C792.68,-171.49 826.6,-153.69 850.51,-141.16"/>
<polygon fill="#63b8ff" stroke="#63b8ff" points="852.14,-144.25 859.37,-136.51 848.89,-138.06 852.14,-144.25"/>
</a>
</g>
</g>
<!-- Node15&#45;&gt;Node4 -->
<g id="edge28_Node000015_Node000004" class="edge">
<title>Node15&#45;&gt;Node4</title>
<g id="a_edge28_Node000015_Node000004"><a xlink:title=" ">
<path fill="none" stroke="#63b8ff" d="M742.16,-182.18C727.93,-172.12 704.32,-155.41 683.99,-141 664.87,-127.45 661.77,-121.32 640.99,-110.5 614.31,-96.61 582.34,-85.29 557.42,-77.52"/>
<polygon fill="#63b8ff" stroke="#63b8ff" points="558.54,-74.2 547.95,-74.65 556.5,-80.9 558.54,-74.2"/>
</a>
</g>
</g>
<!-- Node15&#45;&gt;Node8 -->
<g id="edge31_Node000015_Node000008" class="edge">
<title>Node15&#45;&gt;Node8</title>
<g id="a_edge31_Node000015_Node000008"><a xlink:title=" ">
<path fill="none" stroke="#63b8ff" d="M754.07,-182.54C751.19,-155.13 742.25,-70.15 738.12,-30.89"/>
<polygon fill="#63b8ff" stroke="#63b8ff" points="741.62,-30.76 737.1,-21.18 734.66,-31.49 741.62,-30.76"/>
</a>
</g>
</g>
<!-- Node15&#45;&gt;Node10 -->
<g id="edge32_Node000015_Node000010" class="edge">
<title>Node15&#45;&gt;Node10</title>
<g id="a_edge32_Node000015_Node000010"><a xlink:title=" ">
<path fill="none" stroke="#63b8ff" d="M750.4,-182.54C735.83,-154.83 690.32,-68.29 669.98,-29.62"/>
<polygon fill="#63b8ff" stroke="#63b8ff" points="673.2,-28.24 665.45,-21.01 667.01,-31.49 673.2,-28.24"/>
</a>
</g>
</g>
<!-- Node15&#45;&gt;Node11 -->
<g id="edge33_Node000015_Node000011" class="edge">
<title>Node15&#45;&gt;Node11</title>
<g id="a_edge33_Node000015_Node000011"><a xlink:title=" ">
<path fill="none" stroke="#63b8ff" d="M757.56,-182.37C762.5,-166.5 774.59,-132.83 793.99,-110.5 827.8,-71.57 880.2,-41.22 913.01,-24.63"/>
<polygon fill="#63b8ff" stroke="#63b8ff" points="914.14,-27.97 921.56,-20.41 911.05,-21.7 914.14,-27.97"/>
</a>
</g>
</g>
<!-- Node15&#45;&gt;Node12 -->
<g id="edge30_Node000015_Node000012" class="edge">
<title>Node15&#45;&gt;Node12</title>
<g id="a_edge30_Node000015_Node000012"><a xlink:title=" ">
<path fill="none" stroke="#63b8ff" d="M786.72,-187.89C828.8,-182.49 904.53,-169.46 962.99,-141 993.57,-126.11 1023.44,-100.03 1041.29,-82.86"/>
<polygon fill="#63b8ff" stroke="#63b8ff" points="1043.72,-85.37 1048.38,-75.86 1038.81,-80.39 1043.72,-85.37"/>
</a>
</g>
</g>
<!-- Node15&#45;&gt;Node13 -->
<g id="edge27_Node000015_Node000013" class="edge">
<title>Node15&#45;&gt;Node13</title>
<g id="a_edge27_Node000015_Node000013"><a xlink:title=" ">
<path fill="none" stroke="#63b8ff" d="M729.44,-182.15C702.62,-172.59 659.71,-157.3 625.77,-145.2"/>
<polygon fill="#63b8ff" stroke="#63b8ff" points="627.11,-141.97 616.52,-141.91 624.76,-148.56 627.11,-141.97"/>
</a>
</g>
</g>
<!-- Node15&#45;&gt;Node16 -->
<g id="edge29_Node000015_Node000016" class="edge">
<title>Node15&#45;&gt;Node16</title>
<g id="a_edge29_Node000015_Node000016"><a xlink:title=" ">
<path fill="none" stroke="#63b8ff" d="M786.38,-185.67C838.04,-176.47 944.19,-157.5 1033.99,-141 1047.23,-138.57 1061.76,-135.85 1074.54,-133.45"/>
<polygon fill="#63b8ff" stroke="#63b8ff" points="1075.02,-136.92 1084.2,-131.63 1073.73,-130.04 1075.02,-136.92"/>
</a>
</g>
</g>
<!-- Node17&#45;&gt;Node2 -->
<g id="edge36_Node000017_Node000002" class="edge">
<title>Node17&#45;&gt;Node2</title>
<g id="a_edge36_Node000017_Node000002"><a xlink:title=" ">
<path fill="none" stroke="#63b8ff" d="M261.31,-176.61C277.18,-167.79 297.61,-156.43 314.96,-146.78"/>
<polygon fill="#63b8ff" stroke="#63b8ff" points="316.41,-149.98 323.44,-142.06 313,-143.86 316.41,-149.98"/>
</a>
</g>
</g>
<!-- Node17&#45;&gt;Node4 -->
<g id="edge35_Node000017_Node000004" class="edge">
<title>Node17&#45;&gt;Node4</title>
<g id="a_edge35_Node000017_Node000004"><a xlink:title=" ">
<path fill="none" stroke="#63b8ff" d="M241.97,-176.72C251.63,-158.24 270.9,-126.8 296.99,-110.5 351.62,-76.36 427.52,-67.73 474.11,-65.89"/>
<polygon fill="#63b8ff" stroke="#63b8ff" points="474.17,-69.39 484.06,-65.59 473.96,-62.39 474.17,-69.39"/>
</a>
</g>
</g>
<!-- Node17&#45;&gt;Node7 -->
<g id="edge40_Node000017_Node000007" class="edge">
<title>Node17&#45;&gt;Node7</title>
<g id="a_edge40_Node000017_Node000007"><a xlink:title=" ">
<path fill="none" stroke="#63b8ff" d="M180.46,-176.55C162.85,-168.94 145.23,-157.62 134.99,-141 127.87,-129.46 127.32,-121.68 134.99,-110.5 185.93,-36.15 300.82,-17.13 358.53,-12.28"/>
<polygon fill="#63b8ff" stroke="#63b8ff" points="358.71,-15.78 368.42,-11.56 358.19,-8.8 358.71,-15.78"/>
</a>
</g>
</g>
<!-- Node17&#45;&gt;Node18 -->
<g id="edge37_Node000017_Node000018" class="edge">
<title>Node17&#45;&gt;Node18</title>
<g id="a_edge37_Node000017_Node000018"><a xlink:title=" ">
<path fill="none" stroke="#63b8ff" d="M195.27,-176.61C165.14,-165.51 124.1,-150.38 95.14,-139.71"/>
<polygon fill="#63b8ff" stroke="#63b8ff" points="96.7,-136.55 86.11,-136.38 94.28,-143.12 96.7,-136.55"/>
</a>
</g>
</g>
<!-- Node19 -->
<g id="Node000019" class="node">
<title>Node19</title>
<g id="a_Node000019"><a xlink:title=" ">
<polygon fill="#e0e0e0" stroke="#999999" points="459.61,-135.38 414.36,-135.38 414.36,-116.12 459.61,-116.12 459.61,-135.38"/>
<text xml:space="preserve" text-anchor="middle" x="436.99" y="-121.88" font-family="Helvetica,sans-Serif" font-size="10.00">cstdint</text>
</a>
</g>
</g>
<!-- Node17&#45;&gt;Node19 -->
<g id="edge38_Node000017_Node000019" class="edge">
<title>Node17&#45;&gt;Node19</title>
<g id="a_edge38_Node000017_Node000019"><a xlink:title=" ">
<path fill="none" stroke="#63b8ff" d="M291.49,-176.56C324.86,-167.38 367.73,-154.73 404.99,-141 405.78,-140.71 406.58,-140.41 407.38,-140.1"/>
<polygon fill="#63b8ff" stroke="#63b8ff" points="408.56,-143.39 416.47,-136.34 405.89,-136.93 408.56,-143.39"/>
</a>
</g>
</g>
<!-- Node20 -->
<g id="Node000020" class="node">
<title>Node20</title>
<g id="a_Node000020"><a xlink:title=" ">
<polygon fill="#e0e0e0" stroke="#999999" points="188.24,-135.38 143.74,-135.38 143.74,-116.12 188.24,-116.12 188.24,-135.38"/>
<text xml:space="preserve" text-anchor="middle" x="165.99" y="-121.88" font-family="Helvetica,sans-Serif" font-size="10.00">cstdlib</text>
</a>
</g>
</g>
<!-- Node17&#45;&gt;Node20 -->
<g id="edge39_Node000017_Node000020" class="edge">
<title>Node17&#45;&gt;Node20</title>
<g id="a_edge39_Node000017_Node000020"><a xlink:title=" ">
<path fill="none" stroke="#63b8ff" d="M219.33,-176.61C208.77,-166.74 194.81,-153.69 183.82,-143.42"/>
<polygon fill="#63b8ff" stroke="#63b8ff" points="186.22,-140.88 176.53,-136.61 181.44,-145.99 186.22,-140.88"/>
</a>
</g>
</g>
<!-- Node21 -->
<g id="Node000021" class="node">
<title>Node21</title>
<g id="a_Node000021"><a xlink:title=" ">
<polygon fill="#e0e0e0" stroke="#999999" points="249.49,-135.38 206.49,-135.38 206.49,-116.12 249.49,-116.12 249.49,-135.38"/>
<text xml:space="preserve" text-anchor="middle" x="227.99" y="-121.88" font-family="Helvetica,sans-Serif" font-size="10.00">thread</text>
</a>
</g>
</g>
<!-- Node17&#45;&gt;Node21 -->
<g id="edge41_Node000017_Node000021" class="edge">
<title>Node17&#45;&gt;Node21</title>
<g id="a_edge41_Node000017_Node000021"><a xlink:title=" ">
<path fill="none" stroke="#63b8ff" d="M233.4,-176.61C232.44,-167.83 231.22,-156.52 230.17,-146.9"/>
<polygon fill="#63b8ff" stroke="#63b8ff" points="233.66,-146.64 229.11,-137.08 226.71,-147.4 233.66,-146.64"/>
</a>
</g>
</g>
<!-- Node22&#45;&gt;Node2 -->
<g id="edge47_Node000022_Node000002" class="edge">
<title>Node22&#45;&gt;Node2</title>
<g id="a_edge47_Node000022_Node000002"><a xlink:title=" ">
<path fill="none" stroke="#63b8ff" d="M1162.17,-190.05C1036.81,-185.2 576.05,-166.17 407.65,-141.16"/>
<polygon fill="#63b8ff" stroke="#63b8ff" points="408.43,-137.74 398.01,-139.66 407.35,-144.66 408.43,-137.74"/>
</a>
</g>
</g>
<!-- Node22&#45;&gt;Node3 -->
<g id="edge48_Node000022_Node000003" class="edge">
<title>Node22&#45;&gt;Node3</title>
<g id="a_edge48_Node000022_Node000003"><a xlink:title=" ">
<path fill="none" stroke="#63b8ff" d="M1161.95,-184.71C1108.33,-173.77 999.78,-151.61 933.52,-138.09"/>
<polygon fill="#63b8ff" stroke="#63b8ff" points="934.45,-134.7 923.95,-136.13 933.05,-141.56 934.45,-134.7"/>
</a>
</g>
</g>
<!-- Node22&#45;&gt;Node4 -->
<g id="edge50_Node000022_Node000004" class="edge">
<title>Node22&#45;&gt;Node4</title>
<g id="a_edge50_Node000022_Node000004"><a xlink:title=" ">
<path fill="none" stroke="#63b8ff" d="M1191.32,-182.24C1185.64,-164.87 1170.59,-127.02 1142.99,-110.5 1092.93,-80.55 689.17,-69.5 557.41,-66.67"/>
<polygon fill="#63b8ff" stroke="#63b8ff" points="557.82,-63.18 547.75,-66.47 557.67,-70.18 557.82,-63.18"/>
</a>
</g>
</g>
<!-- Node22&#45;&gt;Node8 -->
<g id="edge56_Node000022_Node000008" class="edge">
<title>Node22&#45;&gt;Node8</title>
<g id="a_edge56_Node000022_Node000008"><a xlink:title=" ">
<path fill="none" stroke="#63b8ff" d="M1197.34,-182.2C1202.59,-166.35 1210.82,-133.12 1196.99,-110.5 1168.85,-64.51 1140.5,-71.15 1088.99,-55.25 978.41,-21.13 840.63,-13.05 774.68,-11.17"/>
<polygon fill="#63b8ff" stroke="#63b8ff" points="774.82,-7.67 764.74,-10.92 774.65,-14.67 774.82,-7.67"/>
</a>
</g>
</g>
<!-- Node22&#45;&gt;Node11 -->
<g id="edge57_Node000022_Node000011" class="edge">
<title>Node22&#45;&gt;Node11</title>
<g id="a_edge57_Node000022_Node000011"><a xlink:title=" ">
<path fill="none" stroke="#63b8ff" d="M1210.76,-182.23C1224.7,-173.68 1243.57,-159.42 1251.99,-141 1267.82,-106.33 1276.93,-84.06 1251.99,-55.25 1216.53,-14.3 1048.08,-10.09 975.92,-10.21"/>
<polygon fill="#63b8ff" stroke="#63b8ff" points="976.3,-6.71 966.32,-10.26 976.33,-13.71 976.3,-6.71"/>
</a>
</g>
</g>
<!-- Node22&#45;&gt;Node12 -->
<g id="edge53_Node000022_Node000012" class="edge">
<title>Node22&#45;&gt;Node12</title>
<g id="a_edge53_Node000022_Node000012"><a xlink:title=" ">
<path fill="none" stroke="#63b8ff" d="M1194.57,-182.28C1195.13,-165.98 1193.96,-131.23 1175.99,-110.5 1154.49,-85.71 1117.74,-74.65 1090.95,-69.74"/>
<polygon fill="#63b8ff" stroke="#63b8ff" points="1091.71,-66.32 1081.28,-68.18 1090.6,-73.23 1091.71,-66.32"/>
</a>
</g>
</g>
<!-- Node22&#45;&gt;Node13 -->
<g id="edge49_Node000022_Node000013" class="edge">
<title>Node22&#45;&gt;Node13</title>
<g id="a_edge49_Node000022_Node000013"><a xlink:title=" ">
<path fill="none" stroke="#63b8ff" d="M1161.96,-187.92C1065.7,-177.9 777.42,-147.91 643.62,-133.99"/>
<polygon fill="#63b8ff" stroke="#63b8ff" points="644.14,-130.53 633.83,-132.98 643.41,-137.49 644.14,-130.53"/>
</a>
</g>
</g>
<!-- Node22&#45;&gt;Node16 -->
<g id="edge52_Node000022_Node000016" class="edge">
<title>Node22&#45;&gt;Node16</title>
<g id="a_edge52_Node000022_Node000016"><a xlink:title=" ">
<path fill="none" stroke="#63b8ff" d="M1182.31,-182.28C1168.97,-172.04 1146.89,-155.09 1130.63,-142.6"/>
<polygon fill="#63b8ff" stroke="#63b8ff" points="1133.1,-140.09 1123.04,-136.77 1128.84,-145.64 1133.1,-140.09"/>
</a>
</g>
</g>
<!-- Node22&#45;&gt;Node19 -->
<g id="edge54_Node000022_Node000019" class="edge">
<title>Node22&#45;&gt;Node19</title>
<g id="a_edge54_Node000022_Node000019"><a xlink:title=" ">
<path fill="none" stroke="#63b8ff" d="M1161.99,-190.36C1063.74,-187.33 757.85,-175.56 506.99,-141 495.22,-139.38 482.47,-136.98 471.11,-134.61"/>
<polygon fill="#63b8ff" stroke="#63b8ff" points="471.87,-131.19 461.35,-132.5 470.39,-138.03 471.87,-131.19"/>
</a>
</g>
</g>
<!-- Node22&#45;&gt;Node23 -->
<g id="edge51_Node000022_Node000023" class="edge">
<title>Node22&#45;&gt;Node23</title>
<g id="a_edge51_Node000022_Node000023"><a xlink:title=" ">
<path fill="none" stroke="#63b8ff" d="M1212.19,-182.15C1233.71,-171.39 1269.74,-153.37 1294.85,-140.82"/>
<polygon fill="#63b8ff" stroke="#63b8ff" points="1296.14,-144.09 1303.52,-136.49 1293.01,-137.83 1296.14,-144.09"/>
</a>
</g>
</g>
<!-- Node22&#45;&gt;Node24 -->
<g id="edge55_Node000022_Node000024" class="edge">
<title>Node22&#45;&gt;Node24</title>
<g id="a_edge55_Node000022_Node000024"><a xlink:title=" ">
<path fill="none" stroke="#63b8ff" d="M1224.94,-182.21C1256.8,-172.71 1307.75,-156.94 1350.99,-141 1351.93,-140.65 1352.89,-140.29 1353.85,-139.92"/>
<polygon fill="#63b8ff" stroke="#63b8ff" points="1354.84,-143.3 1362.84,-136.34 1352.25,-136.79 1354.84,-143.3"/>
</a>
</g>
</g>
</g>
</svg>
