<?xml version="1.0" encoding="UTF-8" standalone="no"?>
<!DOCTYPE svg PUBLIC "-//W3C//DTD SVG 1.1//EN"
 "http://www.w3.org/Graphics/SVG/1.1/DTD/svg11.dtd">
<!-- Generated by graphviz version 14.1.1 (20251213.1925)
 -->
<!-- Title: includes/Tensorium/Core/Spectral.hpp Pages: 1 -->
<svg width="1576pt" height="337pt"
 viewBox="0.00 0.00 1576.00 337.00" xmlns="http://www.w3.org/2000/svg" xmlns:xlink="http://www.w3.org/1999/xlink">
<g id="graph0" class="graph" transform="scale(1 1) rotate(0) translate(4 333.25)">
<title>includes/Tensorium/Core/Spectral.hpp</title>
<!-- Node1 -->
<g id="Node000001" class="node">
<title>Node1</title>
<g id="a_Node000001"><a xlink:title=" ">
<polygon fill="#999999" stroke="#666666" points="1109,-329.25 1009,-329.25 1009,-298.75 1109,-298.75 1109,-329.25"/>
<text xml:space="preserve" text-anchor="start" x="1017" y="-315.75" font-family="Helvetica,sans-Serif" font-size="10.00">includes/Tensorium</text>
<text xml:space="preserve" text-anchor="middle" x="1059" y="-304.5" font-family="Helvetica,sans-Serif" font-size="10.00">/Core/Spectral.hpp</text>
</a>
</g>
</g>
<!-- Node2 -->
<g id="Node000002" class="node">
<title>Node2</title>
<g id="a_Node000002"><a xlink:href="_maths_utils_8hpp.html" target="_top" xlink:title=" ">
<polygon fill="white" stroke="#666666" points="406.12,-141 315.88,-141 315.88,-110.5 406.12,-110.5 406.12,-141"/>
<text xml:space="preserve" text-anchor="start" x="323.88" y="-127.5" font-family="Helvetica,sans-Serif" font-size="10.00">../Utils/MathUtils</text>
<text xml:space="preserve" text-anchor="middle" x="361" y="-116.25" font-family="Helvetica,sans-Serif" font-size="10.00">/MathsUtils.hpp</text>
</a>
</g>
</g>
<!-- Node1&#45;&gt;Node2 -->
<g id="edge1_Node000001_Node000002" class="edge">
<title>Node1&#45;&gt;Node2</title>
<g id="a_edge1_Node000001_Node000002"><a xlink:title=" ">
<path fill="none" stroke="#63b8ff" d="M1008.62,-313.86C923.39,-313.9 746.25,-307.9 605,-262.75 521.25,-235.98 433.76,-178.92 389.82,-147.9"/>
<polygon fill="#63b8ff" stroke="#63b8ff" points="392.02,-145.17 381.85,-142.21 387.95,-150.87 392.02,-145.17"/>
</a>
</g>
</g>
<!-- Node3 -->
<g id="Node000003" class="node">
<title>Node3</title>
<g id="a_Node000003"><a xlink:href="_allocator_8hpp.html" target="_top" xlink:title=" ">
<polygon fill="white" stroke="#666666" points="963.5,-135.38 812.5,-135.38 812.5,-116.12 963.5,-116.12 963.5,-135.38"/>
<text xml:space="preserve" text-anchor="middle" x="888" y="-121.88" font-family="Helvetica,sans-Serif" font-size="10.00">../Backend/SIMD/Allocator.hpp</text>
</a>
</g>
</g>
<!-- Node1&#45;&gt;Node3 -->
<g id="edge2_Node000001_Node000003" class="edge">
<title>Node1&#45;&gt;Node3</title>
<g id="a_edge2_Node000001_Node000003"><a xlink:title=" ">
<path fill="none" stroke="#63b8ff" d="M1045.58,-298.39C1014.37,-264.39 937.03,-180.15 903.7,-143.85"/>
<polygon fill="#63b8ff" stroke="#63b8ff" points="906.59,-141.82 897.25,-136.82 901.43,-146.56 906.59,-141.82"/>
</a>
</g>
</g>
<!-- Node4 -->
<g id="Node000004" class="node">
<title>Node4</title>
<g id="a_Node000004"><a xlink:href="_s_i_m_d_8hpp.html" target="_top" xlink:title=" ">
<polygon fill="white" stroke="#666666" points="278.12,-74.5 217.88,-74.5 217.88,-55.25 278.12,-55.25 278.12,-74.5"/>
<text xml:space="preserve" text-anchor="middle" x="248" y="-61" font-family="Helvetica,sans-Serif" font-size="10.00">SIMD.hpp</text>
</a>
</g>
</g>
<!-- Node1&#45;&gt;Node4 -->
<g id="edge18_Node000001_Node000004" class="edge">
<title>Node1&#45;&gt;Node4</title>
<g id="a_edge18_Node000001_Node000004"><a xlink:title=" ">
<path fill="none" stroke="#63b8ff" d="M1008.64,-311.17C823.16,-303.93 185.73,-274.3 127,-207.5 111.81,-190.22 126.18,-127.38 140,-110.5 156.49,-90.36 183.58,-79.19 206.51,-73.07"/>
<polygon fill="#63b8ff" stroke="#63b8ff" points="207.32,-76.48 216.23,-70.73 205.69,-69.67 207.32,-76.48"/>
</a>
</g>
</g>
<!-- Node8 -->
<g id="Node000008" class="node">
<title>Node8</title>
<g id="a_Node000008"><a xlink:title=" ">
<polygon fill="#e0e0e0" stroke="#999999" points="572.75,-19.25 519.25,-19.25 519.25,0 572.75,0 572.75,-19.25"/>
<text xml:space="preserve" text-anchor="middle" x="546" y="-5.75" font-family="Helvetica,sans-Serif" font-size="10.00">iostream</text>
</a>
</g>
</g>
<!-- Node1&#45;&gt;Node8 -->
<g id="edge61_Node000001_Node000008" class="edge">
<title>Node1&#45;&gt;Node8</title>
<g id="a_edge61_Node000001_Node000008"><a xlink:title=" ">
<path fill="none" stroke="#63b8ff" d="M1008.63,-312.67C798.18,-310.61 0,-296.06 0,-193.25 0,-193.25 0,-193.25 0,-124.75 0,-72.8 383.6,-27.76 507.74,-14.54"/>
<polygon fill="#63b8ff" stroke="#63b8ff" points="507.84,-18.05 517.42,-13.52 507.11,-11.09 507.84,-18.05"/>
</a>
</g>
</g>
<!-- Node11 -->
<g id="Node000011" class="node">
<title>Node11</title>
<g id="a_Node000011"><a xlink:title=" ">
<polygon fill="#e0e0e0" stroke="#999999" points="812.5,-19.25 769.5,-19.25 769.5,0 812.5,0 812.5,-19.25"/>
<text xml:space="preserve" text-anchor="middle" x="791" y="-5.75" font-family="Helvetica,sans-Serif" font-size="10.00">vector</text>
</a>
</g>
</g>
<!-- Node1&#45;&gt;Node11 -->
<g id="edge64_Node000001_Node000011" class="edge">
<title>Node1&#45;&gt;Node11</title>
<g id="a_edge64_Node000001_Node000011"><a xlink:title=" ">
<path fill="none" stroke="#63b8ff" d="M1109.29,-306.54C1206.34,-292.65 1410,-256.03 1410,-193.25 1410,-193.25 1410,-193.25 1410,-124.75 1410,-107.44 1528.63,-124.54 1206,-55.25 1066.02,-25.19 894.92,-14.95 824.11,-11.84"/>
<polygon fill="#63b8ff" stroke="#63b8ff" points="824.5,-8.35 814.37,-11.43 824.21,-15.35 824.5,-8.35"/>
</a>
</g>
</g>
<!-- Node12 -->
<g id="Node000012" class="node">
<title>Node12</title>
<g id="a_Node000012"><a xlink:title=" ">
<polygon fill="#e0e0e0" stroke="#999999" points="1013.5,-74.5 970.5,-74.5 970.5,-55.25 1013.5,-55.25 1013.5,-74.5"/>
<text xml:space="preserve" text-anchor="middle" x="992" y="-61" font-family="Helvetica,sans-Serif" font-size="10.00">cmath</text>
</a>
</g>
</g>
<!-- Node1&#45;&gt;Node12 -->
<g id="edge59_Node000001_Node000012" class="edge">
<title>Node1&#45;&gt;Node12</title>
<g id="a_edge59_Node000001_Node000012"><a xlink:title=" ">
<path fill="none" stroke="#63b8ff" d="M1109.17,-300.89C1212.84,-273.66 1434.48,-202.67 1353,-110.5 1331.43,-86.09 1110.13,-72.04 1025.07,-67.51"/>
<polygon fill="#63b8ff" stroke="#63b8ff" points="1025.45,-64.02 1015.28,-67 1025.09,-71.01 1025.45,-64.02"/>
</a>
</g>
</g>
<!-- Node13 -->
<g id="Node000013" class="node">
<title>Node13</title>
<g id="a_Node000013"><a xlink:href="_c_p_u__id_8hpp.html" target="_top" xlink:title=" ">
<polygon fill="white" stroke="#666666" points="604.25,-141 487.75,-141 487.75,-110.5 604.25,-110.5 604.25,-141"/>
<text xml:space="preserve" text-anchor="start" x="495.75" y="-127.5" font-family="Helvetica,sans-Serif" font-size="10.00">../Backend/SIMD/CPU</text>
<text xml:space="preserve" text-anchor="middle" x="546" y="-116.25" font-family="Helvetica,sans-Serif" font-size="10.00">_id.hpp</text>
</a>
</g>
</g>
<!-- Node1&#45;&gt;Node13 -->
<g id="edge14_Node000001_Node000013" class="edge">
<title>Node1&#45;&gt;Node13</title>
<g id="a_edge14_Node000001_Node000013"><a xlink:title=" ">
<path fill="none" stroke="#63b8ff" d="M1008.8,-312.5C909.41,-310.67 691.83,-302.12 630,-262.75 589.35,-236.86 565.19,-183.51 553.86,-151.87"/>
<polygon fill="#63b8ff" stroke="#63b8ff" points="557.28,-151.06 550.75,-142.72 550.66,-153.31 557.28,-151.06"/>
</a>
</g>
</g>
<!-- Node14 -->
<g id="Node000014" class="node">
<title>Node14</title>
<g id="a_Node000014"><a xlink:href="_matrix_8hpp.html" target="_top" xlink:title=" ">
<polygon fill="white" stroke="#666666" points="700.88,-262.75 639.12,-262.75 639.12,-243.5 700.88,-243.5 700.88,-262.75"/>
<text xml:space="preserve" text-anchor="middle" x="670" y="-249.25" font-family="Helvetica,sans-Serif" font-size="10.00">Matrix.hpp</text>
</a>
</g>
</g>
<!-- Node1&#45;&gt;Node14 -->
<g id="edge19_Node000001_Node000014" class="edge">
<title>Node1&#45;&gt;Node14</title>
<g id="a_edge19_Node000001_Node000014"><a xlink:title=" ">
<path fill="none" stroke="#63b8ff" d="M1008.59,-305.67C942.84,-296.06 824.25,-278.56 723,-262.75 719.56,-262.21 716.01,-261.65 712.43,-261.08"/>
<polygon fill="#63b8ff" stroke="#63b8ff" points="713.02,-257.63 702.59,-259.49 711.91,-264.54 713.02,-257.63"/>
</a>
</g>
</g>
<!-- Node15 -->
<g id="Node000015" class="node">
<title>Node15</title>
<g id="a_Node000015"><a xlink:href="_vector_8hpp.html" target="_top" xlink:title=" ">
<polygon fill="white" stroke="#666666" points="764.25,-201.88 701.75,-201.88 701.75,-182.62 764.25,-182.62 764.25,-201.88"/>
<text xml:space="preserve" text-anchor="middle" x="733" y="-188.38" font-family="Helvetica,sans-Serif" font-size="10.00">Vector.hpp</text>
</a>
</g>
</g>
<!-- Node1&#45;&gt;Node15 -->
<g id="edge56_Node000001_Node000015" class="edge">
<title>Node1&#45;&gt;Node15</title>
<g id="a_edge56_Node000001_Node000015"><a xlink:title=" ">
<path fill="none" stroke="#63b8ff" d="M1019.03,-298.32C954.68,-274.68 829.19,-228.58 768.1,-206.14"/>
<polygon fill="#63b8ff" stroke="#63b8ff" points="769.48,-202.92 758.89,-202.76 767.07,-209.49 769.48,-202.92"/>
</a>
</g>
</g>
<!-- Node16 -->
<g id="Node000016" class="node">
<title>Node16</title>
<g id="a_Node000016"><a xlink:title=" ">
<polygon fill="#e0e0e0" stroke="#999999" points="1068.12,-135.38 1019.88,-135.38 1019.88,-116.12 1068.12,-116.12 1068.12,-135.38"/>
<text xml:space="preserve" text-anchor="middle" x="1044" y="-121.88" font-family="Helvetica,sans-Serif" font-size="10.00">cassert</text>
</a>
</g>
</g>
<!-- Node1&#45;&gt;Node16 -->
<g id="edge58_Node000001_Node000016" class="edge">
<title>Node1&#45;&gt;Node16</title>
<g id="a_edge58_Node000001_Node000016"><a xlink:title=" ">
<path fill="none" stroke="#63b8ff" d="M1057.82,-298.39C1055.15,-265.26 1048.64,-184.4 1045.61,-146.71"/>
<polygon fill="#63b8ff" stroke="#63b8ff" points="1049.13,-146.91 1044.84,-137.22 1042.16,-147.47 1049.13,-146.91"/>
</a>
</g>
</g>
<!-- Node21 -->
<g id="Node000021" class="node">
<title>Node21</title>
<g id="a_Node000021"><a xlink:href="_tensor_8hpp.html" target="_top" xlink:title=" ">
<polygon fill="white" stroke="#666666" points="1150.62,-201.88 1087.38,-201.88 1087.38,-182.62 1150.62,-182.62 1150.62,-201.88"/>
<text xml:space="preserve" text-anchor="middle" x="1119" y="-188.38" font-family="Helvetica,sans-Serif" font-size="10.00">Tensor.hpp</text>
</a>
</g>
</g>
<!-- Node1&#45;&gt;Node21 -->
<g id="edge44_Node000001_Node000021" class="edge">
<title>Node1&#45;&gt;Node21</title>
<g id="a_edge44_Node000001_Node000021"><a xlink:title=" ">
<path fill="none" stroke="#63b8ff" d="M1066.36,-298.32C1077.17,-276.74 1097.36,-236.45 1109.35,-212.52"/>
<polygon fill="#63b8ff" stroke="#63b8ff" points="1112.47,-214.1 1113.82,-203.59 1106.21,-210.96 1112.47,-214.1"/>
</a>
</g>
</g>
<!-- Node22 -->
<g id="Node000022" class="node">
<title>Node22</title>
<g id="a_Node000022"><a xlink:title=" ">
<polygon fill="#e0e0e0" stroke="#999999" points="1275.88,-135.38 1238.12,-135.38 1238.12,-116.12 1275.88,-116.12 1275.88,-135.38"/>
<text xml:space="preserve" text-anchor="middle" x="1257" y="-121.88" font-family="Helvetica,sans-Serif" font-size="10.00">array</text>
</a>
</g>
</g>
<!-- Node1&#45;&gt;Node22 -->
<g id="edge57_Node000001_Node000022" class="edge">
<title>Node1&#45;&gt;Node22</title>
<g id="a_edge57_Node000001_Node000022"><a xlink:title=" ">
<path fill="none" stroke="#63b8ff" d="M1074.54,-298.39C1110.83,-264.25 1200.99,-179.44 1239.31,-143.39"/>
<polygon fill="#63b8ff" stroke="#63b8ff" points="1241.49,-146.15 1246.37,-136.75 1236.69,-141.05 1241.49,-146.15"/>
</a>
</g>
</g>
<!-- Node23 -->
<g id="Node000023" class="node">
<title>Node23</title>
<g id="a_Node000023"><a xlink:title=" ">
<polygon fill="#e0e0e0" stroke="#999999" points="1343.88,-135.38 1294.12,-135.38 1294.12,-116.12 1343.88,-116.12 1343.88,-135.38"/>
<text xml:space="preserve" text-anchor="middle" x="1319" y="-121.88" font-family="Helvetica,sans-Serif" font-size="10.00">iomanip</text>
</a>
</g>
</g>
<!-- Node1&#45;&gt;Node23 -->
<g id="edge60_Node000001_Node000023" class="edge">
<title>Node1&#45;&gt;Node23</title>
<g id="a_edge60_Node000001_Node000023"><a xlink:title=" ">
<path fill="none" stroke="#63b8ff" d="M1082.49,-298.46C1098.12,-288.65 1119.01,-275.25 1137,-262.75 1197.15,-220.97 1265.79,-168.26 1298.96,-142.44"/>
<polygon fill="#63b8ff" stroke="#63b8ff" points="1300.78,-145.46 1306.51,-136.55 1296.47,-139.94 1300.78,-145.46"/>
</a>
</g>
</g>
<!-- Node24 -->
<g id="Node000024" class="node">
<title>Node24</title>
<g id="a_Node000024"><a xlink:title=" ">
<polygon fill="#e0e0e0" stroke="#999999" points="1491.75,-262.75 1438.25,-262.75 1438.25,-243.5 1491.75,-243.5 1491.75,-262.75"/>
<text xml:space="preserve" text-anchor="middle" x="1465" y="-249.25" font-family="Helvetica,sans-Serif" font-size="10.00">numbers</text>
</a>
</g>
</g>
<!-- Node1&#45;&gt;Node24 -->
<g id="edge62_Node000001_Node000024" class="edge">
<title>Node1&#45;&gt;Node24</title>
<g id="a_edge62_Node000001_Node000024"><a xlink:title=" ">
<path fill="none" stroke="#63b8ff" d="M1109.36,-307.21C1179.92,-298.83 1312.14,-282.19 1424,-262.75 1425,-262.58 1426.02,-262.39 1427.04,-262.21"/>
<polygon fill="#63b8ff" stroke="#63b8ff" points="1427.51,-265.68 1436.66,-260.35 1426.18,-258.81 1427.51,-265.68"/>
</a>
</g>
</g>
<!-- Node25 -->
<g id="Node000025" class="node">
<title>Node25</title>
<g id="a_Node000025"><a xlink:title=" ">
<polygon fill="#e0e0e0" stroke="#999999" points="1568.38,-262.75 1509.62,-262.75 1509.62,-243.5 1568.38,-243.5 1568.38,-262.75"/>
<text xml:space="preserve" text-anchor="middle" x="1539" y="-249.25" font-family="Helvetica,sans-Serif" font-size="10.00">stdexcept</text>
</a>
</g>
</g>
<!-- Node1&#45;&gt;Node25 -->
<g id="edge63_Node000001_Node000025" class="edge">
<title>Node1&#45;&gt;Node25</title>
<g id="a_edge63_Node000001_Node000025"><a xlink:title=" ">
<path fill="none" stroke="#63b8ff" d="M1109.3,-309.1C1189.58,-302.47 1351.78,-287.46 1498.23,-263.07"/>
<polygon fill="#63b8ff" stroke="#63b8ff" points="1498.42,-266.58 1507.7,-261.47 1497.26,-259.68 1498.42,-266.58"/>
</a>
</g>
</g>
<!-- Node3&#45;&gt;Node4 -->
<g id="edge3_Node000003_Node000004" class="edge">
<title>Node3&#45;&gt;Node4</title>
<g id="a_edge3_Node000003_Node000004"><a xlink:title=" ">
<path fill="none" stroke="#63b8ff" d="M812.07,-117.77C676.11,-105.26 395.44,-79.44 289.61,-69.7"/>
<polygon fill="#63b8ff" stroke="#63b8ff" points="290.24,-66.25 279.97,-68.82 289.6,-73.22 290.24,-66.25"/>
</a>
</g>
</g>
<!-- Node3&#45;&gt;Node8 -->
<g id="edge12_Node000003_Node000008" class="edge">
<title>Node3&#45;&gt;Node8</title>
<g id="a_edge12_Node000003_Node000008"><a xlink:title=" ">
<path fill="none" stroke="#63b8ff" d="M860.88,-115.7C800.27,-95.47 653.7,-46.56 584.02,-23.31"/>
<polygon fill="#63b8ff" stroke="#63b8ff" points="585.15,-20 574.56,-20.16 582.94,-26.64 585.15,-20"/>
</a>
</g>
</g>
<!-- Node3&#45;&gt;Node11 -->
<g id="edge13_Node000003_Node000011" class="edge">
<title>Node3&#45;&gt;Node11</title>
<g id="a_edge13_Node000003_Node000011"><a xlink:title=" ">
<path fill="none" stroke="#63b8ff" d="M880.39,-115.79C864.38,-96.96 826.98,-52.96 805.98,-28.25"/>
<polygon fill="#63b8ff" stroke="#63b8ff" points="808.7,-26.04 799.56,-20.69 803.37,-30.58 808.7,-26.04"/>
</a>
</g>
</g>
<!-- Node3&#45;&gt;Node12 -->
<g id="edge11_Node000003_Node000012" class="edge">
<title>Node3&#45;&gt;Node12</title>
<g id="a_edge11_Node000003_Node000012"><a xlink:title=" ">
<path fill="none" stroke="#63b8ff" d="M903.8,-115.81C920.36,-106.43 946.67,-91.54 966.25,-80.45"/>
<polygon fill="#63b8ff" stroke="#63b8ff" points="967.76,-83.62 974.74,-75.65 964.31,-77.53 967.76,-83.62"/>
</a>
</g>
</g>
<!-- Node5 -->
<g id="Node000005" class="node">
<title>Node5</title>
<g id="a_Node000005"><a xlink:title=" ">
<polygon fill="#e0e0e0" stroke="#999999" points="275.38,-19.25 222.62,-19.25 222.62,0 275.38,0 275.38,-19.25"/>
<text xml:space="preserve" text-anchor="middle" x="249" y="-5.75" font-family="Helvetica,sans-Serif" font-size="10.00">complex</text>
</a>
</g>
</g>
<!-- Node4&#45;&gt;Node5 -->
<g id="edge4_Node000004_Node000005" class="edge">
<title>Node4&#45;&gt;Node5</title>
<g id="a_edge4_Node000004_Node000005"><a xlink:title=" ">
<path fill="none" stroke="#63b8ff" d="M248.17,-55.08C248.29,-48.57 248.46,-39.42 248.62,-31.12"/>
<polygon fill="#63b8ff" stroke="#63b8ff" points="252.11,-31.19 248.8,-21.12 245.12,-31.05 252.11,-31.19"/>
</a>
</g>
</g>
<!-- Node6 -->
<g id="Node000006" class="node">
<title>Node6</title>
<g id="a_Node000006"><a xlink:title=" ">
<polygon fill="#e0e0e0" stroke="#999999" points="342.12,-19.25 293.88,-19.25 293.88,0 342.12,0 342.12,-19.25"/>
<text xml:space="preserve" text-anchor="middle" x="318" y="-5.75" font-family="Helvetica,sans-Serif" font-size="10.00">cstddef</text>
</a>
</g>
</g>
<!-- Node4&#45;&gt;Node6 -->
<g id="edge5_Node000004_Node000006" class="edge">
<title>Node4&#45;&gt;Node6</title>
<g id="a_edge5_Node000004_Node000006"><a xlink:title=" ">
<path fill="none" stroke="#63b8ff" d="M259.87,-54.84C270.09,-47.07 285.07,-35.67 297.26,-26.4"/>
<polygon fill="#63b8ff" stroke="#63b8ff" points="299.26,-29.28 305.1,-20.44 295.02,-23.71 299.26,-29.28"/>
</a>
</g>
</g>
<!-- Node7 -->
<g id="Node000007" class="node">
<title>Node7</title>
<g id="a_Node000007"><a xlink:title=" ">
<polygon fill="#e0e0e0" stroke="#999999" points="146.62,-19.25 101.38,-19.25 101.38,0 146.62,0 146.62,-19.25"/>
<text xml:space="preserve" text-anchor="middle" x="124" y="-5.75" font-family="Helvetica,sans-Serif" font-size="10.00">cstring</text>
</a>
</g>
</g>
<!-- Node4&#45;&gt;Node7 -->
<g id="edge6_Node000004_Node000007" class="edge">
<title>Node4&#45;&gt;Node7</title>
<g id="a_edge6_Node000004_Node000007"><a xlink:title=" ">
<path fill="none" stroke="#63b8ff" d="M226.97,-54.84C207.37,-46.43 177.89,-33.77 155.49,-24.15"/>
<polygon fill="#63b8ff" stroke="#63b8ff" points="157.1,-21.03 146.53,-20.3 154.34,-27.46 157.1,-21.03"/>
</a>
</g>
</g>
<!-- Node4&#45;&gt;Node8 -->
<g id="edge7_Node000004_Node000008" class="edge">
<title>Node4&#45;&gt;Node8</title>
<g id="a_edge7_Node000004_Node000008"><a xlink:title=" ">
<path fill="none" stroke="#63b8ff" d="M278.28,-57.86C282.88,-56.97 287.56,-56.07 292,-55.25 368.41,-41.05 457.98,-25.59 507.73,-17.11"/>
<polygon fill="#63b8ff" stroke="#63b8ff" points="508.14,-20.59 517.41,-15.46 506.97,-13.69 508.14,-20.59"/>
</a>
</g>
</g>
<!-- Node9 -->
<g id="Node000009" class="node">
<title>Node9</title>
<g id="a_Node000009"><a xlink:title=" ">
<polygon fill="#e0e0e0" stroke="#999999" points="205,-19.25 165,-19.25 165,0 205,0 205,-19.25"/>
<text xml:space="preserve" text-anchor="middle" x="185" y="-5.75" font-family="Helvetica,sans-Serif" font-size="10.00">string</text>
</a>
</g>
</g>
<!-- Node4&#45;&gt;Node9 -->
<g id="edge8_Node000004_Node000009" class="edge">
<title>Node4&#45;&gt;Node9</title>
<g id="a_edge8_Node000004_Node000009"><a xlink:title=" ">
<path fill="none" stroke="#63b8ff" d="M237.31,-54.84C228.3,-47.22 215.17,-36.12 204.32,-26.95"/>
<polygon fill="#63b8ff" stroke="#63b8ff" points="206.58,-24.28 196.69,-20.5 202.06,-29.63 206.58,-24.28"/>
</a>
</g>
</g>
<!-- Node10 -->
<g id="Node000010" class="node">
<title>Node10</title>
<g id="a_Node000010"><a xlink:title=" ">
<polygon fill="#e0e0e0" stroke="#999999" points="421.88,-19.25 360.12,-19.25 360.12,0 421.88,0 421.88,-19.25"/>
<text xml:space="preserve" text-anchor="middle" x="391" y="-5.75" font-family="Helvetica,sans-Serif" font-size="10.00">type_traits</text>
</a>
</g>
</g>
<!-- Node4&#45;&gt;Node10 -->
<g id="edge9_Node000004_Node000010" class="edge">
<title>Node4&#45;&gt;Node10</title>
<g id="a_edge9_Node000004_Node000010"><a xlink:title=" ">
<path fill="none" stroke="#63b8ff" d="M272.26,-54.84C295.27,-46.27 330.09,-33.31 356.08,-23.63"/>
<polygon fill="#63b8ff" stroke="#63b8ff" points="357.05,-27 365.2,-20.23 354.61,-20.44 357.05,-27"/>
</a>
</g>
</g>
<!-- Node4&#45;&gt;Node11 -->
<g id="edge10_Node000004_Node000011" class="edge">
<title>Node4&#45;&gt;Node11</title>
<g id="a_edge10_Node000004_Node000011"><a xlink:title=" ">
<path fill="none" stroke="#63b8ff" d="M278.36,-60.9C372.69,-51.65 660.27,-23.45 758.05,-13.86"/>
<polygon fill="#63b8ff" stroke="#63b8ff" points="758.15,-17.36 767.76,-12.9 757.47,-10.4 758.15,-17.36"/>
</a>
</g>
</g>
<!-- Node13&#45;&gt;Node7 -->
<g id="edge15_Node000013_Node000007" class="edge">
<title>Node13&#45;&gt;Node7</title>
<g id="a_edge15_Node000013_Node000007"><a xlink:title=" ">
<path fill="none" stroke="#63b8ff" d="M487.59,-112.02C484.69,-111.48 481.81,-110.97 479,-110.5 351.8,-89.06 307.55,-129.79 191,-74.5 168.85,-63.99 149.3,-43.32 137.12,-28.33"/>
<polygon fill="#63b8ff" stroke="#63b8ff" points="140.06,-26.41 131.16,-20.66 134.53,-30.7 140.06,-26.41"/>
</a>
</g>
</g>
<!-- Node13&#45;&gt;Node8 -->
<g id="edge16_Node000013_Node000008" class="edge">
<title>Node13&#45;&gt;Node8</title>
<g id="a_edge16_Node000013_Node000008"><a xlink:title=" ">
<path fill="none" stroke="#63b8ff" d="M546,-110.3C546,-90.25 546,-53.9 546,-31.07"/>
<polygon fill="#63b8ff" stroke="#63b8ff" points="549.5,-31.21 546,-21.21 542.5,-31.21 549.5,-31.21"/>
</a>
</g>
</g>
<!-- Node13&#45;&gt;Node9 -->
<g id="edge17_Node000013_Node000009" class="edge">
<title>Node13&#45;&gt;Node9</title>
<g id="a_edge17_Node000013_Node000009"><a xlink:title=" ">
<path fill="none" stroke="#63b8ff" d="M487.59,-112.05C484.69,-111.51 481.81,-110.99 479,-110.5 419.35,-100.2 256.37,-112.18 209,-74.5 195.81,-64 189.86,-45.44 187.19,-31.02"/>
<polygon fill="#63b8ff" stroke="#63b8ff" points="190.67,-30.63 185.79,-21.22 183.74,-31.61 190.67,-30.63"/>
</a>
</g>
</g>
<!-- Node14&#45;&gt;Node2 -->
<g id="edge23_Node000014_Node000002" class="edge">
<title>Node14&#45;&gt;Node2</title>
<g id="a_edge23_Node000014_Node000002"><a xlink:title=" ">
<path fill="none" stroke="#63b8ff" d="M647.53,-243.01C597.3,-222.63 475.07,-173.03 407.62,-145.67"/>
<polygon fill="#63b8ff" stroke="#63b8ff" points="409.27,-142.56 398.68,-142.04 406.63,-149.04 409.27,-142.56"/>
</a>
</g>
</g>
<!-- Node14&#45;&gt;Node3 -->
<g id="edge20_Node000014_Node000003" class="edge">
<title>Node14&#45;&gt;Node3</title>
<g id="a_edge20_Node000014_Node000003"><a xlink:title=" ">
<path fill="none" stroke="#63b8ff" d="M694.81,-243.02C716.1,-234.82 747.33,-221.88 773,-207.5 808.04,-187.87 845.58,-160.09 867.9,-142.76"/>
<polygon fill="#63b8ff" stroke="#63b8ff" points="869.86,-145.68 875.57,-136.75 865.54,-140.17 869.86,-145.68"/>
</a>
</g>
</g>
<!-- Node14&#45;&gt;Node4 -->
<g id="edge22_Node000014_Node000004" class="edge">
<title>Node14&#45;&gt;Node4</title>
<g id="a_edge22_Node000014_Node000004"><a xlink:title=" ">
<path fill="none" stroke="#63b8ff" d="M638.71,-251.91C529.8,-250.83 172,-244.47 138,-207.5 117.2,-184.88 150.39,-123.76 162,-110.5 174.27,-96.49 192.02,-86.25 208.21,-79.14"/>
<polygon fill="#63b8ff" stroke="#63b8ff" points="209.22,-82.51 217.15,-75.48 206.57,-76.03 209.22,-82.51"/>
</a>
</g>
</g>
<!-- Node14&#45;&gt;Node8 -->
<g id="edge42_Node000014_Node000008" class="edge">
<title>Node14&#45;&gt;Node8</title>
<g id="a_edge42_Node000014_Node000008"><a xlink:title=" ">
<path fill="none" stroke="#63b8ff" d="M638.91,-251.6C535.6,-249.56 208.52,-240.51 176,-207.5 145.71,-176.75 144.69,-144.73 171,-110.5 176.26,-103.66 413.45,-43.76 507.84,-20.14"/>
<polygon fill="#63b8ff" stroke="#63b8ff" points="508.56,-23.57 517.41,-17.75 506.86,-16.78 508.56,-23.57"/>
</a>
</g>
</g>
<!-- Node14&#45;&gt;Node11 -->
<g id="edge43_Node000014_Node000011" class="edge">
<title>Node14&#45;&gt;Node11</title>
<g id="a_edge43_Node000014_Node000011"><a xlink:title=" ">
<path fill="none" stroke="#63b8ff" d="M672.03,-243.09C675.43,-228.73 682.89,-199.97 693,-177 718.01,-120.19 758.11,-58.52 778.39,-28.74"/>
<polygon fill="#63b8ff" stroke="#63b8ff" points="781.04,-31.07 783.82,-20.84 775.27,-27.1 781.04,-31.07"/>
</a>
</g>
</g>
<!-- Node14&#45;&gt;Node12 -->
<g id="edge41_Node000014_Node000012" class="edge">
<title>Node14&#45;&gt;Node12</title>
<g id="a_edge41_Node000014_Node000012"><a xlink:title=" ">
<path fill="none" stroke="#63b8ff" d="M701.2,-250.25C763.03,-244.77 901.32,-223.46 973,-141 986.22,-125.79 990.48,-102.65 991.73,-86.08"/>
<polygon fill="#63b8ff" stroke="#63b8ff" points="995.21,-86.57 992.14,-76.43 988.22,-86.28 995.21,-86.57"/>
</a>
</g>
</g>
<!-- Node14&#45;&gt;Node13 -->
<g id="edge21_Node000014_Node000013" class="edge">
<title>Node14&#45;&gt;Node13</title>
<g id="a_edge21_Node000014_Node000013"><a xlink:title=" ">
<path fill="none" stroke="#63b8ff" d="M662.17,-243.1C649.62,-228.75 624.07,-200.01 601,-177 591.46,-167.49 580.59,-157.4 571.04,-148.78"/>
<polygon fill="#63b8ff" stroke="#63b8ff" points="573.63,-146.4 563.84,-142.34 568.96,-151.62 573.63,-146.4"/>
</a>
</g>
</g>
<!-- Node14&#45;&gt;Node15 -->
<g id="edge24_Node000014_Node000015" class="edge">
<title>Node14&#45;&gt;Node15</title>
<g id="a_edge24_Node000014_Node000015"><a xlink:title=" ">
<path fill="none" stroke="#63b8ff" d="M679.57,-243.18C689,-234.37 703.65,-220.68 715.23,-209.86"/>
<polygon fill="#63b8ff" stroke="#63b8ff" points="717.32,-212.69 722.24,-203.31 712.54,-207.58 717.32,-212.69"/>
</a>
</g>
</g>
<!-- Node14&#45;&gt;Node16 -->
<g id="edge40_Node000014_Node000016" class="edge">
<title>Node14&#45;&gt;Node16</title>
<g id="a_edge40_Node000014_Node000016"><a xlink:title=" ">
<path fill="none" stroke="#63b8ff" d="M701.33,-249.66C766.42,-244.16 914,-229.6 959,-207.5 989.03,-192.75 1015.53,-163.66 1030.66,-144.72"/>
<polygon fill="#63b8ff" stroke="#63b8ff" points="1033.23,-147.12 1036.57,-137.07 1027.69,-142.84 1033.23,-147.12"/>
</a>
</g>
</g>
<!-- Node17 -->
<g id="Node000017" class="node">
<title>Node17</title>
<g id="a_Node000017"><a xlink:href="_gemm_kernel___optimized_8hpp.html" target="_top" xlink:title=" ">
<polygon fill="white" stroke="#666666" points="367.25,-207.5 184.75,-207.5 184.75,-177 367.25,-177 367.25,-207.5"/>
<text xml:space="preserve" text-anchor="start" x="192.75" y="-194" font-family="Helvetica,sans-Serif" font-size="10.00">Tensorium/Backend/CPU</text>
<text xml:space="preserve" text-anchor="middle" x="276" y="-182.75" font-family="Helvetica,sans-Serif" font-size="10.00">_Kernels/GemmKernel_Optimized.hpp</text>
</a>
</g>
</g>
<!-- Node14&#45;&gt;Node17 -->
<g id="edge33_Node000014_Node000017" class="edge">
<title>Node14&#45;&gt;Node17</title>
<g id="a_edge33_Node000014_Node000017"><a xlink:title=" ">
<path fill="none" stroke="#63b8ff" d="M638.75,-247.46C583.22,-239.16 465.04,-221.5 378.61,-208.58"/>
<polygon fill="#63b8ff" stroke="#63b8ff" points="379.34,-205.15 368.93,-207.14 378.3,-212.08 379.34,-205.15"/>
</a>
</g>
</g>
<!-- Node15&#45;&gt;Node2 -->
<g id="edge25_Node000015_Node000002" class="edge">
<title>Node15&#45;&gt;Node2</title>
<g id="a_edge25_Node000015_Node000002"><a xlink:title=" ">
<path fill="none" stroke="#63b8ff" d="M701.66,-187.37C646.31,-180.29 527.44,-164.05 417.84,-141.48"/>
<polygon fill="#63b8ff" stroke="#63b8ff" points="418.57,-138.05 408.07,-139.44 417.14,-144.9 418.57,-138.05"/>
</a>
</g>
</g>
<!-- Node15&#45;&gt;Node3 -->
<g id="edge26_Node000015_Node000003" class="edge">
<title>Node15&#45;&gt;Node3</title>
<g id="a_edge26_Node000015_Node000003"><a xlink:title=" ">
<path fill="none" stroke="#63b8ff" d="M754.88,-182.15C781.19,-171.2 825.57,-152.73 855.8,-140.15"/>
<polygon fill="#63b8ff" stroke="#63b8ff" points="856.95,-143.46 864.83,-136.39 854.26,-137 856.95,-143.46"/>
</a>
</g>
</g>
<!-- Node15&#45;&gt;Node4 -->
<g id="edge28_Node000015_Node000004" class="edge">
<title>Node15&#45;&gt;Node4</title>
<g id="a_edge28_Node000015_Node000004"><a xlink:title=" ">
<path fill="none" stroke="#63b8ff" d="M723.33,-182.33C704.02,-165.12 658.64,-127.52 613,-110.5 554.56,-88.71 372.7,-74.18 289.86,-68.53"/>
<polygon fill="#63b8ff" stroke="#63b8ff" points="290.11,-65.04 279.9,-67.86 289.64,-72.02 290.11,-65.04"/>
</a>
</g>
</g>
<!-- Node15&#45;&gt;Node8 -->
<g id="edge31_Node000015_Node000008" class="edge">
<title>Node15&#45;&gt;Node8</title>
<g id="a_edge31_Node000015_Node000008"><a xlink:title=" ">
<path fill="none" stroke="#63b8ff" d="M724.97,-182.6C711.01,-167.63 681.25,-136.07 655,-110.5 623.95,-80.26 586.43,-46.45 564.49,-26.95"/>
<polygon fill="#63b8ff" stroke="#63b8ff" points="567.05,-24.53 557.24,-20.52 562.4,-29.77 567.05,-24.53"/>
</a>
</g>
</g>
<!-- Node15&#45;&gt;Node11 -->
<g id="edge32_Node000015_Node000011" class="edge">
<title>Node15&#45;&gt;Node11</title>
<g id="a_edge32_Node000015_Node000011"><a xlink:title=" ">
<path fill="none" stroke="#63b8ff" d="M735.8,-182.54C744.62,-155.07 772.01,-69.78 784.58,-30.63"/>
<polygon fill="#63b8ff" stroke="#63b8ff" points="787.91,-31.71 787.63,-21.12 781.24,-29.57 787.91,-31.71"/>
</a>
</g>
</g>
<!-- Node15&#45;&gt;Node12 -->
<g id="edge30_Node000015_Node000012" class="edge">
<title>Node15&#45;&gt;Node12</title>
<g id="a_edge30_Node000015_Node000012"><a xlink:title=" ">
<path fill="none" stroke="#63b8ff" d="M738.17,-182.36C748.45,-165.53 773.12,-129.06 804,-110.5 852.72,-81.21 919.32,-71.14 958.78,-67.68"/>
<polygon fill="#63b8ff" stroke="#63b8ff" points="958.9,-71.19 968.6,-66.93 958.36,-64.21 958.9,-71.19"/>
</a>
</g>
</g>
<!-- Node15&#45;&gt;Node13 -->
<g id="edge27_Node000015_Node000013" class="edge">
<title>Node15&#45;&gt;Node13</title>
<g id="a_edge27_Node000015_Node000013"><a xlink:title=" ">
<path fill="none" stroke="#63b8ff" d="M706.6,-182.15C678.78,-172.55 634.19,-157.17 599.04,-145.05"/>
<polygon fill="#63b8ff" stroke="#63b8ff" points="600.5,-141.84 589.9,-141.89 598.21,-148.46 600.5,-141.84"/>
</a>
</g>
</g>
<!-- Node15&#45;&gt;Node16 -->
<g id="edge29_Node000015_Node000016" class="edge">
<title>Node15&#45;&gt;Node16</title>
<g id="a_edge29_Node000015_Node000016"><a xlink:title=" ">
<path fill="none" stroke="#63b8ff" d="M764.53,-184.71C822.85,-172.62 947.19,-146.83 1008.42,-134.13"/>
<polygon fill="#63b8ff" stroke="#63b8ff" points="1008.88,-137.61 1017.96,-132.15 1007.46,-130.75 1008.88,-137.61"/>
</a>
</g>
</g>
<!-- Node17&#45;&gt;Node2 -->
<g id="edge35_Node000017_Node000002" class="edge">
<title>Node17&#45;&gt;Node2</title>
<g id="a_edge35_Node000017_Node000002"><a xlink:title=" ">
<path fill="none" stroke="#63b8ff" d="M295.29,-176.61C306.37,-168.2 320.5,-157.48 332.81,-148.14"/>
<polygon fill="#63b8ff" stroke="#63b8ff" points="334.73,-151.08 340.58,-142.24 330.5,-145.5 334.73,-151.08"/>
</a>
</g>
</g>
<!-- Node17&#45;&gt;Node4 -->
<g id="edge34_Node000017_Node000004" class="edge">
<title>Node17&#45;&gt;Node4</title>
<g id="a_edge34_Node000017_Node000004"><a xlink:title=" ">
<path fill="none" stroke="#63b8ff" d="M217.45,-176.6C199.42,-169.05 181.56,-157.76 171,-141 163.77,-129.53 164.23,-122.25 171,-110.5 179.13,-96.39 193.62,-86.33 207.86,-79.38"/>
<polygon fill="#63b8ff" stroke="#63b8ff" points="208.97,-82.72 216.7,-75.47 206.14,-76.32 208.97,-82.72"/>
</a>
</g>
</g>
<!-- Node17&#45;&gt;Node7 -->
<g id="edge39_Node000017_Node000007" class="edge">
<title>Node17&#45;&gt;Node7</title>
<g id="a_edge39_Node000017_Node000007"><a xlink:title=" ">
<path fill="none" stroke="#63b8ff" d="M217.66,-176.59C197.59,-168.94 176.54,-157.59 162,-141 134.37,-109.47 126.79,-58.83 124.74,-30.85"/>
<polygon fill="#63b8ff" stroke="#63b8ff" points="128.23,-30.73 124.2,-20.93 121.24,-31.11 128.23,-30.73"/>
</a>
</g>
</g>
<!-- Node18 -->
<g id="Node000018" class="node">
<title>Node18</title>
<g id="a_Node000018"><a xlink:title=" ">
<polygon fill="#e0e0e0" stroke="#999999" points="235.88,-135.38 180.12,-135.38 180.12,-116.12 235.88,-116.12 235.88,-135.38"/>
<text xml:space="preserve" text-anchor="middle" x="208" y="-121.88" font-family="Helvetica,sans-Serif" font-size="10.00">algorithm</text>
</a>
</g>
</g>
<!-- Node17&#45;&gt;Node18 -->
<g id="edge36_Node000017_Node000018" class="edge">
<title>Node17&#45;&gt;Node18</title>
<g id="a_edge36_Node000017_Node000018"><a xlink:title=" ">
<path fill="none" stroke="#63b8ff" d="M260.57,-176.61C250.16,-166.74 236.4,-153.69 225.57,-143.42"/>
<polygon fill="#63b8ff" stroke="#63b8ff" points="228.06,-140.96 218.4,-136.61 223.25,-146.04 228.06,-140.96"/>
</a>
</g>
</g>
<!-- Node19 -->
<g id="Node000019" class="node">
<title>Node19</title>
<g id="a_Node000019"><a xlink:title=" ">
<polygon fill="#e0e0e0" stroke="#999999" points="469.62,-135.38 424.38,-135.38 424.38,-116.12 469.62,-116.12 469.62,-135.38"/>
<text xml:space="preserve" text-anchor="middle" x="447" y="-121.88" font-family="Helvetica,sans-Serif" font-size="10.00">cstdint</text>
</a>
</g>
</g>
<!-- Node17&#45;&gt;Node19 -->
<g id="edge37_Node000017_Node000019" class="edge">
<title>Node17&#45;&gt;Node19</title>
<g id="a_edge37_Node000017_Node000019"><a xlink:title=" ">
<path fill="none" stroke="#63b8ff" d="M319.2,-176.54C346.79,-166.91 383.22,-153.8 415,-141 415.62,-140.75 416.24,-140.5 416.87,-140.24"/>
<polygon fill="#63b8ff" stroke="#63b8ff" points="417.9,-143.6 425.73,-136.46 415.16,-137.16 417.9,-143.6"/>
</a>
</g>
</g>
<!-- Node20 -->
<g id="Node000020" class="node">
<title>Node20</title>
<g id="a_Node000020"><a xlink:title=" ">
<polygon fill="#e0e0e0" stroke="#999999" points="298.25,-135.38 253.75,-135.38 253.75,-116.12 298.25,-116.12 298.25,-135.38"/>
<text xml:space="preserve" text-anchor="middle" x="276" y="-121.88" font-family="Helvetica,sans-Serif" font-size="10.00">cstdlib</text>
</a>
</g>
</g>
<!-- Node17&#45;&gt;Node20 -->
<g id="edge38_Node000017_Node000020" class="edge">
<title>Node17&#45;&gt;Node20</title>
<g id="a_edge38_Node000017_Node000020"><a xlink:title=" ">
<path fill="none" stroke="#63b8ff" d="M276,-176.61C276,-167.83 276,-156.52 276,-146.9"/>
<polygon fill="#63b8ff" stroke="#63b8ff" points="279.5,-147.09 276,-137.09 272.5,-147.09 279.5,-147.09"/>
</a>
</g>
</g>
<!-- Node21&#45;&gt;Node2 -->
<g id="edge45_Node000021_Node000002" class="edge">
<title>Node21&#45;&gt;Node2</title>
<g id="a_edge45_Node000021_Node000002"><a xlink:title=" ">
<path fill="none" stroke="#63b8ff" d="M1087.02,-189.76C970.54,-184.23 568.36,-164.03 417.78,-141.2"/>
<polygon fill="#63b8ff" stroke="#63b8ff" points="418.46,-137.76 408.03,-139.64 417.36,-144.67 418.46,-137.76"/>
</a>
</g>
</g>
<!-- Node21&#45;&gt;Node3 -->
<g id="edge46_Node000021_Node000003" class="edge">
<title>Node21&#45;&gt;Node3</title>
<g id="a_edge46_Node000021_Node000003"><a xlink:title=" ">
<path fill="none" stroke="#63b8ff" d="M1086.88,-182.28C1046.42,-170.99 976.74,-151.53 931.53,-138.9"/>
<polygon fill="#63b8ff" stroke="#63b8ff" points="932.62,-135.58 922.05,-136.26 930.74,-142.32 932.62,-135.58"/>
</a>
</g>
</g>
<!-- Node21&#45;&gt;Node4 -->
<g id="edge48_Node000021_Node000004" class="edge">
<title>Node21&#45;&gt;Node4</title>
<g id="a_edge48_Node000021_Node000004"><a xlink:title=" ">
<path fill="none" stroke="#63b8ff" d="M1117.34,-182.26C1113.6,-164.92 1102.77,-127.11 1077,-110.5 1010.52,-67.65 448.55,-65.48 289.68,-65.72"/>
<polygon fill="#63b8ff" stroke="#63b8ff" points="290.03,-62.22 280.04,-65.74 290.05,-69.22 290.03,-62.22"/>
</a>
</g>
</g>
<!-- Node21&#45;&gt;Node8 -->
<g id="edge54_Node000021_Node000008" class="edge">
<title>Node21&#45;&gt;Node8</title>
<g id="a_edge54_Node000021_Node000008"><a xlink:title=" ">
<path fill="none" stroke="#63b8ff" d="M1123.72,-182.24C1131.29,-166.47 1143.91,-133.34 1130,-110.5 1102.16,-64.79 1074.36,-70.3 1023,-55.25 940.92,-31.2 682.84,-16.99 584.54,-12.33"/>
<polygon fill="#63b8ff" stroke="#63b8ff" points="584.76,-8.84 574.61,-11.87 584.44,-15.83 584.76,-8.84"/>
</a>
</g>
</g>
<!-- Node21&#45;&gt;Node11 -->
<g id="edge55_Node000021_Node000011" class="edge">
<title>Node21&#45;&gt;Node11</title>
<g id="a_edge55_Node000021_Node000011"><a xlink:title=" ">
<path fill="none" stroke="#63b8ff" d="M1139.57,-182.24C1155.49,-174.03 1176.38,-160.25 1186,-141 1203.04,-106.91 1211.39,-83.67 1186,-55.25 1162.02,-28.41 914.77,-15.68 824.1,-11.89"/>
<polygon fill="#63b8ff" stroke="#63b8ff" points="824.52,-8.4 814.38,-11.49 824.23,-15.39 824.52,-8.4"/>
</a>
</g>
</g>
<!-- Node21&#45;&gt;Node12 -->
<g id="edge51_Node000021_Node000012" class="edge">
<title>Node21&#45;&gt;Node12</title>
<g id="a_edge51_Node000021_Node000012"><a xlink:title=" ">
<path fill="none" stroke="#63b8ff" d="M1120.79,-182.14C1123.43,-165.9 1126.43,-131.67 1110,-110.5 1089.76,-84.43 1052.46,-73.59 1025.2,-69.08"/>
<polygon fill="#63b8ff" stroke="#63b8ff" points="1025.73,-65.62 1015.34,-67.68 1024.75,-72.55 1025.73,-65.62"/>
</a>
</g>
</g>
<!-- Node21&#45;&gt;Node13 -->
<g id="edge47_Node000021_Node000013" class="edge">
<title>Node21&#45;&gt;Node13</title>
<g id="a_edge47_Node000021_Node000013"><a xlink:title=" ">
<path fill="none" stroke="#63b8ff" d="M1086.97,-187.64C997.03,-177.52 740.67,-148.66 615.91,-134.62"/>
<polygon fill="#63b8ff" stroke="#63b8ff" points="616.45,-131.16 606.12,-133.52 615.67,-138.11 616.45,-131.16"/>
</a>
</g>
</g>
<!-- Node21&#45;&gt;Node16 -->
<g id="edge50_Node000021_Node000016" class="edge">
<title>Node21&#45;&gt;Node16</title>
<g id="a_edge50_Node000021_Node000016"><a xlink:title=" ">
<path fill="none" stroke="#63b8ff" d="M1108.57,-182.28C1096.82,-172.17 1077.46,-155.53 1063.01,-143.1"/>
<polygon fill="#63b8ff" stroke="#63b8ff" points="1065.35,-140.5 1055.49,-136.63 1060.79,-145.8 1065.35,-140.5"/>
</a>
</g>
</g>
<!-- Node21&#45;&gt;Node19 -->
<g id="edge52_Node000021_Node000019" class="edge">
<title>Node21&#45;&gt;Node19</title>
<g id="a_edge52_Node000021_Node000019"><a xlink:title=" ">
<path fill="none" stroke="#63b8ff" d="M1087.13,-190.18C974.57,-186.17 596.21,-170.76 479,-141 477.64,-140.65 476.27,-140.26 474.89,-139.82"/>
<polygon fill="#63b8ff" stroke="#63b8ff" points="476.56,-136.71 465.97,-136.39 474.05,-143.24 476.56,-136.71"/>
</a>
</g>
</g>
<!-- Node21&#45;&gt;Node22 -->
<g id="edge49_Node000021_Node000022" class="edge">
<title>Node21&#45;&gt;Node22</title>
<g id="a_edge49_Node000021_Node000022"><a xlink:title=" ">
<path fill="none" stroke="#63b8ff" d="M1138.48,-182.15C1161.73,-171.28 1200.82,-153.01 1227.72,-140.44"/>
<polygon fill="#63b8ff" stroke="#63b8ff" points="1229.11,-143.65 1236.69,-136.24 1226.15,-137.31 1229.11,-143.65"/>
</a>
</g>
</g>
<!-- Node21&#45;&gt;Node23 -->
<g id="edge53_Node000021_Node000023" class="edge">
<title>Node21&#45;&gt;Node23</title>
<g id="a_edge53_Node000021_Node000023"><a xlink:title=" ">
<path fill="none" stroke="#63b8ff" d="M1150.83,-182.67C1184.48,-173.35 1238.96,-157.57 1285,-141 1285.95,-140.66 1286.91,-140.31 1287.88,-139.94"/>
<polygon fill="#63b8ff" stroke="#63b8ff" points="1288.85,-143.32 1296.87,-136.39 1286.28,-136.81 1288.85,-143.32"/>
</a>
</g>
</g>
</g>
</svg>
