<?xml version="1.0" encoding="UTF-8" standalone="no"?>
<!DOCTYPE svg PUBLIC "-//W3C//DTD SVG 1.1//EN"
 "http://www.w3.org/Graphics/SVG/1.1/DTD/svg11.dtd">
<!-- Generated by graphviz version 14.1.1 (20251213.1925)
 -->
<!-- Title: tensorium_RG::fd::Dy Pages: 1 -->
<svg width="1314pt" height="667pt"
 viewBox="0.00 0.00 1314.00 667.00" xmlns="http://www.w3.org/2000/svg" xmlns:xlink="http://www.w3.org/1999/xlink">
<g id="graph0" class="graph" transform="scale(1 1) rotate(0) translate(4 663.06)">
<title>tensorium_RG::fd::Dy</title>
<!-- Node1 -->
<g id="Node000001" class="node">
<title>Node1</title>
<g id="a_Node000001"><a xlink:title="4th&#45;order centered derivative along y.">
<polygon fill="#999999" stroke="#666666" points="1305.5,-435.44 1193.5,-435.44 1193.5,-416.19 1305.5,-416.19 1305.5,-435.44"/>
<text xml:space="preserve" text-anchor="middle" x="1249.5" y="-421.94" font-family="Helvetica,sans-Serif" font-size="10.00">tensorium_RG::fd::Dy</text>
</a>
</g>
</g>
<!-- Node2 -->
<g id="Node000002" class="node">
<title>Node2</title>
<g id="a_Node000002"><a xlink:href="namespacetensorium___r_g_1_1bssn.html#ab20751cec48f34c566478200a41a74ae" target="_top" xlink:title="Fill the Hamiltonian , momentum , and Gamma &#160;constraint fields.">
<polygon fill="white" stroke="#666666" points="468,-518.06 329,-518.06 329,-487.56 468,-487.56 468,-518.06"/>
<text xml:space="preserve" text-anchor="start" x="337" y="-504.56" font-family="Helvetica,sans-Serif" font-size="10.00">tensorium_RG::bssn</text>
<text xml:space="preserve" text-anchor="middle" x="398.5" y="-493.31" font-family="Helvetica,sans-Serif" font-size="10.00">::compute_bssn_constraints</text>
</a>
</g>
</g>
<!-- Node1&#45;&gt;Node2 -->
<g id="edge1_Node000001_Node000002" class="edge">
<title>Node1&#45;&gt;Node2</title>
<g id="a_edge1_Node000001_Node000002"><a xlink:title=" ">
<path fill="none" stroke="#63b8ff" d="M1181.82,-422.7C1135.87,-421.17 1073.42,-420.32 1018.5,-423.81 817.67,-436.58 582.39,-472.41 468.39,-491.12"/>
<polygon fill="#63b8ff" stroke="#63b8ff" points="1181.51,-426.19 1191.62,-423.04 1181.75,-419.19 1181.51,-426.19"/>
</a>
</g>
</g>
<!-- Node8 -->
<g id="Node000008" class="node">
<title>Node8</title>
<g id="a_Node000008"><a xlink:href="namespacetensorium___r_g_1_1bssn.html#a50230b731fbf44e0ce3f7d8fa0a66146" target="_top" xlink:title="Assemble &#160;for each symmetric component.">
<polygon fill="white" stroke="#666666" points="1144.75,-659.06 1031.25,-659.06 1031.25,-628.56 1144.75,-628.56 1144.75,-659.06"/>
<text xml:space="preserve" text-anchor="start" x="1039.25" y="-645.56" font-family="Helvetica,sans-Serif" font-size="10.00">tensorium_RG::bssn</text>
<text xml:space="preserve" text-anchor="middle" x="1088" y="-634.31" font-family="Helvetica,sans-Serif" font-size="10.00">::compute_rhs_A_tilde</text>
</a>
</g>
</g>
<!-- Node1&#45;&gt;Node8 -->
<g id="edge7_Node000001_Node000008" class="edge">
<title>Node1&#45;&gt;Node8</title>
<g id="a_edge7_Node000001_Node000008"><a xlink:title=" ">
<path fill="none" stroke="#63b8ff" d="M1244.16,-446.85C1235,-486.09 1210.08,-570.8 1157.5,-618.81 1153.57,-622.4 1149.09,-625.48 1144.34,-628.13"/>
<polygon fill="#63b8ff" stroke="#63b8ff" points="1247.53,-447.81 1246.27,-437.29 1240.69,-446.31 1247.53,-447.81"/>
</a>
</g>
</g>
<!-- Node10 -->
<g id="Node000010" class="node">
<title>Node10</title>
<g id="a_Node000010"><a xlink:href="namespacetensorium___r_g_1_1bssn.html#a63018070ef162fcb1bc235bd8e212f8f" target="_top" xlink:title="Fill the RHS buffer for &#160;inside the padded interior region.">
<polygon fill="white" stroke="#666666" points="1141,-610.06 1035,-610.06 1035,-579.56 1141,-579.56 1141,-610.06"/>
<text xml:space="preserve" text-anchor="start" x="1043" y="-596.56" font-family="Helvetica,sans-Serif" font-size="10.00">tensorium_RG::bssn</text>
<text xml:space="preserve" text-anchor="middle" x="1088" y="-585.31" font-family="Helvetica,sans-Serif" font-size="10.00">::compute_rhs_chi</text>
</a>
</g>
</g>
<!-- Node1&#45;&gt;Node10 -->
<g id="edge10_Node000001_Node000010" class="edge">
<title>Node1&#45;&gt;Node10</title>
<g id="a_edge10_Node000001_Node000010"><a xlink:title=" ">
<path fill="none" stroke="#63b8ff" d="M1240.73,-446.15C1227.92,-477.07 1199.55,-535.91 1157.5,-569.81 1152.67,-573.71 1147.18,-577.03 1141.46,-579.85"/>
<polygon fill="#63b8ff" stroke="#63b8ff" points="1243.85,-447.76 1244.31,-437.18 1237.35,-445.17 1243.85,-447.76"/>
</a>
</g>
</g>
<!-- Node11 -->
<g id="Node000011" class="node">
<title>Node11</title>
<g id="a_Node000011"><a xlink:href="namespacetensorium___r_g_1_1bssn.html#adf6c30f846c2c8c8808a6ee13f84106a" target="_top" xlink:title="Assemble &#160;inside the interior region.">
<polygon fill="white" stroke="#666666" points="1147,-561.06 1029,-561.06 1029,-530.56 1147,-530.56 1147,-561.06"/>
<text xml:space="preserve" text-anchor="start" x="1037" y="-547.56" font-family="Helvetica,sans-Serif" font-size="10.00">tensorium_RG::bssn</text>
<text xml:space="preserve" text-anchor="middle" x="1088" y="-536.31" font-family="Helvetica,sans-Serif" font-size="10.00">::compute_rhs_Gamma</text>
</a>
</g>
</g>
<!-- Node1&#45;&gt;Node11 -->
<g id="edge12_Node000001_Node000011" class="edge">
<title>Node1&#45;&gt;Node11</title>
<g id="a_edge12_Node000001_Node000011"><a xlink:title=" ">
<path fill="none" stroke="#63b8ff" d="M1234.62,-444.86C1218.3,-466.05 1189.36,-500.01 1157.5,-520.81 1152.09,-524.34 1146.12,-527.46 1140.03,-530.19"/>
<polygon fill="#63b8ff" stroke="#63b8ff" points="1237.26,-447.17 1240.48,-437.07 1231.67,-442.96 1237.26,-447.17"/>
</a>
</g>
</g>
<!-- Node12 -->
<g id="Node000012" class="node">
<title>Node12</title>
<g id="a_Node000012"><a xlink:href="namespacetensorium___r_g_1_1bssn.html#a2021b3f9dc20d94b54647cfa72a5b389" target="_top" xlink:title="Fill &#160;for all six symmetric components.">
<polygon fill="white" stroke="#666666" points="1157.5,-512.06 1018.5,-512.06 1018.5,-481.56 1157.5,-481.56 1157.5,-512.06"/>
<text xml:space="preserve" text-anchor="start" x="1026.5" y="-498.56" font-family="Helvetica,sans-Serif" font-size="10.00">tensorium_RG::bssn</text>
<text xml:space="preserve" text-anchor="middle" x="1088" y="-487.31" font-family="Helvetica,sans-Serif" font-size="10.00">::compute_rhs_gamma_tilde</text>
</a>
</g>
</g>
<!-- Node1&#45;&gt;Node12 -->
<g id="edge14_Node000001_Node000012" class="edge">
<title>Node1&#45;&gt;Node12</title>
<g id="a_edge14_Node000001_Node000012"><a xlink:title=" ">
<path fill="none" stroke="#63b8ff" d="M1220.34,-441.13C1202.57,-450.53 1178.99,-462.5 1157.5,-471.81 1150.07,-475.04 1142.07,-478.21 1134.25,-481.16"/>
<polygon fill="#63b8ff" stroke="#63b8ff" points="1221.82,-444.31 1228.99,-436.51 1218.52,-438.14 1221.82,-444.31"/>
</a>
</g>
</g>
<!-- Node13 -->
<g id="Node000013" class="node">
<title>Node13</title>
<g id="a_Node000013"><a xlink:href="namespacetensorium___r_g_1_1bssn.html#a26e0e7a80891485f5ea3a9e1764d519e" target="_top" xlink:title="Compute &#160;throughout the interior region.">
<polygon fill="white" stroke="#666666" points="1141,-463.06 1035,-463.06 1035,-432.56 1141,-432.56 1141,-463.06"/>
<text xml:space="preserve" text-anchor="start" x="1043" y="-449.56" font-family="Helvetica,sans-Serif" font-size="10.00">tensorium_RG::bssn</text>
<text xml:space="preserve" text-anchor="middle" x="1088" y="-438.31" font-family="Helvetica,sans-Serif" font-size="10.00">::compute_rhs_K</text>
</a>
</g>
</g>
<!-- Node1&#45;&gt;Node13 -->
<g id="edge16_Node000001_Node000013" class="edge">
<title>Node1&#45;&gt;Node13</title>
<g id="a_edge16_Node000001_Node000013"><a xlink:title=" ">
<path fill="none" stroke="#63b8ff" d="M1181.93,-435C1168.36,-436.87 1154.27,-438.81 1141.29,-440.6"/>
<polygon fill="#63b8ff" stroke="#63b8ff" points="1182.23,-438.49 1191.66,-433.65 1181.28,-431.55 1182.23,-438.49"/>
</a>
</g>
</g>
<!-- Node14 -->
<g id="Node000014" class="node">
<title>Node14</title>
<g id="a_Node000014"><a xlink:href="namespacetensorium___r_g_1_1bssn.html#a00ddfb96cc3a527ad849dfc490893be8" target="_top" xlink:title="Populate the Ricci tensor cache &#160;throughout the interior grid.">
<polygon fill="white" stroke="#666666" points="453,-232.06 344,-232.06 344,-201.56 453,-201.56 453,-232.06"/>
<text xml:space="preserve" text-anchor="start" x="352" y="-218.56" font-family="Helvetica,sans-Serif" font-size="10.00">tensorium_RG::bssn</text>
<text xml:space="preserve" text-anchor="middle" x="398.5" y="-207.31" font-family="Helvetica,sans-Serif" font-size="10.00">::compute_ricci_bssn</text>
</a>
</g>
</g>
<!-- Node1&#45;&gt;Node14 -->
<g id="edge18_Node000001_Node000014" class="edge">
<title>Node1&#45;&gt;Node14</title>
<g id="a_edge18_Node000001_Node000014"><a xlink:title=" ">
<path fill="none" stroke="#63b8ff" d="M1235.09,-406.63C1218.84,-384.52 1189.61,-348.22 1157.5,-324.81 1057.63,-252.01 1027.46,-210.81 903.88,-210.81 903.88,-210.81 903.88,-210.81 722,-210.81 627.5,-210.81 517.45,-213.42 453.42,-215.2"/>
<polygon fill="#63b8ff" stroke="#63b8ff" points="1232.24,-408.65 1240.91,-414.73 1237.92,-404.57 1232.24,-408.65"/>
</a>
</g>
</g>
<!-- Node17 -->
<g id="Node000017" class="node">
<title>Node17</title>
<g id="a_Node000017"><a xlink:href="namespacetensorium___r_g_1_1bssn.html#ac9153162b0e444ecc58bb99e8fe08dbd" target="_top" xlink:title="Compute the full &#160;tensor at every interior grid point.">
<polygon fill="white" stroke="#666666" points="466.12,-146.06 330.88,-146.06 330.88,-115.56 466.12,-115.56 466.12,-146.06"/>
<text xml:space="preserve" text-anchor="start" x="338.88" y="-132.56" font-family="Helvetica,sans-Serif" font-size="10.00">tensorium_RG::bssn</text>
<text xml:space="preserve" text-anchor="middle" x="398.5" y="-121.31" font-family="Helvetica,sans-Serif" font-size="10.00">::compute_tildeGamma_full</text>
</a>
</g>
</g>
<!-- Node1&#45;&gt;Node17 -->
<g id="edge25_Node000001_Node000017" class="edge">
<title>Node1&#45;&gt;Node17</title>
<g id="a_edge25_Node000001_Node000017"><a xlink:title=" ">
<path fill="none" stroke="#63b8ff" d="M1245.19,-404.95C1237.57,-364.18 1214.84,-273.88 1157.5,-227.81 1067.58,-155.58 1019.22,-172.81 903.88,-172.81 903.88,-172.81 903.88,-172.81 722,-172.81 633.07,-172.81 531.5,-156.92 466.5,-144.68"/>
<polygon fill="#63b8ff" stroke="#63b8ff" points="1241.71,-405.38 1246.87,-414.63 1248.61,-404.18 1241.71,-405.38"/>
</a>
</g>
</g>
<!-- Node18 -->
<g id="Node000018" class="node">
<title>Node18</title>
<g id="a_Node000018"><a xlink:href="namespacetensorium___r_g_1_1fd.html#a659a58ed413811bedff65e3922dbc585" target="_top" xlink:title="Axis selector that forwards to Dx/Dy/Dz for compile&#45;time loops.">
<polygon fill="white" stroke="#666666" points="1141.38,-144.44 1034.62,-144.44 1034.62,-125.19 1141.38,-125.19 1141.38,-144.44"/>
<text xml:space="preserve" text-anchor="middle" x="1088" y="-130.94" font-family="Helvetica,sans-Serif" font-size="10.00">tensorium_RG::fd::D</text>
</a>
</g>
</g>
<!-- Node1&#45;&gt;Node18 -->
<g id="edge31_Node000001_Node000018" class="edge">
<title>Node1&#45;&gt;Node18</title>
<g id="a_edge31_Node000001_Node000018"><a xlink:title=" ">
<path fill="none" stroke="#63b8ff" d="M1247.35,-404.51C1243.53,-354.59 1227.12,-229.03 1157.5,-158.81 1151.47,-152.73 1143.81,-148.18 1135.81,-144.79"/>
<polygon fill="#63b8ff" stroke="#63b8ff" points="1243.84,-404.47 1247.99,-414.22 1250.83,-404.01 1243.84,-404.47"/>
</a>
</g>
</g>
<!-- Node19 -->
<g id="Node000019" class="node">
<title>Node19</title>
<g id="a_Node000019"><a xlink:href="namespacetensorium___r_g_1_1bssn_1_1detail.html#ae9f5c5d9672a4dd8198a3aae33479f3c" target="_top" xlink:title=" ">
<polygon fill="white" stroke="#666666" points="1143.25,-375.69 1032.75,-375.69 1032.75,-333.94 1143.25,-333.94 1143.25,-375.69"/>
<text xml:space="preserve" text-anchor="start" x="1040.75" y="-362.19" font-family="Helvetica,sans-Serif" font-size="10.00">tensorium_RG::bssn</text>
<text xml:space="preserve" text-anchor="start" x="1040.75" y="-350.94" font-family="Helvetica,sans-Serif" font-size="10.00">::detail::diff_gamma</text>
<text xml:space="preserve" text-anchor="middle" x="1088" y="-339.69" font-family="Helvetica,sans-Serif" font-size="10.00">_tilde_inv_component</text>
</a>
</g>
</g>
<!-- Node1&#45;&gt;Node19 -->
<g id="edge32_Node000001_Node000019" class="edge">
<title>Node1&#45;&gt;Node19</title>
<g id="a_edge32_Node000001_Node000019"><a xlink:title=" ">
<path fill="none" stroke="#63b8ff" d="M1215.54,-411.14C1192.86,-401.04 1162.37,-387.47 1137,-376.18"/>
<polygon fill="#63b8ff" stroke="#63b8ff" points="1214.04,-414.31 1224.6,-415.18 1216.89,-407.91 1214.04,-414.31"/>
</a>
</g>
</g>
<!-- Node3 -->
<g id="Node000003" class="node">
<title>Node3</title>
<g id="a_Node000003"><a xlink:href="namespacetensorium___r_g_1_1init.html#a7ac89baed6b1550bce5f67c78c287bd6" target="_top" xlink:title="Superpose two isotropic Schwarzschild conformal factors for binary puncture data.">
<polygon fill="white" stroke="#666666" points="282.88,-356.69 167.12,-356.69 167.12,-314.94 282.88,-314.94 282.88,-356.69"/>
<text xml:space="preserve" text-anchor="start" x="175.12" y="-343.19" font-family="Helvetica,sans-Serif" font-size="10.00">tensorium_RG::init</text>
<text xml:space="preserve" text-anchor="start" x="175.12" y="-331.94" font-family="Helvetica,sans-Serif" font-size="10.00">::binary_schwarzschild</text>
<text xml:space="preserve" text-anchor="middle" x="225" y="-320.69" font-family="Helvetica,sans-Serif" font-size="10.00">_isotropic_2centers</text>
</a>
</g>
</g>
<!-- Node2&#45;&gt;Node3 -->
<g id="edge2_Node000002_Node000003" class="edge">
<title>Node2&#45;&gt;Node3</title>
<g id="a_edge2_Node000002_Node000003"><a xlink:title=" ">
<path fill="none" stroke="#63b8ff" d="M339.52,-481.84C335.29,-479.41 331.23,-476.73 327.5,-473.81 305.67,-456.71 261.78,-391.28 239.55,-357.02"/>
<polygon fill="#63b8ff" stroke="#63b8ff" points="337.79,-484.89 348.28,-486.41 341.03,-478.68 337.79,-484.89"/>
</a>
</g>
</g>
<!-- Node4 -->
<g id="Node000004" class="node">
<title>Node4</title>
<g id="a_Node000004"><a xlink:href="namespacetensorium___r_g_1_1init.html#af307809ffe0a2d01e1cd387a670bb564" target="_top" xlink:title="Populate the grid with Minkowski (flat) initial data.">
<polygon fill="white" stroke="#666666" points="273.88,-281.06 176.12,-281.06 176.12,-250.56 273.88,-250.56 273.88,-281.06"/>
<text xml:space="preserve" text-anchor="start" x="184.12" y="-267.56" font-family="Helvetica,sans-Serif" font-size="10.00">tensorium_RG::init</text>
<text xml:space="preserve" text-anchor="middle" x="225" y="-256.31" font-family="Helvetica,sans-Serif" font-size="10.00">::minkowski</text>
</a>
</g>
</g>
<!-- Node2&#45;&gt;Node4 -->
<g id="edge3_Node000002_Node000004" class="edge">
<title>Node2&#45;&gt;Node4</title>
<g id="a_edge3_Node000002_Node000004"><a xlink:title=" ">
<path fill="none" stroke="#63b8ff" d="M364.5,-480.29C351.26,-469.71 336.93,-456.08 327.5,-440.81 294.87,-387.98 328.66,-355.56 291.5,-305.81 284,-295.78 273.18,-287.72 262.49,-281.54"/>
<polygon fill="#63b8ff" stroke="#63b8ff" points="362.15,-482.89 372.22,-486.18 366.4,-477.33 362.15,-482.89"/>
</a>
</g>
</g>
<!-- Node5 -->
<g id="Node000005" class="node">
<title>Node5</title>
<g id="a_Node000005"><a xlink:href="namespacetensorium___r_g_1_1bssn.html#a84e52bf3ece58a774be1567a5e14437b" target="_top" xlink:title="Project the BSSN state and immediately recompute Hamiltonian, momentum, and Gamma constraints.">
<polygon fill="white" stroke="#666666" points="279.88,-477.06 170.12,-477.06 170.12,-446.56 279.88,-446.56 279.88,-477.06"/>
<text xml:space="preserve" text-anchor="start" x="178.12" y="-463.56" font-family="Helvetica,sans-Serif" font-size="10.00">tensorium_RG::bssn</text>
<text xml:space="preserve" text-anchor="middle" x="225" y="-452.31" font-family="Helvetica,sans-Serif" font-size="10.00">::project_and_monitor</text>
</a>
</g>
</g>
<!-- Node2&#45;&gt;Node5 -->
<g id="edge4_Node000002_Node000005" class="edge">
<title>Node2&#45;&gt;Node5</title>
<g id="a_edge4_Node000002_Node000005"><a xlink:title=" ">
<path fill="none" stroke="#63b8ff" d="M320.8,-484.48C307.12,-481.21 293.13,-477.86 280.23,-474.78"/>
<polygon fill="#63b8ff" stroke="#63b8ff" points="319.67,-487.81 330.21,-486.73 321.3,-481 319.67,-487.81"/>
</a>
</g>
</g>
<!-- Node6 -->
<g id="Node000006" class="node">
<title>Node6</title>
<g id="a_Node000006"><a xlink:href="namespacetensorium___r_g_1_1init.html#a996e43c04ea0758b97725bb1117d7f9f" target="_top" xlink:title="Construct an isotropic Schwarzschild puncture with conformal factor .">
<polygon fill="white" stroke="#666666" points="288.12,-232.06 161.88,-232.06 161.88,-201.56 288.12,-201.56 288.12,-232.06"/>
<text xml:space="preserve" text-anchor="start" x="169.88" y="-218.56" font-family="Helvetica,sans-Serif" font-size="10.00">tensorium_RG::init</text>
<text xml:space="preserve" text-anchor="middle" x="225" y="-207.31" font-family="Helvetica,sans-Serif" font-size="10.00">::schwarzschild_isotropic</text>
</a>
</g>
</g>
<!-- Node2&#45;&gt;Node6 -->
<g id="edge5_Node000002_Node000006" class="edge">
<title>Node2&#45;&gt;Node6</title>
<g id="a_edge5_Node000002_Node000006"><a xlink:title=" ">
<path fill="none" stroke="#63b8ff" d="M363.6,-480.41C350.33,-469.94 336.23,-456.33 327.5,-440.81 283.43,-362.48 348.89,-310.99 291.5,-241.81 288.47,-238.16 284.84,-235.04 280.87,-232.37"/>
<polygon fill="#63b8ff" stroke="#63b8ff" points="361.26,-483.04 371.36,-486.25 365.47,-477.44 361.26,-483.04"/>
</a>
</g>
</g>
<!-- Node7 -->
<g id="Node000007" class="node">
<title>Node7</title>
<g id="a_Node000007"><a xlink:href="classtensorium___r_g_1_1bssn_1_1_b_s_s_n_r_k_stepper.html#a4ad69561ae2821477d424f8f34eb9b23" target="_top" xlink:title="Advance the grid by dt using four RK stages.">
<polygon fill="white" stroke="#666666" points="122.5,-520.06 0,-520.06 0,-489.56 122.5,-489.56 122.5,-520.06"/>
<text xml:space="preserve" text-anchor="start" x="8" y="-506.56" font-family="Helvetica,sans-Serif" font-size="10.00">tensorium_RG::bssn</text>
<text xml:space="preserve" text-anchor="middle" x="61.25" y="-495.31" font-family="Helvetica,sans-Serif" font-size="10.00">::BSSNRKStepper::step</text>
</a>
</g>
</g>
<!-- Node2&#45;&gt;Node7 -->
<g id="edge6_Node000002_Node000007" class="edge">
<title>Node2&#45;&gt;Node7</title>
<g id="a_edge6_Node000002_Node000007"><a xlink:title=" ">
<path fill="none" stroke="#63b8ff" d="M317.57,-503.29C257.84,-503.65 177.44,-504.13 122.93,-504.45"/>
<polygon fill="#63b8ff" stroke="#63b8ff" points="317.36,-506.79 327.33,-503.23 317.31,-499.79 317.36,-506.79"/>
</a>
</g>
</g>
<!-- Node9 -->
<g id="Node000009" class="node">
<title>Node9</title>
<g id="a_Node000009"><a xlink:href="classtensorium___r_g_1_1bssn_1_1_b_s_s_n_r_k_stepper.html#a9b6faf9c13845a4e462e89994f214a82" target="_top" xlink:title="Invoke every RHS kernel using the provided grid snapshot.">
<polygon fill="white" stroke="#666666" points="982.5,-561.06 823.25,-561.06 823.25,-530.56 982.5,-530.56 982.5,-561.06"/>
<text xml:space="preserve" text-anchor="start" x="831.25" y="-547.56" font-family="Helvetica,sans-Serif" font-size="10.00">tensorium_RG::bssn</text>
<text xml:space="preserve" text-anchor="middle" x="902.88" y="-536.31" font-family="Helvetica,sans-Serif" font-size="10.00">::BSSNRKStepper::evaluate_rhs</text>
</a>
</g>
</g>
<!-- Node8&#45;&gt;Node9 -->
<g id="edge8_Node000008_Node000009" class="edge">
<title>Node8&#45;&gt;Node9</title>
<g id="a_edge8_Node000008_Node000009"><a xlink:title=" ">
<path fill="none" stroke="#63b8ff" d="M1029.4,-623.84C1025.68,-622.23 1022.01,-620.55 1018.5,-618.81 984.23,-601.9 947.43,-577.16 925.03,-561.27"/>
<polygon fill="#63b8ff" stroke="#63b8ff" points="1028.02,-627.06 1038.6,-627.63 1030.69,-620.58 1028.02,-627.06"/>
</a>
</g>
</g>
<!-- Node9&#45;&gt;Node7 -->
<g id="edge9_Node000009_Node000007" class="edge">
<title>Node9&#45;&gt;Node7</title>
<g id="a_edge9_Node000009_Node000007"><a xlink:title=" ">
<path fill="none" stroke="#63b8ff" d="M811.46,-545.81C743.66,-545.81 648.58,-545.81 565.12,-545.81 565.12,-545.81 565.12,-545.81 397.5,-545.81 300.9,-545.81 189.78,-528.83 122.85,-516.73"/>
<polygon fill="#63b8ff" stroke="#63b8ff" points="811.43,-549.31 821.43,-545.81 811.43,-542.31 811.43,-549.31"/>
</a>
</g>
</g>
<!-- Node10&#45;&gt;Node9 -->
<g id="edge11_Node000010_Node000009" class="edge">
<title>Node10&#45;&gt;Node9</title>
<g id="a_edge11_Node000010_Node000009"><a xlink:title=" ">
<path fill="none" stroke="#63b8ff" d="M1023.44,-577.81C1003.64,-572.51 981.91,-566.69 962.47,-561.49"/>
<polygon fill="#63b8ff" stroke="#63b8ff" points="1022.5,-581.18 1033.06,-580.38 1024.31,-574.41 1022.5,-581.18"/>
</a>
</g>
</g>
<!-- Node11&#45;&gt;Node9 -->
<g id="edge13_Node000011_Node000009" class="edge">
<title>Node11&#45;&gt;Node9</title>
<g id="a_edge13_Node000011_Node000009"><a xlink:title=" ">
<path fill="none" stroke="#63b8ff" d="M1017.07,-545.81C1005.87,-545.81 994.21,-545.81 982.81,-545.81"/>
<polygon fill="#63b8ff" stroke="#63b8ff" points="1017.04,-549.31 1027.04,-545.81 1017.04,-542.31 1017.04,-549.31"/>
</a>
</g>
</g>
<!-- Node12&#45;&gt;Node9 -->
<g id="edge15_Node000012_Node000009" class="edge">
<title>Node12&#45;&gt;Node9</title>
<g id="a_edge15_Node000012_Node000009"><a xlink:title=" ">
<path fill="none" stroke="#63b8ff" d="M1017.25,-515.48C999.21,-520.3 979.97,-525.45 962.55,-530.11"/>
<polygon fill="#63b8ff" stroke="#63b8ff" points="1018.08,-518.88 1026.84,-512.91 1016.28,-512.11 1018.08,-518.88"/>
</a>
</g>
</g>
<!-- Node13&#45;&gt;Node9 -->
<g id="edge17_Node000013_Node000009" class="edge">
<title>Node13&#45;&gt;Node9</title>
<g id="a_edge17_Node000013_Node000009"><a xlink:title=" ">
<path fill="none" stroke="#63b8ff" d="M1029.4,-467.79C1025.68,-469.4 1022.01,-471.08 1018.5,-472.81 984.23,-489.73 947.43,-514.47 925.03,-530.36"/>
<polygon fill="#63b8ff" stroke="#63b8ff" points="1030.69,-471.04 1038.6,-464 1028.02,-464.57 1030.69,-471.04"/>
</a>
</g>
</g>
<!-- Node14&#45;&gt;Node3 -->
<g id="edge20_Node000014_Node000003" class="edge">
<title>Node14&#45;&gt;Node3</title>
<g id="a_edge20_Node000014_Node000003"><a xlink:title=" ">
<path fill="none" stroke="#63b8ff" d="M365.96,-238.7C334.77,-260.34 287.36,-293.24 256.53,-314.63"/>
<polygon fill="#63b8ff" stroke="#63b8ff" points="367.62,-241.81 373.84,-233.23 363.62,-236.06 367.62,-241.81"/>
</a>
</g>
</g>
<!-- Node14&#45;&gt;Node4 -->
<g id="edge23_Node000014_Node000004" class="edge">
<title>Node14&#45;&gt;Node4</title>
<g id="a_edge23_Node000014_Node000004"><a xlink:title=" ">
<path fill="none" stroke="#63b8ff" d="M332.81,-235.3C313.43,-240.83 292.51,-246.81 274.37,-251.99"/>
<polygon fill="#63b8ff" stroke="#63b8ff" points="333.6,-238.71 342.25,-232.6 331.67,-231.98 333.6,-238.71"/>
</a>
</g>
</g>
<!-- Node14&#45;&gt;Node6 -->
<g id="edge24_Node000014_Node000006" class="edge">
<title>Node14&#45;&gt;Node6</title>
<g id="a_edge24_Node000014_Node000006"><a xlink:title=" ">
<path fill="none" stroke="#63b8ff" d="M332.4,-216.81C318.04,-216.81 302.86,-216.81 288.6,-216.81"/>
<polygon fill="#63b8ff" stroke="#63b8ff" points="332.19,-220.31 342.19,-216.81 332.19,-213.31 332.19,-220.31"/>
</a>
</g>
</g>
<!-- Node15 -->
<g id="Node000015" class="node">
<title>Node15</title>
<g id="a_Node000015"><a xlink:href="namespacetensorium___r_g_1_1init.html#ac5dbe8c0753adf8b1d8b68c2f5b78703" target="_top" xlink:title=" ">
<polygon fill="white" stroke="#666666" points="278,-108.69 172,-108.69 172,-66.94 278,-66.94 278,-108.69"/>
<text xml:space="preserve" text-anchor="start" x="180" y="-95.19" font-family="Helvetica,sans-Serif" font-size="10.00">tensorium_RG::init</text>
<text xml:space="preserve" text-anchor="start" x="180" y="-83.94" font-family="Helvetica,sans-Serif" font-size="10.00">::binary_bowen_york</text>
<text xml:space="preserve" text-anchor="middle" x="225" y="-72.69" font-family="Helvetica,sans-Serif" font-size="10.00">_puncture_init</text>
</a>
</g>
</g>
<!-- Node14&#45;&gt;Node15 -->
<g id="edge19_Node000014_Node000015" class="edge">
<title>Node14&#45;&gt;Node15</title>
<g id="a_edge19_Node000014_Node000015"><a xlink:title=" ">
<path fill="none" stroke="#63b8ff" d="M369.89,-194.08C348.73,-176.88 318.65,-152.86 291.5,-132.81 280.73,-124.86 268.72,-116.48 257.96,-109.13"/>
<polygon fill="#63b8ff" stroke="#63b8ff" points="367.52,-196.67 377.48,-200.28 371.95,-191.25 367.52,-196.67"/>
</a>
</g>
</g>
<!-- Node16 -->
<g id="Node000016" class="node">
<title>Node16</title>
<g id="a_Node000016"><a xlink:href="classtensorium___r_g_1_1bssn_1_1_b_s_s_n_r_k_stepper.html#ad2e2e4acabae8ae90f3793efaad083e2" target="_top" xlink:title="Reproject the grid, floor , and rebuild Christoffels and Ricci.">
<polygon fill="white" stroke="#666666" points="291.5,-183.69 158.5,-183.69 158.5,-141.94 291.5,-141.94 291.5,-183.69"/>
<text xml:space="preserve" text-anchor="start" x="166.5" y="-170.19" font-family="Helvetica,sans-Serif" font-size="10.00">tensorium_RG::bssn</text>
<text xml:space="preserve" text-anchor="start" x="166.5" y="-158.94" font-family="Helvetica,sans-Serif" font-size="10.00">::BSSNRKStepper::ensure</text>
<text xml:space="preserve" text-anchor="middle" x="225" y="-147.69" font-family="Helvetica,sans-Serif" font-size="10.00">_geometry</text>
</a>
</g>
</g>
<!-- Node14&#45;&gt;Node16 -->
<g id="edge21_Node000014_Node000016" class="edge">
<title>Node14&#45;&gt;Node16</title>
<g id="a_edge21_Node000014_Node000016"><a xlink:title=" ">
<path fill="none" stroke="#63b8ff" d="M336.95,-197.75C322.33,-193.14 306.63,-188.2 291.78,-183.52"/>
<polygon fill="#63b8ff" stroke="#63b8ff" points="335.86,-201.08 346.45,-200.74 337.96,-194.4 335.86,-201.08"/>
</a>
</g>
</g>
<!-- Node16&#45;&gt;Node7 -->
<g id="edge22_Node000016_Node000007" class="edge">
<title>Node16&#45;&gt;Node7</title>
<g id="a_edge22_Node000016_Node000007"><a xlink:title=" ">
<path fill="none" stroke="#63b8ff" d="M159.57,-191.63C159.21,-192.02 158.85,-192.41 158.5,-192.81 78.67,-283.78 65.05,-440.02 62.73,-489.39"/>
<polygon fill="#63b8ff" stroke="#63b8ff" points="161.7,-194.42 166.86,-185.16 157.05,-189.18 161.7,-194.42"/>
</a>
</g>
</g>
<!-- Node17&#45;&gt;Node3 -->
<g id="edge27_Node000017_Node000003" class="edge">
<title>Node17&#45;&gt;Node3</title>
<g id="a_edge27_Node000017_Node000003"><a xlink:title=" ">
<path fill="none" stroke="#63b8ff" d="M365.77,-153.32C352.49,-164.04 337.79,-177.8 327.5,-192.81 301.51,-230.75 319.58,-253.4 291.5,-289.81 284.12,-299.39 274.19,-307.77 264.29,-314.66"/>
<polygon fill="#63b8ff" stroke="#63b8ff" points="367.72,-156.24 373.47,-147.34 363.43,-150.71 367.72,-156.24"/>
</a>
</g>
</g>
<!-- Node17&#45;&gt;Node4 -->
<g id="edge29_Node000017_Node000004" class="edge">
<title>Node17&#45;&gt;Node4</title>
<g id="a_edge29_Node000017_Node000004"><a xlink:title=" ">
<path fill="none" stroke="#63b8ff" d="M369.11,-153.68C355.88,-164.89 340.28,-178.94 327.5,-192.81 309.43,-212.42 312.79,-224.76 291.5,-240.81 286.25,-244.77 280.3,-248.17 274.18,-251.07"/>
<polygon fill="#63b8ff" stroke="#63b8ff" points="371.22,-156.48 376.66,-147.38 366.74,-151.1 371.22,-156.48"/>
</a>
</g>
</g>
<!-- Node17&#45;&gt;Node6 -->
<g id="edge30_Node000017_Node000006" class="edge">
<title>Node17&#45;&gt;Node6</title>
<g id="a_edge30_Node000017_Node000006"><a xlink:title=" ">
<path fill="none" stroke="#63b8ff" d="M342.77,-151.27C337.48,-153.9 332.3,-156.76 327.5,-159.81 309.2,-171.48 310.04,-181.53 291.5,-192.81 286.43,-195.9 280.9,-198.68 275.28,-201.16"/>
<polygon fill="#63b8ff" stroke="#63b8ff" points="344.05,-154.53 351.63,-147.14 341.09,-148.19 344.05,-154.53"/>
</a>
</g>
</g>
<!-- Node17&#45;&gt;Node15 -->
<g id="edge26_Node000017_Node000015" class="edge">
<title>Node17&#45;&gt;Node15</title>
<g id="a_edge26_Node000017_Node000015"><a xlink:title=" ">
<path fill="none" stroke="#63b8ff" d="M324.06,-112.4C308.73,-108.56 292.86,-104.58 278.48,-100.97"/>
<polygon fill="#63b8ff" stroke="#63b8ff" points="323.08,-115.76 333.63,-114.8 324.78,-108.97 323.08,-115.76"/>
</a>
</g>
</g>
<!-- Node17&#45;&gt;Node16 -->
<g id="edge28_Node000017_Node000016" class="edge">
<title>Node17&#45;&gt;Node16</title>
<g id="a_edge28_Node000017_Node000016"><a xlink:title=" ">
<path fill="none" stroke="#63b8ff" d="M319.49,-145.37C310.23,-147.1 300.84,-148.85 291.77,-150.54"/>
<polygon fill="#63b8ff" stroke="#63b8ff" points="320.03,-148.83 329.21,-143.55 318.74,-141.95 320.03,-148.83"/>
</a>
</g>
</g>
<!-- Node20 -->
<g id="Node000020" class="node">
<title>Node20</title>
<g id="a_Node000020"><a xlink:href="namespacetensorium___r_g_1_1bssn.html#ac0ff801adfd5fd1985ae3ce40263bf3c" target="_top" xlink:title="Evaluate &#160;using the 4th&#45;order derivative operators.">
<polygon fill="white" stroke="#666666" points="972,-368.06 833.75,-368.06 833.75,-337.56 972,-337.56 972,-368.06"/>
<text xml:space="preserve" text-anchor="start" x="841.75" y="-354.56" font-family="Helvetica,sans-Serif" font-size="10.00">tensorium_RG::bssn</text>
<text xml:space="preserve" text-anchor="middle" x="902.88" y="-343.31" font-family="Helvetica,sans-Serif" font-size="10.00">::metric_inverse_divergence</text>
</a>
</g>
</g>
<!-- Node19&#45;&gt;Node20 -->
<g id="edge33_Node000019_Node000020" class="edge">
<title>Node19&#45;&gt;Node20</title>
<g id="a_edge33_Node000019_Node000020"><a xlink:title=" ">
<path fill="none" stroke="#63b8ff" d="M1021.24,-354.1C1005.38,-353.92 988.4,-353.74 972.42,-353.56"/>
<polygon fill="#63b8ff" stroke="#63b8ff" points="1021,-357.59 1031.04,-354.2 1021.08,-350.59 1021,-357.59"/>
</a>
</g>
</g>
<!-- Node20&#45;&gt;Node2 -->
<g id="edge34_Node000020_Node000002" class="edge">
<title>Node20&#45;&gt;Node2</title>
<g id="a_edge34_Node000020_Node000002"><a xlink:title=" ">
<path fill="none" stroke="#63b8ff" d="M822.34,-370.06C810.59,-372.43 798.62,-374.76 787.25,-376.81 662.6,-399.36 615.19,-356.46 505.5,-419.81 483.32,-432.62 489.14,-448.38 469.5,-464.81 459.11,-473.51 446.41,-481.12 434.7,-487.19"/>
<polygon fill="#63b8ff" stroke="#63b8ff" points="822.93,-373.51 832.02,-368.07 821.52,-366.65 822.93,-373.51"/>
</a>
</g>
</g>
<!-- Node21 -->
<g id="Node000021" class="node">
<title>Node21</title>
<g id="a_Node000021"><a xlink:href="namespacetensorium___r_g_1_1bssn.html#a6f30410d0e983cf74dc0855581c2c39e" target="_top" xlink:title="Convenience wrapper that produces &#160;from the metric and stores the negative divergence as required by ...">
<polygon fill="white" stroke="#666666" points="778.25,-319.69 667.75,-319.69 667.75,-277.94 778.25,-277.94 778.25,-319.69"/>
<text xml:space="preserve" text-anchor="start" x="675.75" y="-306.19" font-family="Helvetica,sans-Serif" font-size="10.00">tensorium_RG::bssn</text>
<text xml:space="preserve" text-anchor="start" x="675.75" y="-294.94" font-family="Helvetica,sans-Serif" font-size="10.00">::compute_contracted</text>
<text xml:space="preserve" text-anchor="middle" x="723" y="-283.69" font-family="Helvetica,sans-Serif" font-size="10.00">_gamma_from_metric</text>
</a>
</g>
</g>
<!-- Node20&#45;&gt;Node21 -->
<g id="edge35_Node000020_Node000021" class="edge">
<title>Node20&#45;&gt;Node21</title>
<g id="a_edge35_Node000020_Node000021"><a xlink:title=" ">
<path fill="none" stroke="#63b8ff" d="M839.64,-333.92C819.8,-327.9 798.01,-321.28 778.75,-315.43"/>
<polygon fill="#63b8ff" stroke="#63b8ff" points="838.39,-337.2 848.98,-336.75 840.43,-330.5 838.39,-337.2"/>
</a>
</g>
</g>
<!-- Node22 -->
<g id="Node000022" class="node">
<title>Node22</title>
<g id="a_Node000022"><a xlink:href="namespacetensorium___r_g_1_1bssn.html#a1467fe6bd5dc5bd39c2f06041356faa4" target="_top" xlink:title="Measure det, trace, metric&#45;identity, Gamma&#45;constraint, and minimum&#45; &#160;over the grid.">
<polygon fill="white" stroke="#666666" points="787.25,-368.06 658.75,-368.06 658.75,-337.56 787.25,-337.56 787.25,-368.06"/>
<text xml:space="preserve" text-anchor="start" x="666.75" y="-354.56" font-family="Helvetica,sans-Serif" font-size="10.00">tensorium_RG::bssn</text>
<text xml:space="preserve" text-anchor="middle" x="723" y="-343.31" font-family="Helvetica,sans-Serif" font-size="10.00">::compute_invariant_stats</text>
</a>
</g>
</g>
<!-- Node20&#45;&gt;Node22 -->
<g id="edge36_Node000020_Node000022" class="edge">
<title>Node20&#45;&gt;Node22</title>
<g id="a_edge36_Node000020_Node000022"><a xlink:title=" ">
<path fill="none" stroke="#63b8ff" d="M821.93,-352.81C810.4,-352.81 798.67,-352.81 787.52,-352.81"/>
<polygon fill="#63b8ff" stroke="#63b8ff" points="821.84,-356.31 831.84,-352.81 821.84,-349.31 821.84,-356.31"/>
</a>
</g>
</g>
<!-- Node26 -->
<g id="Node000026" class="node">
<title>Node26</title>
<g id="a_Node000026"><a xlink:href="namespacetensorium___r_g_1_1bssn.html#a551a841476db3f7665a53043c46349c2" target="_top" xlink:title="Refresh the evolved &#160;from the metric inverse divergence.">
<polygon fill="white" stroke="#666666" points="622.75,-280.69 505.5,-280.69 505.5,-238.94 622.75,-238.94 622.75,-280.69"/>
<text xml:space="preserve" text-anchor="start" x="513.5" y="-267.19" font-family="Helvetica,sans-Serif" font-size="10.00">tensorium_RG::bssn</text>
<text xml:space="preserve" text-anchor="start" x="513.5" y="-255.94" font-family="Helvetica,sans-Serif" font-size="10.00">::compute_tildeGamma</text>
<text xml:space="preserve" text-anchor="middle" x="564.12" y="-244.69" font-family="Helvetica,sans-Serif" font-size="10.00">_contracted</text>
</a>
</g>
</g>
<!-- Node20&#45;&gt;Node26 -->
<g id="edge47_Node000020_Node000026" class="edge">
<title>Node20&#45;&gt;Node26</title>
<g id="a_edge47_Node000020_Node000026"><a xlink:title=" ">
<path fill="none" stroke="#63b8ff" d="M878.78,-329.33C857.22,-309.14 823.07,-281.34 787.25,-268.81 733.88,-250.15 668.85,-249.9 622.98,-253.1"/>
<polygon fill="#63b8ff" stroke="#63b8ff" points="876.23,-331.73 885.86,-336.14 881.08,-326.68 876.23,-331.73"/>
</a>
</g>
</g>
<!-- Node23 -->
<g id="Node000023" class="node">
<title>Node23</title>
<g id="a_Node000023"><a xlink:href="namespacetensorium___r_g_1_1bssn.html#a882854a29de4e6552fccc878e016fe8d" target="_top" xlink:title="Compare measured invariants against tolerances and throw/log when drifts exceed bounds.">
<polygon fill="white" stroke="#666666" points="617.12,-368.06 511.12,-368.06 511.12,-337.56 617.12,-337.56 617.12,-368.06"/>
<text xml:space="preserve" text-anchor="start" x="519.12" y="-354.56" font-family="Helvetica,sans-Serif" font-size="10.00">tensorium_RG::bssn</text>
<text xml:space="preserve" text-anchor="middle" x="564.12" y="-343.31" font-family="Helvetica,sans-Serif" font-size="10.00">::assert_invariants</text>
</a>
</g>
</g>
<!-- Node22&#45;&gt;Node23 -->
<g id="edge37_Node000022_Node000023" class="edge">
<title>Node22&#45;&gt;Node23</title>
<g id="a_edge37_Node000022_Node000023"><a xlink:title=" ">
<path fill="none" stroke="#63b8ff" d="M647.24,-352.81C637.07,-352.81 626.82,-352.81 617.17,-352.81"/>
<polygon fill="#63b8ff" stroke="#63b8ff" points="647.13,-356.31 657.13,-352.81 647.13,-349.31 647.13,-356.31"/>
</a>
</g>
</g>
<!-- Node23&#45;&gt;Node2 -->
<g id="edge41_Node000023_Node000002" class="edge">
<title>Node23&#45;&gt;Node2</title>
<g id="a_edge41_Node000023_Node000002"><a xlink:title=" ">
<path fill="none" stroke="#63b8ff" d="M512.85,-375C510.21,-377.1 507.73,-379.37 505.5,-381.81 475.93,-414.27 500.24,-442.46 469.5,-473.81 464.25,-479.17 457.87,-483.58 451.12,-487.19"/>
<polygon fill="#63b8ff" stroke="#63b8ff" points="514.82,-377.9 521.1,-369.37 510.87,-372.12 514.82,-377.9"/>
</a>
</g>
</g>
<!-- Node23&#45;&gt;Node3 -->
<g id="edge40_Node000023_Node000003" class="edge">
<title>Node23&#45;&gt;Node3</title>
<g id="a_edge40_Node000023_Node000003"><a xlink:title=" ">
<path fill="none" stroke="#63b8ff" d="M514.9,-374.38C511.57,-376.68 508.39,-379.15 505.5,-381.81 482.91,-402.63 496.29,-425.78 469.5,-440.81 414.47,-471.7 385.6,-465.46 327.5,-440.81 287.35,-423.78 255.34,-382.24 238.65,-356.81"/>
<polygon fill="#63b8ff" stroke="#63b8ff" points="516.63,-377.43 523.31,-369.21 512.96,-371.47 516.63,-377.43"/>
</a>
</g>
</g>
<!-- Node23&#45;&gt;Node4 -->
<g id="edge43_Node000023_Node000004" class="edge">
<title>Node23&#45;&gt;Node4</title>
<g id="a_edge43_Node000023_Node000004"><a xlink:title=" ">
<path fill="none" stroke="#63b8ff" d="M499.59,-346.18C451.58,-340.12 384.44,-329.36 327.5,-311.81 302.36,-304.07 275.28,-291.57 255.42,-281.55"/>
<polygon fill="#63b8ff" stroke="#63b8ff" points="498.9,-349.63 509.25,-347.37 499.76,-342.68 498.9,-349.63"/>
</a>
</g>
</g>
<!-- Node23&#45;&gt;Node6 -->
<g id="edge44_Node000023_Node000006" class="edge">
<title>Node23&#45;&gt;Node6</title>
<g id="a_edge44_Node000023_Node000006"><a xlink:title=" ">
<path fill="none" stroke="#63b8ff" d="M517.89,-332.59C502.58,-325.85 485.34,-318.4 469.5,-311.81 391,-279.2 370.77,-272.53 291.5,-241.81 283.67,-238.78 275.3,-235.56 267.25,-232.49"/>
<polygon fill="#63b8ff" stroke="#63b8ff" points="516.19,-335.67 526.75,-336.5 519.02,-329.26 516.19,-335.67"/>
</a>
</g>
</g>
<!-- Node23&#45;&gt;Node14 -->
<g id="edge42_Node000023_Node000014" class="edge">
<title>Node23&#45;&gt;Node14</title>
<g id="a_edge42_Node000023_Node000014"><a xlink:title=" ">
<path fill="none" stroke="#63b8ff" d="M535.58,-329.92C502.27,-302.23 447.1,-256.37 418.3,-232.44"/>
<polygon fill="#63b8ff" stroke="#63b8ff" points="533.26,-332.54 543.19,-336.25 537.74,-327.16 533.26,-332.54"/>
</a>
</g>
</g>
<!-- Node23&#45;&gt;Node15 -->
<g id="edge39_Node000023_Node000015" class="edge">
<title>Node23&#45;&gt;Node15</title>
<g id="a_edge39_Node000023_Node000015"><a xlink:title=" ">
<path fill="none" stroke="#63b8ff" d="M535.91,-329.38C524.85,-318.44 512.95,-304.58 505.5,-289.81 468.14,-215.82 531.42,-161.92 469.5,-106.81 417.79,-60.8 333.01,-65.74 278.36,-75.37"/>
<polygon fill="#63b8ff" stroke="#63b8ff" points="533.35,-331.77 543.01,-336.1 538.16,-326.68 533.35,-331.77"/>
</a>
</g>
</g>
<!-- Node24 -->
<g id="Node000024" class="node">
<title>Node24</title>
<g id="a_Node000024"><a xlink:href="namespacetensorium___r_g_1_1bssn.html#ad94d47dae5726904e3444218b3ff8eef" target="_top" xlink:title=" ">
<polygon fill="white" stroke="#666666" points="451.5,-432.06 345.5,-432.06 345.5,-401.56 451.5,-401.56 451.5,-432.06"/>
<text xml:space="preserve" text-anchor="start" x="353.5" y="-418.56" font-family="Helvetica,sans-Serif" font-size="10.00">tensorium_RG::bssn</text>
<text xml:space="preserve" text-anchor="middle" x="398.5" y="-407.31" font-family="Helvetica,sans-Serif" font-size="10.00">::assert_invariants</text>
</a>
</g>
</g>
<!-- Node23&#45;&gt;Node24 -->
<g id="edge38_Node000023_Node000024" class="edge">
<title>Node23&#45;&gt;Node24</title>
<g id="a_edge38_Node000023_Node000024"><a xlink:title=" ">
<path fill="none" stroke="#63b8ff" d="M512.64,-372.56C489.19,-381.73 461.69,-392.49 439.68,-401.1"/>
<polygon fill="#63b8ff" stroke="#63b8ff" points="513.65,-375.92 521.69,-369.02 511.1,-369.4 513.65,-375.92"/>
</a>
</g>
</g>
<!-- Node25 -->
<g id="Node000025" class="node">
<title>Node25</title>
<g id="a_Node000025"><a xlink:href="namespacetensorium___r_g_1_1init.html#a6dc697a087b5aca2c323183a66e6d23a" target="_top" xlink:title="Solve the Lichnerowicz equation &#160;via red&#45;black SOR.">
<polygon fill="white" stroke="#666666" points="469.5,-60.06 327.5,-60.06 327.5,-29.56 469.5,-29.56 469.5,-60.06"/>
<text xml:space="preserve" text-anchor="start" x="335.5" y="-46.56" font-family="Helvetica,sans-Serif" font-size="10.00">tensorium_RG::init</text>
<text xml:space="preserve" text-anchor="middle" x="398.5" y="-35.31" font-family="Helvetica,sans-Serif" font-size="10.00">::solve_lichnerowicz_u_SOR</text>
</a>
</g>
</g>
<!-- Node23&#45;&gt;Node25 -->
<g id="edge45_Node000023_Node000025" class="edge">
<title>Node23&#45;&gt;Node25</title>
<g id="a_edge45_Node000023_Node000025"><a xlink:title=" ">
<path fill="none" stroke="#63b8ff" d="M535.7,-329.48C524.61,-318.56 512.74,-304.68 505.5,-289.81 462.9,-202.31 530.06,-150 469.5,-73.81 465.24,-68.46 459.83,-64.08 453.9,-60.51"/>
<polygon fill="#63b8ff" stroke="#63b8ff" points="533.16,-331.89 542.84,-336.19 537.95,-326.79 533.16,-331.89"/>
</a>
</g>
</g>
<!-- Node25&#45;&gt;Node15 -->
<g id="edge46_Node000025_Node000015" class="edge">
<title>Node25&#45;&gt;Node15</title>
<g id="a_edge46_Node000025_Node000015"><a xlink:title=" ">
<path fill="none" stroke="#63b8ff" d="M324.06,-63.23C308.73,-67.07 292.86,-71.05 278.48,-74.66"/>
<polygon fill="#63b8ff" stroke="#63b8ff" points="324.78,-66.65 333.63,-60.83 323.08,-59.86 324.78,-66.65"/>
</a>
</g>
</g>
<!-- Node26&#45;&gt;Node3 -->
<g id="edge49_Node000026_Node000003" class="edge">
<title>Node26&#45;&gt;Node3</title>
<g id="a_edge49_Node000026_Node000003"><a xlink:title=" ">
<path fill="none" stroke="#63b8ff" d="M494.28,-275.33C432.06,-289.36 341.53,-309.77 283.2,-322.92"/>
<polygon fill="#63b8ff" stroke="#63b8ff" points="494.71,-278.82 503.69,-273.21 493.17,-272 494.71,-278.82"/>
</a>
</g>
</g>
<!-- Node26&#45;&gt;Node4 -->
<g id="edge50_Node000026_Node000004" class="edge">
<title>Node26&#45;&gt;Node4</title>
<g id="a_edge50_Node000026_Node000004"><a xlink:title=" ">
<path fill="none" stroke="#63b8ff" d="M493.72,-261.05C428.21,-262.21 331.69,-263.93 274.2,-264.96"/>
<polygon fill="#63b8ff" stroke="#63b8ff" points="493.72,-264.55 503.66,-260.87 493.6,-257.55 493.72,-264.55"/>
</a>
</g>
</g>
<!-- Node26&#45;&gt;Node6 -->
<g id="edge51_Node000026_Node000006" class="edge">
<title>Node26&#45;&gt;Node6</title>
<g id="a_edge51_Node000026_Node000006"><a xlink:title=" ">
<path fill="none" stroke="#63b8ff" d="M533.43,-231.2C516.23,-216.65 493.32,-200.46 469.5,-192.81 403.77,-171.72 323.38,-187.07 273.42,-201.11"/>
<polygon fill="#63b8ff" stroke="#63b8ff" points="530.91,-233.64 540.74,-237.6 535.52,-228.38 530.91,-233.64"/>
</a>
</g>
</g>
<!-- Node26&#45;&gt;Node15 -->
<g id="edge48_Node000026_Node000015" class="edge">
<title>Node26&#45;&gt;Node15</title>
<g id="a_edge48_Node000026_Node000015"><a xlink:title=" ">
<path fill="none" stroke="#63b8ff" d="M561.38,-227.21C556.54,-173.51 538.29,-67.75 469.5,-20.81 417.37,14.75 387.94,-2.66 327.5,-20.81 297.77,-29.74 268.72,-50.51 249.37,-66.57"/>
<polygon fill="#63b8ff" stroke="#63b8ff" points="557.87,-227.25 562.14,-236.94 564.85,-226.7 557.87,-227.25"/>
</a>
</g>
</g>
<!-- Node26&#45;&gt;Node25 -->
<g id="edge52_Node000026_Node000025" class="edge">
<title>Node26&#45;&gt;Node25</title>
<g id="a_edge52_Node000026_Node000025"><a xlink:title=" ">
<path fill="none" stroke="#63b8ff" d="M554.59,-227.8C542.2,-186.97 515.52,-116.57 469.5,-73.81 463.81,-68.53 457.03,-64.14 449.96,-60.52"/>
<polygon fill="#63b8ff" stroke="#63b8ff" points="551.2,-228.65 557.36,-237.27 557.92,-226.69 551.2,-228.65"/>
</a>
</g>
</g>
</g>
</svg>
