<?xml version="1.0" encoding="UTF-8" standalone="no"?>
<!DOCTYPE svg PUBLIC "-//W3C//DTD SVG 1.1//EN"
 "http://www.w3.org/Graphics/SVG/1.1/DTD/svg11.dtd">
<!-- Generated by graphviz version 10.0.1 (0)
 -->
<!-- Title: includes/Tensorium/Core/Derivate.hpp Pages: 1 -->
<svg width="1476pt" height="325pt"
 viewBox="0.00 0.00 1476.38 325.25" xmlns="http://www.w3.org/2000/svg" xmlns:xlink="http://www.w3.org/1999/xlink">
<g id="graph0" class="graph" transform="scale(1 1) rotate(0) translate(4 321.25)">
<title>includes/Tensorium/Core/Derivate.hpp</title>
<!-- Node1 -->
<g id="Node000001" class="node">
<title>Node1</title>
<g id="a_Node000001"><a xlink:title="Numerical differentiation operators using SIMD.">
<polygon fill="#999999" stroke="#666666" points="877.38,-317.25 767.62,-317.25 767.62,-283.75 877.38,-283.75 877.38,-317.25"/>
<text text-anchor="start" x="775.62" y="-303.75" font-family="Helvetica,sans-Serif" font-size="10.00">includes/Tensorium</text>
<text text-anchor="middle" x="822.5" y="-291" font-family="Helvetica,sans-Serif" font-size="10.00">/Core/Derivate.hpp</text>
</a>
</g>
</g>
<!-- Node2 -->
<g id="Node000002" class="node">
<title>Node2</title>
<g id="a_Node000002"><a xlink:title=" ">
<polygon fill="#e0e0e0" stroke="#999999" points="585.25,-20.75 525.75,-20.75 525.75,0 585.25,0 585.25,-20.75"/>
<text text-anchor="middle" x="555.5" y="-7.25" font-family="Helvetica,sans-Serif" font-size="10.00">iostream</text>
</a>
</g>
</g>
<!-- Node1&#45;&gt;Node2 -->
<g id="edge1_Node000001_Node000002" class="edge">
<title>Node1&#45;&gt;Node2</title>
<g id="a_edge1_Node000001_Node000002"><a xlink:title=" ">
<path fill="none" stroke="#63b8ff" d="M767.25,-298.01C644.49,-294.13 352.61,-281.53 260.5,-247.75 171.37,-215.07 150.37,-170.54 131.5,-77.5 129.67,-68.46 125.34,-63.61 131.5,-56.75 144.22,-42.6 409.93,-21.92 514.11,-14.32"/>
<polygon fill="#63b8ff" stroke="#63b8ff" points="514.18,-17.82 523.9,-13.61 513.68,-10.84 514.18,-17.82"/>
</a>
</g>
</g>
<!-- Node3 -->
<g id="Node000003" class="node">
<title>Node3</title>
<g id="a_Node000003"><a xlink:title=" ">
<polygon fill="#e0e0e0" stroke="#999999" points="705.88,-77.5 659.12,-77.5 659.12,-56.75 705.88,-56.75 705.88,-77.5"/>
<text text-anchor="middle" x="682.5" y="-64" font-family="Helvetica,sans-Serif" font-size="10.00">cmath</text>
</a>
</g>
</g>
<!-- Node1&#45;&gt;Node3 -->
<g id="edge2_Node000001_Node000003" class="edge">
<title>Node1&#45;&gt;Node3</title>
<g id="a_edge2_Node000001_Node000003"><a xlink:title=" ">
<path fill="none" stroke="#63b8ff" d="M877.82,-296.42C1026.12,-286.33 1413.2,-246.79 1289.5,-113.5 1269.91,-92.4 843.64,-74.33 717.41,-69.43"/>
<polygon fill="#63b8ff" stroke="#63b8ff" points="717.8,-65.95 707.67,-69.06 717.53,-72.94 717.8,-65.95"/>
</a>
</g>
</g>
<!-- Node4 -->
<g id="Node000004" class="node">
<title>Node4</title>
<g id="a_Node000004"><a xlink:title=" ">
<polygon fill="#e0e0e0" stroke="#999999" points="803.88,-20.75 757.12,-20.75 757.12,0 803.88,0 803.88,-20.75"/>
<text text-anchor="middle" x="780.5" y="-7.25" font-family="Helvetica,sans-Serif" font-size="10.00">vector</text>
</a>
</g>
</g>
<!-- Node1&#45;&gt;Node4 -->
<g id="edge3_Node000001_Node000004" class="edge">
<title>Node1&#45;&gt;Node4</title>
<g id="a_edge3_Node000001_Node000004"><a xlink:title=" ">
<path fill="none" stroke="#63b8ff" d="M877.67,-299.53C1019.27,-298.11 1384.5,-284.5 1384.5,-181.62 1384.5,-181.62 1384.5,-181.62 1384.5,-122.88 1384.5,-43.05 1295.04,-75.74 1217.5,-56.75 1071.18,-20.91 890.52,-13.36 815.6,-11.79"/>
<polygon fill="#63b8ff" stroke="#63b8ff" points="815.67,-8.29 805.61,-11.6 815.54,-15.28 815.67,-8.29"/>
</a>
</g>
</g>
<!-- Node5 -->
<g id="Node000005" class="node">
<title>Node5</title>
<g id="a_Node000005"><a xlink:title=" ">
<polygon fill="#e0e0e0" stroke="#999999" points="73,-20.75 0,-20.75 0,0 73,0 73,-20.75"/>
<text text-anchor="middle" x="36.5" y="-7.25" font-family="Helvetica,sans-Serif" font-size="10.00">immintrin.h</text>
</a>
</g>
</g>
<!-- Node1&#45;&gt;Node5 -->
<g id="edge4_Node000001_Node000005" class="edge">
<title>Node1&#45;&gt;Node5</title>
<g id="a_edge4_Node000001_Node000005"><a xlink:title=" ">
<path fill="none" stroke="#63b8ff" d="M767.47,-299.85C659.6,-299.44 413.37,-293.09 212.5,-247.75 130.99,-229.35 36.5,-265.19 36.5,-181.62 36.5,-181.62 36.5,-181.62 36.5,-122.88 36.5,-91.48 36.5,-55.12 36.5,-32.68"/>
<polygon fill="#63b8ff" stroke="#63b8ff" points="40,-32.73 36.5,-22.73 33,-32.73 40,-32.73"/>
</a>
</g>
</g>
<!-- Node6 -->
<g id="Node000006" class="node">
<title>Node6</title>
<g id="a_Node000006"><a xlink:href="Matrix_8hpp.html" target="_top" xlink:title=" ">
<polygon fill="white" stroke="#666666" points="590.75,-247.75 522.25,-247.75 522.25,-227 590.75,-227 590.75,-247.75"/>
<text text-anchor="middle" x="556.5" y="-234.25" font-family="Helvetica,sans-Serif" font-size="10.00">Matrix.hpp</text>
</a>
</g>
</g>
<!-- Node1&#45;&gt;Node6 -->
<g id="edge5_Node000001_Node000006" class="edge">
<title>Node1&#45;&gt;Node6</title>
<g id="a_edge5_Node000001_Node000006"><a xlink:title=" ">
<path fill="none" stroke="#63b8ff" d="M767.38,-286.83C718.57,-275.62 648.13,-259.43 602.33,-248.91"/>
<polygon fill="#63b8ff" stroke="#63b8ff" points="603.25,-245.53 592.72,-246.7 601.69,-252.35 603.25,-245.53"/>
</a>
</g>
</g>
<!-- Node7 -->
<g id="Node000007" class="node">
<title>Node7</title>
<g id="a_Node000007"><a xlink:title=" ">
<polygon fill="#e0e0e0" stroke="#999999" points="837.12,-134.25 785.88,-134.25 785.88,-113.5 837.12,-113.5 837.12,-134.25"/>
<text text-anchor="middle" x="811.5" y="-120.75" font-family="Helvetica,sans-Serif" font-size="10.00">cassert</text>
</a>
</g>
</g>
<!-- Node1&#45;&gt;Node7 -->
<g id="edge55_Node000001_Node000007" class="edge">
<title>Node1&#45;&gt;Node7</title>
<g id="a_edge55_Node000001_Node000007"><a xlink:title=" ">
<path fill="none" stroke="#63b8ff" d="M821.48,-283.38C819.49,-251.65 815.04,-181.09 812.82,-145.81"/>
<polygon fill="#63b8ff" stroke="#63b8ff" points="816.33,-145.81 812.2,-136.05 809.34,-146.25 816.33,-145.81"/>
</a>
</g>
</g>
<!-- Node8 -->
<g id="Node000008" class="node">
<title>Node8</title>
<g id="a_Node000008"><a xlink:href="SIMD_8hpp.html" target="_top" xlink:title=" ">
<polygon fill="white" stroke="#666666" points="240.5,-77.5 140.5,-77.5 140.5,-56.75 240.5,-56.75 240.5,-77.5"/>
<text text-anchor="middle" x="190.5" y="-64" font-family="Helvetica,sans-Serif" font-size="10.00">../SIMD/SIMD.hpp</text>
</a>
</g>
</g>
<!-- Node1&#45;&gt;Node8 -->
<g id="edge52_Node000001_Node000008" class="edge">
<title>Node1&#45;&gt;Node8</title>
<g id="a_edge52_Node000001_Node000008"><a xlink:title=" ">
<path fill="none" stroke="#63b8ff" d="M767.36,-297.57C630.1,-291.63 278.29,-268.95 196.5,-191 169.16,-164.94 176.73,-116.26 184.02,-88.63"/>
<polygon fill="#63b8ff" stroke="#63b8ff" points="187.29,-89.93 186.71,-79.35 180.57,-87.98 187.29,-89.93"/>
</a>
</g>
</g>
<!-- Node14 -->
<g id="Node000014" class="node">
<title>Node14</title>
<g id="a_Node000014"><a xlink:href="CPU__id_8hpp.html" target="_top" xlink:title=" ">
<polygon fill="white" stroke="#666666" points="1041,-134.25 932,-134.25 932,-113.5 1041,-113.5 1041,-134.25"/>
<text text-anchor="middle" x="986.5" y="-120.75" font-family="Helvetica,sans-Serif" font-size="10.00">../SIMD/CPU_id.hpp</text>
</a>
</g>
</g>
<!-- Node1&#45;&gt;Node14 -->
<g id="edge53_Node000001_Node000014" class="edge">
<title>Node1&#45;&gt;Node14</title>
<g id="a_edge53_Node000001_Node000014"><a xlink:title=" ">
<path fill="none" stroke="#63b8ff" d="M837.37,-283.55C860.17,-259.12 905.14,-210.97 943.5,-170.25 952.02,-161.2 961.53,-151.16 969.43,-142.83"/>
<polygon fill="#63b8ff" stroke="#63b8ff" points="971.87,-145.35 976.21,-135.69 966.79,-140.53 971.87,-145.35"/>
</a>
</g>
</g>
<!-- Node17 -->
<g id="Node000017" class="node">
<title>Node17</title>
<g id="a_Node000017"><a xlink:href="Allocator_8hpp.html" target="_top" xlink:title=" ">
<polygon fill="white" stroke="#666666" points="615.12,-134.25 497.88,-134.25 497.88,-113.5 615.12,-113.5 615.12,-134.25"/>
<text text-anchor="middle" x="556.5" y="-120.75" font-family="Helvetica,sans-Serif" font-size="10.00">../SIMD/Allocator.hpp</text>
</a>
</g>
</g>
<!-- Node1&#45;&gt;Node17 -->
<g id="edge54_Node000001_Node000017" class="edge">
<title>Node1&#45;&gt;Node17</title>
<g id="a_edge54_Node000001_Node000017"><a xlink:title=" ">
<path fill="none" stroke="#63b8ff" d="M797.95,-283.38C747.3,-250.13 631.69,-174.24 581.04,-140.99"/>
<polygon fill="#63b8ff" stroke="#63b8ff" points="583.09,-138.14 572.8,-135.58 579.24,-143.99 583.09,-138.14"/>
</a>
</g>
</g>
<!-- Node18 -->
<g id="Node000018" class="node">
<title>Node18</title>
<g id="a_Node000018"><a xlink:href="Vector_8hpp.html" target="_top" xlink:title=" ">
<polygon fill="white" stroke="#666666" points="753,-191 686,-191 686,-170.25 753,-170.25 753,-191"/>
<text text-anchor="middle" x="719.5" y="-177.5" font-family="Helvetica,sans-Serif" font-size="10.00">Vector.hpp</text>
</a>
</g>
</g>
<!-- Node1&#45;&gt;Node18 -->
<g id="edge51_Node000001_Node000018" class="edge">
<title>Node1&#45;&gt;Node18</title>
<g id="a_edge51_Node000001_Node000018"><a xlink:title=" ">
<path fill="none" stroke="#63b8ff" d="M808.61,-283.6C789.59,-261.84 755.54,-222.87 735.49,-199.92"/>
<polygon fill="#63b8ff" stroke="#63b8ff" points="738.28,-197.8 729.07,-192.57 733.01,-202.41 738.28,-197.8"/>
</a>
</g>
</g>
<!-- Node20 -->
<g id="Node000020" class="node">
<title>Node20</title>
<g id="a_Node000020"><a xlink:href="Tensor_8hpp.html" target="_top" xlink:title=" ">
<polygon fill="white" stroke="#666666" points="1020.38,-191 952.62,-191 952.62,-170.25 1020.38,-170.25 1020.38,-191"/>
<text text-anchor="middle" x="986.5" y="-177.5" font-family="Helvetica,sans-Serif" font-size="10.00">Tensor.hpp</text>
</a>
</g>
</g>
<!-- Node1&#45;&gt;Node20 -->
<g id="edge40_Node000001_Node000020" class="edge">
<title>Node1&#45;&gt;Node20</title>
<g id="a_edge40_Node000001_Node000020"><a xlink:title=" ">
<path fill="none" stroke="#63b8ff" d="M862.14,-283.31C881.83,-274.31 905.44,-262.05 924.5,-247.75 942.91,-233.94 960.52,-214.33 972.24,-200.05"/>
<polygon fill="#63b8ff" stroke="#63b8ff" points="974.89,-202.33 978.4,-192.34 969.42,-197.97 974.89,-202.33"/>
</a>
</g>
</g>
<!-- Node24 -->
<g id="Node000024" class="node">
<title>Node24</title>
<g id="a_Node000024"><a xlink:title=" ">
<polygon fill="#e0e0e0" stroke="#999999" points="1468.38,-247.75 1412.62,-247.75 1412.62,-227 1468.38,-227 1468.38,-247.75"/>
<text text-anchor="middle" x="1440.5" y="-234.25" font-family="Helvetica,sans-Serif" font-size="10.00">numeric</text>
</a>
</g>
</g>
<!-- Node1&#45;&gt;Node24 -->
<g id="edge56_Node000001_Node000024" class="edge">
<title>Node1&#45;&gt;Node24</title>
<g id="a_edge56_Node000001_Node000024"><a xlink:title=" ">
<path fill="none" stroke="#63b8ff" d="M877.59,-296.94C980.45,-291.63 1208.52,-277.36 1398.5,-247.75 1399.33,-247.62 1400.17,-247.48 1401.01,-247.34"/>
<polygon fill="#63b8ff" stroke="#63b8ff" points="1401.47,-250.82 1410.64,-245.51 1400.16,-243.94 1401.47,-250.82"/>
</a>
</g>
</g>
<!-- Node6&#45;&gt;Node2 -->
<g id="edge6_Node000006_Node000002" class="edge">
<title>Node6&#45;&gt;Node2</title>
<g id="a_edge6_Node000006_Node000002"><a xlink:title=" ">
<path fill="none" stroke="#63b8ff" d="M521.96,-236.62C449.63,-236.33 286.11,-231.14 251.5,-191 210.76,-143.75 239.58,-89.78 292.5,-56.75 328.76,-34.12 449.38,-20.54 513.91,-14.72"/>
<polygon fill="#63b8ff" stroke="#63b8ff" points="514.12,-18.21 523.77,-13.85 513.5,-11.24 514.12,-18.21"/>
</a>
</g>
</g>
<!-- Node6&#45;&gt;Node3 -->
<g id="edge7_Node000006_Node000003" class="edge">
<title>Node6&#45;&gt;Node3</title>
<g id="a_edge7_Node000006_Node000003"><a xlink:title=" ">
<path fill="none" stroke="#63b8ff" d="M563.64,-226.85C583.81,-199.91 641.55,-122.81 668.42,-86.92"/>
<polygon fill="#63b8ff" stroke="#63b8ff" points="671.03,-89.28 674.22,-79.18 665.43,-85.09 671.03,-89.28"/>
</a>
</g>
</g>
<!-- Node6&#45;&gt;Node4 -->
<g id="edge8_Node000006_Node000004" class="edge">
<title>Node6&#45;&gt;Node4</title>
<g id="a_edge8_Node000006_Node000004"><a xlink:title=" ">
<path fill="none" stroke="#63b8ff" d="M522.03,-233.64C434.81,-225.46 216.98,-196.34 284.5,-113.5 299.34,-95.29 635.07,-36.31 745.58,-17.32"/>
<polygon fill="#63b8ff" stroke="#63b8ff" points="745.98,-20.81 755.25,-15.67 744.8,-13.91 745.98,-20.81"/>
</a>
</g>
</g>
<!-- Node6&#45;&gt;Node5 -->
<g id="edge9_Node000006_Node000005" class="edge">
<title>Node6&#45;&gt;Node5</title>
<g id="a_edge9_Node000006_Node000005"><a xlink:title=" ">
<path fill="none" stroke="#63b8ff" d="M521.84,-235.09C442.98,-231.66 252.6,-220.51 196.5,-191 124.51,-153.13 69.45,-68.91 47.22,-30.79"/>
<polygon fill="#63b8ff" stroke="#63b8ff" points="50.36,-29.21 42.37,-22.25 44.27,-32.67 50.36,-29.21"/>
</a>
</g>
</g>
<!-- Node6&#45;&gt;Node7 -->
<g id="edge10_Node000006_Node000007" class="edge">
<title>Node6&#45;&gt;Node7</title>
<g id="a_edge10_Node000006_Node000007"><a xlink:title=" ">
<path fill="none" stroke="#63b8ff" d="M591.03,-236.01C634.38,-234.01 709.48,-225.35 762.5,-191 780.06,-179.62 793.57,-159.62 801.91,-144.59"/>
<polygon fill="#63b8ff" stroke="#63b8ff" points="804.84,-146.54 806.36,-136.05 798.63,-143.3 804.84,-146.54"/>
</a>
</g>
</g>
<!-- Node6&#45;&gt;Node8 -->
<g id="edge11_Node000006_Node000008" class="edge">
<title>Node6&#45;&gt;Node8</title>
<g id="a_edge11_Node000006_Node000008"><a xlink:title=" ">
<path fill="none" stroke="#63b8ff" d="M521.87,-236.74C443.78,-236.82 257.31,-232.53 213.5,-191 185.9,-164.84 185.31,-116.91 187.68,-89.28"/>
<polygon fill="#63b8ff" stroke="#63b8ff" points="191.16,-89.67 188.77,-79.35 184.2,-88.91 191.16,-89.67"/>
</a>
</g>
</g>
<!-- Node6&#45;&gt;Node14 -->
<g id="edge20_Node000006_Node000014" class="edge">
<title>Node6&#45;&gt;Node14</title>
<g id="a_edge20_Node000006_Node000014"><a xlink:title=" ">
<path fill="none" stroke="#63b8ff" d="M591.09,-230.93C636.37,-223.5 718.01,-209 786.5,-191 844.25,-175.82 909.68,-153.11 949.51,-138.64"/>
<polygon fill="#63b8ff" stroke="#63b8ff" points="950.67,-141.95 958.86,-135.23 948.27,-135.37 950.67,-141.95"/>
</a>
</g>
</g>
<!-- Node6&#45;&gt;Node17 -->
<g id="edge25_Node000006_Node000017" class="edge">
<title>Node6&#45;&gt;Node17</title>
<g id="a_edge25_Node000006_Node000017"><a xlink:title=" ">
<path fill="none" stroke="#63b8ff" d="M556.5,-226.87C556.5,-209.1 556.5,-170.47 556.5,-146.18"/>
<polygon fill="#63b8ff" stroke="#63b8ff" points="560,-146.19 556.5,-136.19 553,-146.19 560,-146.19"/>
</a>
</g>
</g>
<!-- Node6&#45;&gt;Node18 -->
<g id="edge30_Node000006_Node000018" class="edge">
<title>Node6&#45;&gt;Node18</title>
<g id="a_edge30_Node000006_Node000018"><a xlink:title=" ">
<path fill="none" stroke="#63b8ff" d="M585.64,-226.59C611.87,-217.78 650.64,-204.75 679.71,-194.99"/>
<polygon fill="#63b8ff" stroke="#63b8ff" points="680.54,-198.4 688.9,-191.9 678.31,-191.77 680.54,-198.4"/>
</a>
</g>
</g>
<!-- Node19 -->
<g id="Node000019" class="node">
<title>Node19</title>
<g id="a_Node000019"><a xlink:href="MathsUtils_8hpp.html" target="_top" xlink:title=" ">
<polygon fill="white" stroke="#666666" points="441.88,-134.25 293.12,-134.25 293.12,-113.5 441.88,-113.5 441.88,-134.25"/>
<text text-anchor="middle" x="367.5" y="-120.75" font-family="Helvetica,sans-Serif" font-size="10.00">../MathUtils/MathsUtils.hpp</text>
</a>
</g>
</g>
<!-- Node6&#45;&gt;Node19 -->
<g id="edge39_Node000006_Node000019" class="edge">
<title>Node6&#45;&gt;Node19</title>
<g id="a_edge39_Node000006_Node000019"><a xlink:title=" ">
<path fill="none" stroke="#63b8ff" d="M540.06,-226.68C507.25,-207.32 433.4,-163.75 393.78,-140.38"/>
<polygon fill="#63b8ff" stroke="#63b8ff" points="395.73,-137.47 385.34,-135.4 392.18,-143.5 395.73,-137.47"/>
</a>
</g>
</g>
<!-- Node8&#45;&gt;Node2 -->
<g id="edge19_Node000008_Node000002" class="edge">
<title>Node8&#45;&gt;Node2</title>
<g id="a_edge19_Node000008_Node000002"><a xlink:title=" ">
<path fill="none" stroke="#63b8ff" d="M240.87,-58.57C313.71,-47.64 447.07,-27.64 514.36,-17.55"/>
<polygon fill="#63b8ff" stroke="#63b8ff" points="514.48,-21.07 523.85,-16.12 513.44,-14.14 514.48,-21.07"/>
</a>
</g>
</g>
<!-- Node8&#45;&gt;Node4 -->
<g id="edge15_Node000008_Node000004" class="edge">
<title>Node8&#45;&gt;Node4</title>
<g id="a_edge15_Node000008_Node000004"><a xlink:title=" ">
<path fill="none" stroke="#63b8ff" d="M240.82,-61.42C257.29,-59.9 275.67,-58.23 292.5,-56.75 482.66,-40.01 530.97,-43.5 720.5,-20.75 728.68,-19.77 737.46,-18.51 745.71,-17.24"/>
<polygon fill="#63b8ff" stroke="#63b8ff" points="746.08,-20.73 755.41,-15.7 744.98,-13.81 746.08,-20.73"/>
</a>
</g>
</g>
<!-- Node8&#45;&gt;Node5 -->
<g id="edge12_Node000008_Node000005" class="edge">
<title>Node8&#45;&gt;Node5</title>
<g id="a_edge12_Node000008_Node000005"><a xlink:title=" ">
<path fill="none" stroke="#63b8ff" d="M162.97,-56.34C138.41,-47.61 102.2,-34.73 74.82,-25"/>
<polygon fill="#63b8ff" stroke="#63b8ff" points="76.07,-21.73 65.48,-21.68 73.73,-28.33 76.07,-21.73"/>
</a>
</g>
</g>
<!-- Node9 -->
<g id="Node000009" class="node">
<title>Node9</title>
<g id="a_Node000009"><a xlink:title=" ">
<polygon fill="#e0e0e0" stroke="#999999" points="377.5,-20.75 325.5,-20.75 325.5,0 377.5,0 377.5,-20.75"/>
<text text-anchor="middle" x="351.5" y="-7.25" font-family="Helvetica,sans-Serif" font-size="10.00">cstddef</text>
</a>
</g>
</g>
<!-- Node8&#45;&gt;Node9 -->
<g id="edge13_Node000008_Node000009" class="edge">
<title>Node8&#45;&gt;Node9</title>
<g id="a_edge13_Node000008_Node000009"><a xlink:title=" ">
<path fill="none" stroke="#63b8ff" d="M219.28,-56.34C245.91,-47.28 285.63,-33.78 314.58,-23.93"/>
<polygon fill="#63b8ff" stroke="#63b8ff" points="315.33,-27.37 323.67,-20.84 313.07,-20.75 315.33,-27.37"/>
</a>
</g>
</g>
<!-- Node10 -->
<g id="Node000010" class="node">
<title>Node10</title>
<g id="a_Node000010"><a xlink:title=" ">
<polygon fill="#e0e0e0" stroke="#999999" points="155.5,-20.75 91.5,-20.75 91.5,0 155.5,0 155.5,-20.75"/>
<text text-anchor="middle" x="123.5" y="-7.25" font-family="Helvetica,sans-Serif" font-size="10.00">stdexcept</text>
</a>
</g>
</g>
<!-- Node8&#45;&gt;Node10 -->
<g id="edge14_Node000008_Node000010" class="edge">
<title>Node8&#45;&gt;Node10</title>
<g id="a_edge14_Node000008_Node000010"><a xlink:title=" ">
<path fill="none" stroke="#63b8ff" d="M178.52,-56.34C168.99,-48.55 155.44,-37.47 144.17,-28.26"/>
<polygon fill="#63b8ff" stroke="#63b8ff" points="146.5,-25.65 136.55,-22.04 142.08,-31.07 146.5,-25.65"/>
</a>
</g>
</g>
<!-- Node11 -->
<g id="Node000011" class="node">
<title>Node11</title>
<g id="a_Node000011"><a xlink:title=" ">
<polygon fill="#e0e0e0" stroke="#999999" points="711.12,-20.75 659.88,-20.75 659.88,0 711.12,0 711.12,-20.75"/>
<text text-anchor="middle" x="685.5" y="-7.25" font-family="Helvetica,sans-Serif" font-size="10.00">cpuid.h</text>
</a>
</g>
</g>
<!-- Node8&#45;&gt;Node11 -->
<g id="edge16_Node000008_Node000011" class="edge">
<title>Node8&#45;&gt;Node11</title>
<g id="a_edge16_Node000008_Node000011"><a xlink:title=" ">
<path fill="none" stroke="#63b8ff" d="M240.69,-60.57C340.2,-49.57 560.49,-25.2 648.31,-15.49"/>
<polygon fill="#63b8ff" stroke="#63b8ff" points="648.5,-18.99 658.05,-14.41 647.73,-12.03 648.5,-18.99"/>
</a>
</g>
</g>
<!-- Node12 -->
<g id="Node000012" class="node">
<title>Node12</title>
<g id="a_Node000012"><a xlink:title=" ">
<polygon fill="#e0e0e0" stroke="#999999" points="231.12,-20.75 173.88,-20.75 173.88,0 231.12,0 231.12,-20.75"/>
<text text-anchor="middle" x="202.5" y="-7.25" font-family="Helvetica,sans-Serif" font-size="10.00">memory</text>
</a>
</g>
</g>
<!-- Node8&#45;&gt;Node12 -->
<g id="edge17_Node000008_Node000012" class="edge">
<title>Node8&#45;&gt;Node12</title>
<g id="a_edge17_Node000008_Node000012"><a xlink:title=" ">
<path fill="none" stroke="#63b8ff" d="M192.65,-56.34C194.11,-49.64 196.11,-40.51 197.93,-32.23"/>
<polygon fill="#63b8ff" stroke="#63b8ff" points="201.33,-33.07 200.05,-22.56 194.49,-31.58 201.33,-33.07"/>
</a>
</g>
</g>
<!-- Node13 -->
<g id="Node000013" class="node">
<title>Node13</title>
<g id="a_Node000013"><a xlink:title=" ">
<polygon fill="#e0e0e0" stroke="#999999" points="307.5,-20.75 249.5,-20.75 249.5,0 307.5,0 307.5,-20.75"/>
<text text-anchor="middle" x="278.5" y="-7.25" font-family="Helvetica,sans-Serif" font-size="10.00">complex</text>
</a>
</g>
</g>
<!-- Node8&#45;&gt;Node13 -->
<g id="edge18_Node000008_Node000013" class="edge">
<title>Node8&#45;&gt;Node13</title>
<g id="a_edge18_Node000008_Node000013"><a xlink:title=" ">
<path fill="none" stroke="#63b8ff" d="M206.23,-56.34C219.37,-48.16 238.34,-36.36 253.55,-26.9"/>
<polygon fill="#63b8ff" stroke="#63b8ff" points="254.98,-30.13 261.62,-21.88 251.28,-24.19 254.98,-30.13"/>
</a>
</g>
</g>
<!-- Node14&#45;&gt;Node2 -->
<g id="edge24_Node000014_Node000002" class="edge">
<title>Node14&#45;&gt;Node2</title>
<g id="a_edge24_Node000014_Node000002"><a xlink:title=" ">
<path fill="none" stroke="#63b8ff" d="M946.33,-113.05C909.43,-103.97 853.22,-90.04 804.5,-77.5 731.16,-58.62 645.92,-35.79 596.59,-22.49"/>
<polygon fill="#63b8ff" stroke="#63b8ff" points="597.77,-19.19 587.2,-19.96 595.95,-25.94 597.77,-19.19"/>
</a>
</g>
</g>
<!-- Node14&#45;&gt;Node11 -->
<g id="edge21_Node000014_Node000011" class="edge">
<title>Node14&#45;&gt;Node11</title>
<g id="a_edge21_Node000014_Node000011"><a xlink:title=" ">
<path fill="none" stroke="#63b8ff" d="M960.05,-113.08C906.17,-93.12 783.58,-47.71 722.09,-24.93"/>
<polygon fill="#63b8ff" stroke="#63b8ff" points="723.37,-21.67 712.77,-21.48 720.93,-28.23 723.37,-21.67"/>
</a>
</g>
</g>
<!-- Node15 -->
<g id="Node000015" class="node">
<title>Node15</title>
<g id="a_Node000015"><a xlink:title=" ">
<polygon fill="#e0e0e0" stroke="#999999" points="963,-77.5 914,-77.5 914,-56.75 963,-56.75 963,-77.5"/>
<text text-anchor="middle" x="938.5" y="-64" font-family="Helvetica,sans-Serif" font-size="10.00">cstring</text>
</a>
</g>
</g>
<!-- Node14&#45;&gt;Node15 -->
<g id="edge22_Node000014_Node000015" class="edge">
<title>Node14&#45;&gt;Node15</title>
<g id="a_edge22_Node000014_Node000015"><a xlink:title=" ">
<path fill="none" stroke="#63b8ff" d="M977.92,-113.09C971.43,-105.69 962.35,-95.32 954.53,-86.41"/>
<polygon fill="#63b8ff" stroke="#63b8ff" points="957.23,-84.18 948,-78.97 951.97,-88.79 957.23,-84.18"/>
</a>
</g>
</g>
<!-- Node16 -->
<g id="Node000016" class="node">
<title>Node16</title>
<g id="a_Node000016"><a xlink:title=" ">
<polygon fill="#e0e0e0" stroke="#999999" points="1024.38,-77.5 980.62,-77.5 980.62,-56.75 1024.38,-56.75 1024.38,-77.5"/>
<text text-anchor="middle" x="1002.5" y="-64" font-family="Helvetica,sans-Serif" font-size="10.00">string</text>
</a>
</g>
</g>
<!-- Node14&#45;&gt;Node16 -->
<g id="edge23_Node000014_Node000016" class="edge">
<title>Node14&#45;&gt;Node16</title>
<g id="a_edge23_Node000014_Node000016"><a xlink:title=" ">
<path fill="none" stroke="#63b8ff" d="M989.36,-113.09C991.34,-106.31 994.05,-97.05 996.49,-88.69"/>
<polygon fill="#63b8ff" stroke="#63b8ff" points="999.79,-89.86 999.24,-79.28 993.08,-87.9 999.79,-89.86"/>
</a>
</g>
</g>
<!-- Node17&#45;&gt;Node2 -->
<g id="edge27_Node000017_Node000002" class="edge">
<title>Node17&#45;&gt;Node2</title>
<g id="a_edge27_Node000017_Node000002"><a xlink:title=" ">
<path fill="none" stroke="#63b8ff" d="M556.41,-113.37C556.26,-95.6 555.91,-56.97 555.69,-32.68"/>
<polygon fill="#63b8ff" stroke="#63b8ff" points="559.19,-32.66 555.6,-22.69 552.19,-32.72 559.19,-32.66"/>
</a>
</g>
</g>
<!-- Node17&#45;&gt;Node3 -->
<g id="edge28_Node000017_Node000003" class="edge">
<title>Node17&#45;&gt;Node3</title>
<g id="a_edge28_Node000017_Node000003"><a xlink:title=" ">
<path fill="none" stroke="#63b8ff" d="M579.03,-113.09C598.74,-104.52 627.61,-91.98 649.85,-82.31"/>
<polygon fill="#63b8ff" stroke="#63b8ff" points="651,-85.63 658.78,-78.43 648.21,-79.21 651,-85.63"/>
</a>
</g>
</g>
<!-- Node17&#45;&gt;Node4 -->
<g id="edge29_Node000017_Node000004" class="edge">
<title>Node17&#45;&gt;Node4</title>
<g id="a_edge29_Node000017_Node000004"><a xlink:title=" ">
<path fill="none" stroke="#63b8ff" d="M567.99,-113.19C585.06,-99.18 618.55,-73.16 650.5,-56.75 681.39,-40.89 719.07,-28.42 745.9,-20.6"/>
<polygon fill="#63b8ff" stroke="#63b8ff" points="746.56,-24.05 755.23,-17.95 744.65,-17.31 746.56,-24.05"/>
</a>
</g>
</g>
<!-- Node17&#45;&gt;Node8 -->
<g id="edge26_Node000017_Node000008" class="edge">
<title>Node17&#45;&gt;Node8</title>
<g id="a_edge26_Node000017_Node000008"><a xlink:title=" ">
<path fill="none" stroke="#63b8ff" d="M497.7,-114.08C430.32,-104 320.41,-87.56 251.95,-77.32"/>
<polygon fill="#63b8ff" stroke="#63b8ff" points="252.82,-73.91 242.41,-75.89 251.78,-80.83 252.82,-73.91"/>
</a>
</g>
</g>
<!-- Node18&#45;&gt;Node2 -->
<g id="edge31_Node000018_Node000002" class="edge">
<title>Node18&#45;&gt;Node2</title>
<g id="a_edge31_Node000018_Node000002"><a xlink:title=" ">
<path fill="none" stroke="#63b8ff" d="M710.21,-170.1C683.73,-142.92 607.51,-64.73 572.93,-29.26"/>
<polygon fill="#63b8ff" stroke="#63b8ff" points="575.64,-27.02 566.15,-22.3 570.62,-31.91 575.64,-27.02"/>
</a>
</g>
</g>
<!-- Node18&#45;&gt;Node3 -->
<g id="edge32_Node000018_Node000003" class="edge">
<title>Node18&#45;&gt;Node3</title>
<g id="a_edge32_Node000018_Node000003"><a xlink:title=" ">
<path fill="none" stroke="#63b8ff" d="M716.35,-170.12C710.4,-152.19 697.39,-113 689.35,-88.76"/>
<polygon fill="#63b8ff" stroke="#63b8ff" points="692.7,-87.75 686.23,-79.36 686.06,-89.96 692.7,-87.75"/>
</a>
</g>
</g>
<!-- Node18&#45;&gt;Node4 -->
<g id="edge33_Node000018_Node000004" class="edge">
<title>Node18&#45;&gt;Node4</title>
<g id="a_edge33_Node000018_Node000004"><a xlink:title=" ">
<path fill="none" stroke="#63b8ff" d="M722.95,-170.1C732.6,-143.5 759.96,-68.02 773.18,-31.57"/>
<polygon fill="#63b8ff" stroke="#63b8ff" points="776.3,-33.23 776.42,-22.64 769.72,-30.85 776.3,-33.23"/>
</a>
</g>
</g>
<!-- Node18&#45;&gt;Node7 -->
<g id="edge34_Node000018_Node000007" class="edge">
<title>Node18&#45;&gt;Node7</title>
<g id="a_edge34_Node000018_Node000007"><a xlink:title=" ">
<path fill="none" stroke="#63b8ff" d="M735.95,-169.84C749.68,-161.66 769.52,-149.86 785.42,-140.4"/>
<polygon fill="#63b8ff" stroke="#63b8ff" points="787.09,-143.47 793.89,-135.35 783.51,-137.46 787.09,-143.47"/>
</a>
</g>
</g>
<!-- Node18&#45;&gt;Node8 -->
<g id="edge35_Node000018_Node000008" class="edge">
<title>Node18&#45;&gt;Node8</title>
<g id="a_edge35_Node000018_Node000008"><a xlink:title=" ">
<path fill="none" stroke="#63b8ff" d="M685.74,-176.27C639.96,-170.98 556.15,-158.7 488.5,-134.25 470.4,-127.71 468.66,-119.85 450.5,-113.5 384.81,-90.54 305.57,-78.85 251.96,-73.14"/>
<polygon fill="#63b8ff" stroke="#63b8ff" points="252.4,-69.67 242.1,-72.13 251.69,-76.63 252.4,-69.67"/>
</a>
</g>
</g>
<!-- Node18&#45;&gt;Node14 -->
<g id="edge36_Node000018_Node000014" class="edge">
<title>Node18&#45;&gt;Node14</title>
<g id="a_edge36_Node000018_Node000014"><a xlink:title=" ">
<path fill="none" stroke="#63b8ff" d="M753.32,-172.69C797.07,-163.72 874.02,-147.94 927.5,-136.97"/>
<polygon fill="#63b8ff" stroke="#63b8ff" points="927.96,-140.45 937.06,-135.01 926.56,-133.59 927.96,-140.45"/>
</a>
</g>
</g>
<!-- Node18&#45;&gt;Node17 -->
<g id="edge37_Node000018_Node000017" class="edge">
<title>Node18&#45;&gt;Node17</title>
<g id="a_edge37_Node000018_Node000017"><a xlink:title=" ">
<path fill="none" stroke="#63b8ff" d="M690.36,-169.84C664.13,-161.03 625.36,-148 596.29,-138.24"/>
<polygon fill="#63b8ff" stroke="#63b8ff" points="597.69,-135.02 587.1,-135.15 595.46,-141.65 597.69,-135.02"/>
</a>
</g>
</g>
<!-- Node18&#45;&gt;Node19 -->
<g id="edge38_Node000018_Node000019" class="edge">
<title>Node18&#45;&gt;Node19</title>
<g id="a_edge38_Node000018_Node000019"><a xlink:title=" ">
<path fill="none" stroke="#63b8ff" d="M685.75,-174.38C630.02,-165.71 517.45,-148.2 442.25,-136.5"/>
<polygon fill="#63b8ff" stroke="#63b8ff" points="442.89,-133.06 432.47,-134.98 441.82,-139.98 442.89,-133.06"/>
</a>
</g>
</g>
<!-- Node20&#45;&gt;Node2 -->
<g id="edge42_Node000020_Node000002" class="edge">
<title>Node20&#45;&gt;Node2</title>
<g id="a_edge42_Node000020_Node000002"><a xlink:title=" ">
<path fill="none" stroke="#63b8ff" d="M1009.9,-169.91C1024.46,-162.48 1041.99,-150.71 1050.5,-134.25 1062,-112.01 1041.01,-62.91 1033.5,-56.75 967.39,-2.55 735.59,-28.95 650.5,-20.75 632.81,-19.05 613.27,-17.12 596.53,-15.47"/>
<polygon fill="#63b8ff" stroke="#63b8ff" points="597.25,-12.02 586.95,-14.52 596.56,-18.99 597.25,-12.02"/>
</a>
</g>
</g>
<!-- Node20&#45;&gt;Node3 -->
<g id="edge47_Node000020_Node000003" class="edge">
<title>Node20&#45;&gt;Node3</title>
<g id="a_edge47_Node000020_Node000003"><a xlink:title=" ">
<path fill="none" stroke="#63b8ff" d="M973.75,-169.77C954.43,-155.31 916.1,-128.43 879.5,-113.5 812.01,-85.96 790.39,-94.45 719.5,-77.5 718.84,-77.34 718.16,-77.18 717.49,-77.02"/>
<polygon fill="#63b8ff" stroke="#63b8ff" points="718.38,-73.63 707.83,-74.63 716.7,-80.43 718.38,-73.63"/>
</a>
</g>
</g>
<!-- Node20&#45;&gt;Node4 -->
<g id="edge43_Node000020_Node000004" class="edge">
<title>Node20&#45;&gt;Node4</title>
<g id="a_edge43_Node000020_Node000004"><a xlink:title=" ">
<path fill="none" stroke="#63b8ff" d="M1020.82,-179.84C1092.67,-179.47 1255.13,-174.15 1289.5,-134.25 1295.52,-127.26 1295.09,-120.84 1289.5,-113.5 1231.65,-37.56 921.01,-17.37 815.55,-12.66"/>
<polygon fill="#63b8ff" stroke="#63b8ff" points="815.95,-9.18 805.81,-12.25 815.66,-16.17 815.95,-9.18"/>
</a>
</g>
</g>
<!-- Node20&#45;&gt;Node7 -->
<g id="edge44_Node000020_Node000007" class="edge">
<title>Node20&#45;&gt;Node7</title>
<g id="a_edge44_Node000020_Node000007"><a xlink:title=" ">
<path fill="none" stroke="#63b8ff" d="M955.21,-169.84C925.14,-160.43 879.69,-146.21 847.98,-136.29"/>
<polygon fill="#63b8ff" stroke="#63b8ff" points="849.42,-133.07 838.83,-133.43 847.33,-139.75 849.42,-133.07"/>
</a>
</g>
</g>
<!-- Node20&#45;&gt;Node8 -->
<g id="edge48_Node000020_Node000008" class="edge">
<title>Node20&#45;&gt;Node8</title>
<g id="a_edge48_Node000020_Node000008"><a xlink:title=" ">
<path fill="none" stroke="#63b8ff" d="M960.02,-169.76C938.03,-161.25 906.15,-148.17 879.5,-134.25 864.14,-126.23 862.97,-118.87 846.5,-113.5 737.1,-77.83 393.24,-70.2 251.99,-68.57"/>
<polygon fill="#63b8ff" stroke="#63b8ff" points="252.12,-65.07 242.08,-68.46 252.05,-72.07 252.12,-65.07"/>
</a>
</g>
</g>
<!-- Node20&#45;&gt;Node14 -->
<g id="edge49_Node000020_Node000014" class="edge">
<title>Node20&#45;&gt;Node14</title>
<g id="a_edge49_Node000020_Node000014"><a xlink:title=" ">
<path fill="none" stroke="#63b8ff" d="M986.5,-169.84C986.5,-163.22 986.5,-154.22 986.5,-146.02"/>
<polygon fill="#63b8ff" stroke="#63b8ff" points="990,-146.09 986.5,-136.09 983,-146.09 990,-146.09"/>
</a>
</g>
</g>
<!-- Node20&#45;&gt;Node17 -->
<g id="edge50_Node000020_Node000017" class="edge">
<title>Node20&#45;&gt;Node17</title>
<g id="a_edge50_Node000020_Node000017"><a xlink:title=" ">
<path fill="none" stroke="#63b8ff" d="M952.4,-175.28C882.23,-166.35 720.42,-145.75 626.83,-133.83"/>
<polygon fill="#63b8ff" stroke="#63b8ff" points="627.35,-130.37 616.99,-132.58 626.47,-137.31 627.35,-130.37"/>
</a>
</g>
</g>
<!-- Node21 -->
<g id="Node000021" class="node">
<title>Node21</title>
<g id="a_Node000021"><a xlink:title=" ">
<polygon fill="#e0e0e0" stroke="#999999" points="1147,-134.25 1098,-134.25 1098,-113.5 1147,-113.5 1147,-134.25"/>
<text text-anchor="middle" x="1122.5" y="-120.75" font-family="Helvetica,sans-Serif" font-size="10.00">cstdint</text>
</a>
</g>
</g>
<!-- Node20&#45;&gt;Node21 -->
<g id="edge41_Node000020_Node000021" class="edge">
<title>Node20&#45;&gt;Node21</title>
<g id="a_edge41_Node000020_Node000021"><a xlink:title=" ">
<path fill="none" stroke="#63b8ff" d="M1010.81,-169.84C1032.28,-161.19 1063.82,-148.5 1087.91,-138.8"/>
<polygon fill="#63b8ff" stroke="#63b8ff" points="1089.02,-142.13 1096.99,-135.14 1086.41,-135.63 1089.02,-142.13"/>
</a>
</g>
</g>
<!-- Node22 -->
<g id="Node000022" class="node">
<title>Node22</title>
<g id="a_Node000022"><a xlink:title=" ">
<polygon fill="#e0e0e0" stroke="#999999" points="1206.25,-134.25 1164.75,-134.25 1164.75,-113.5 1206.25,-113.5 1206.25,-134.25"/>
<text text-anchor="middle" x="1185.5" y="-120.75" font-family="Helvetica,sans-Serif" font-size="10.00">array</text>
</a>
</g>
</g>
<!-- Node20&#45;&gt;Node22 -->
<g id="edge45_Node000020_Node000022" class="edge">
<title>Node20&#45;&gt;Node22</title>
<g id="a_edge45_Node000020_Node000022"><a xlink:title=" ">
<path fill="none" stroke="#63b8ff" d="M1020.83,-171.02C1052.99,-162.84 1102.62,-149.9 1153.46,-135.06"/>
<polygon fill="#63b8ff" stroke="#63b8ff" points="1154.26,-138.47 1162.86,-132.29 1152.28,-131.75 1154.26,-138.47"/>
</a>
</g>
</g>
<!-- Node23 -->
<g id="Node000023" class="node">
<title>Node23</title>
<g id="a_Node000023"><a xlink:title=" ">
<polygon fill="#e0e0e0" stroke="#999999" points="1280.38,-134.25 1224.62,-134.25 1224.62,-113.5 1280.38,-113.5 1280.38,-134.25"/>
<text text-anchor="middle" x="1252.5" y="-120.75" font-family="Helvetica,sans-Serif" font-size="10.00">iomanip</text>
</a>
</g>
</g>
<!-- Node20&#45;&gt;Node23 -->
<g id="edge46_Node000020_Node000023" class="edge">
<title>Node20&#45;&gt;Node23</title>
<g id="a_edge46_Node000020_Node000023"><a xlink:title=" ">
<path fill="none" stroke="#63b8ff" d="M1020.76,-173.42C1063.53,-165.54 1139.19,-151.2 1213.33,-134.65"/>
<polygon fill="#63b8ff" stroke="#63b8ff" points="1213.79,-138.14 1222.78,-132.53 1212.25,-131.31 1213.79,-138.14"/>
</a>
</g>
</g>
</g>
</svg>
