<?xml version="1.0" encoding="UTF-8" standalone="no"?>
<!DOCTYPE svg PUBLIC "-//W3C//DTD SVG 1.1//EN"
 "http://www.w3.org/Graphics/SVG/1.1/DTD/svg11.dtd">
<!-- Generated by graphviz version 10.0.1 (0)
 -->
<!-- Title: includes/Tensorium/DiffGeometry/BSSN/BSSNChristoffel.hpp Pages: 1 -->
<svg width="808pt" height="541pt"
 viewBox="0.00 0.00 808.47 540.75" xmlns="http://www.w3.org/2000/svg" xmlns:xlink="http://www.w3.org/1999/xlink">
<g id="graph0" class="graph" transform="scale(1 1) rotate(0) translate(4 536.75)">
<title>includes/Tensorium/DiffGeometry/BSSN/BSSNChristoffel.hpp</title>
<!-- Node1 -->
<g id="Node000001" class="node">
<title>Node1</title>
<g id="a_Node000001"><a xlink:title=" ">
<polygon fill="#999999" stroke="#666666" points="548.38,-532.75 333.62,-532.75 333.62,-499.25 548.38,-499.25 548.38,-532.75"/>
<text text-anchor="start" x="341.62" y="-519.25" font-family="Helvetica,sans-Serif" font-size="10.00">includes/Tensorium</text>
<text text-anchor="middle" x="441" y="-506.5" font-family="Helvetica,sans-Serif" font-size="10.00">/DiffGeometry/BSSN/BSSNChristoffel.hpp</text>
</a>
</g>
</g>
<!-- Node2 -->
<g id="Node000002" class="node">
<title>Node2</title>
<g id="a_Node000002"><a xlink:href="BSSNRicciTensor_8hpp.html" target="_top" xlink:title=" ">
<polygon fill="white" stroke="#666666" points="413.38,-463.25 246.62,-463.25 246.62,-417 413.38,-417 413.38,-463.25"/>
<text text-anchor="start" x="254.62" y="-449.75" font-family="Helvetica,sans-Serif" font-size="10.00">includes/Tensorium</text>
<text text-anchor="start" x="254.62" y="-437" font-family="Helvetica,sans-Serif" font-size="10.00">/DiffGeometry/BSSN/BSSNRicci</text>
<text text-anchor="middle" x="330" y="-424.25" font-family="Helvetica,sans-Serif" font-size="10.00">Tensor.hpp</text>
</a>
</g>
</g>
<!-- Node1&#45;&gt;Node2 -->
<g id="edge1_Node000001_Node000002" class="edge">
<title>Node1&#45;&gt;Node2</title>
<g id="a_edge1_Node000001_Node000002"><a xlink:title=" ">
<path fill="none" stroke="#63b8ff" d="M407.11,-492.44C393.43,-483.34 377.67,-472.85 363.99,-463.74"/>
<polygon fill="#63b8ff" stroke="#63b8ff" points="405.12,-495.32 415.38,-497.95 408.99,-489.49 405.12,-495.32"/>
</a>
</g>
</g>
<!-- Node3 -->
<g id="Node000003" class="node">
<title>Node3</title>
<g id="a_Node000003"><a xlink:href="BSSNSetup_8hpp.html" target="_top" xlink:title=" ">
<polygon fill="white" stroke="#666666" points="426.12,-381 233.88,-381 233.88,-347.5 426.12,-347.5 426.12,-381"/>
<text text-anchor="start" x="241.88" y="-367.5" font-family="Helvetica,sans-Serif" font-size="10.00">includes/Tensorium</text>
<text text-anchor="middle" x="330" y="-354.75" font-family="Helvetica,sans-Serif" font-size="10.00">/DiffGeometry/BSSN/BSSNSetup.hpp</text>
</a>
</g>
</g>
<!-- Node1&#45;&gt;Node3 -->
<g id="edge20_Node000001_Node000003" class="edge">
<title>Node1&#45;&gt;Node3</title>
<g id="a_edge20_Node000001_Node000003"><a xlink:title=" ">
<path fill="none" stroke="#63b8ff" d="M441.68,-487.4C440.87,-466.29 436.75,-437.44 422,-417 410.53,-401.1 392.57,-389.45 375.56,-381.27"/>
<polygon fill="#63b8ff" stroke="#63b8ff" points="438.18,-487.34 441.81,-497.29 445.18,-487.25 438.18,-487.34"/>
</a>
</g>
</g>
<!-- Node7 -->
<g id="Node000007" class="node">
<title>Node7</title>
<g id="a_Node000007"><a xlink:href="FunctionnalRG_8hpp.html" target="_top" xlink:title=" ">
<polygon fill="white" stroke="#666666" points="733.88,-305.12 564.12,-305.12 564.12,-271.62 733.88,-271.62 733.88,-305.12"/>
<text text-anchor="start" x="572.12" y="-291.62" font-family="Helvetica,sans-Serif" font-size="10.00">includes/Tensorium</text>
<text text-anchor="middle" x="649" y="-278.88" font-family="Helvetica,sans-Serif" font-size="10.00">/Functionnal/FunctionnalRG.hpp</text>
</a>
</g>
</g>
<!-- Node1&#45;&gt;Node7 -->
<g id="edge21_Node000001_Node000007" class="edge">
<title>Node1&#45;&gt;Node7</title>
<g id="a_edge21_Node000001_Node000007"><a xlink:title=" ">
<path fill="none" stroke="#63b8ff" d="M463.6,-490.49C506.41,-444.05 598.26,-344.41 634.18,-305.45"/>
<polygon fill="#63b8ff" stroke="#63b8ff" points="461.19,-487.94 456.98,-497.66 466.34,-492.68 461.19,-487.94"/>
</a>
</g>
</g>
<!-- Node2&#45;&gt;Node3 -->
<g id="edge2_Node000002_Node000003" class="edge">
<title>Node2&#45;&gt;Node3</title>
<g id="a_edge2_Node000002_Node000003"><a xlink:title=" ">
<path fill="none" stroke="#63b8ff" d="M330,-405.14C330,-396.85 330,-388.36 330,-381.35"/>
<polygon fill="#63b8ff" stroke="#63b8ff" points="326.5,-405.05 330,-415.05 333.5,-405.05 326.5,-405.05"/>
</a>
</g>
</g>
<!-- Node4 -->
<g id="Node000004" class="node">
<title>Node4</title>
<g id="a_Node000004"><a xlink:href="BSSNAtildeTensor_8hpp.html" target="_top" xlink:title=" ">
<polygon fill="white" stroke="#666666" points="172,-311.5 0,-311.5 0,-265.25 172,-265.25 172,-311.5"/>
<text text-anchor="start" x="8" y="-298" font-family="Helvetica,sans-Serif" font-size="10.00">includes/Tensorium</text>
<text text-anchor="start" x="8" y="-285.25" font-family="Helvetica,sans-Serif" font-size="10.00">/DiffGeometry/BSSN/BSSNAtilde</text>
<text text-anchor="middle" x="86" y="-272.5" font-family="Helvetica,sans-Serif" font-size="10.00">Tensor.hpp</text>
</a>
</g>
</g>
<!-- Node3&#45;&gt;Node4 -->
<g id="edge3_Node000003_Node000004" class="edge">
<title>Node3&#45;&gt;Node4</title>
<g id="a_edge3_Node000003_Node000004"><a xlink:title=" ">
<path fill="none" stroke="#63b8ff" d="M259.78,-343.81C226.66,-334.05 187.32,-322.17 154.43,-311.99"/>
<polygon fill="#63b8ff" stroke="#63b8ff" points="258.72,-347.15 269.3,-346.61 260.69,-340.43 258.72,-347.15"/>
</a>
</g>
</g>
<!-- Node5 -->
<g id="Node000005" class="node">
<title>Node5</title>
<g id="a_Node000005"><a xlink:href="BSSNPrintDebug_8hpp.html" target="_top" xlink:title=" ">
<polygon fill="white" stroke="#666666" points="356,-311.5 190,-311.5 190,-265.25 356,-265.25 356,-311.5"/>
<text text-anchor="start" x="198" y="-298" font-family="Helvetica,sans-Serif" font-size="10.00">includes/Tensorium</text>
<text text-anchor="start" x="198" y="-285.25" font-family="Helvetica,sans-Serif" font-size="10.00">/DiffGeometry/BSSN/BSSNPrint</text>
<text text-anchor="middle" x="273" y="-272.5" font-family="Helvetica,sans-Serif" font-size="10.00">Debug.hpp</text>
</a>
</g>
</g>
<!-- Node3&#45;&gt;Node5 -->
<g id="edge5_Node000003_Node000005" class="edge">
<title>Node3&#45;&gt;Node5</title>
<g id="a_edge5_Node000003_Node000005"><a xlink:title=" ">
<path fill="none" stroke="#63b8ff" d="M304.62,-338.65C297.43,-329.99 290,-320.3 284.05,-311.82"/>
<polygon fill="#63b8ff" stroke="#63b8ff" points="301.81,-340.75 310.97,-346.07 307.12,-336.2 301.81,-340.75"/>
</a>
</g>
</g>
<!-- Node6 -->
<g id="Node000006" class="node">
<title>Node6</title>
<g id="a_Node000006"><a xlink:href="BSSNextrinTensor_8hpp.html" target="_top" xlink:title=" ">
<polygon fill="white" stroke="#666666" points="546,-311.5 374,-311.5 374,-265.25 546,-265.25 546,-311.5"/>
<text text-anchor="start" x="382" y="-298" font-family="Helvetica,sans-Serif" font-size="10.00">includes/Tensorium</text>
<text text-anchor="start" x="382" y="-285.25" font-family="Helvetica,sans-Serif" font-size="10.00">/DiffGeometry/BSSN/BSSNextrin</text>
<text text-anchor="middle" x="460" y="-272.5" font-family="Helvetica,sans-Serif" font-size="10.00">Tensor.hpp</text>
</a>
</g>
</g>
<!-- Node3&#45;&gt;Node6 -->
<g id="edge7_Node000003_Node000006" class="edge">
<title>Node3&#45;&gt;Node6</title>
<g id="a_edge7_Node000003_Node000006"><a xlink:title=" ">
<path fill="none" stroke="#63b8ff" d="M362.53,-341.22C378.09,-332 396.93,-321.28 413.92,-311.99"/>
<polygon fill="#63b8ff" stroke="#63b8ff" points="360.9,-338.11 354.13,-346.26 364.5,-344.12 360.9,-338.11"/>
</a>
</g>
</g>
<!-- Node3&#45;&gt;Node7 -->
<g id="edge9_Node000003_Node000007" class="edge">
<title>Node3&#45;&gt;Node7</title>
<g id="a_edge9_Node000003_Node000007"><a xlink:title=" ">
<path fill="none" stroke="#63b8ff" d="M412.13,-344.47C454.76,-334.69 507.7,-322.51 555,-311.5 563.16,-309.6 571.73,-307.6 580.22,-305.61"/>
<polygon fill="#63b8ff" stroke="#63b8ff" points="411.4,-341.04 402.43,-346.69 412.96,-347.87 411.4,-341.04"/>
</a>
</g>
</g>
<!-- Node4&#45;&gt;Node3 -->
<g id="edge4_Node000004_Node000003" class="edge">
<title>Node4&#45;&gt;Node3</title>
<g id="a_edge4_Node000004_Node000003"><a xlink:title=" ">
<path fill="none" stroke="#63b8ff" d="M177.87,-315.23C213.35,-325.81 252.45,-337.72 282.15,-347.04"/>
<polygon fill="#63b8ff" stroke="#63b8ff" points="179.02,-311.92 168.44,-312.43 177.02,-318.63 179.02,-311.92"/>
</a>
</g>
</g>
<!-- Node5&#45;&gt;Node3 -->
<g id="edge6_Node000005_Node000003" class="edge">
<title>Node5&#45;&gt;Node3</title>
<g id="a_edge6_Node000005_Node000003"><a xlink:title=" ">
<path fill="none" stroke="#63b8ff" d="M303.86,-320.71C311.14,-329.85 318.21,-339.45 323.31,-347.22"/>
<polygon fill="#63b8ff" stroke="#63b8ff" points="306.58,-318.51 297.54,-312.99 301.16,-322.95 306.58,-318.51"/>
</a>
</g>
</g>
<!-- Node6&#45;&gt;Node3 -->
<g id="edge8_Node000006_Node000003" class="edge">
<title>Node6&#45;&gt;Node3</title>
<g id="a_edge8_Node000006_Node000003"><a xlink:title=" ">
<path fill="none" stroke="#63b8ff" d="M416.72,-317.71C399.63,-327.64 380.33,-338.45 364.23,-347.04"/>
<polygon fill="#63b8ff" stroke="#63b8ff" points="418.31,-320.84 425.17,-312.76 414.77,-314.8 418.31,-320.84"/>
</a>
</g>
</g>
<!-- Node8 -->
<g id="Node000008" class="node">
<title>Node8</title>
<g id="a_Node000008"><a xlink:href="ChristoffelSymbol_8hpp.html" target="_top" xlink:title=" ">
<polygon fill="white" stroke="#666666" points="747,-229.25 551,-229.25 551,-195.75 747,-195.75 747,-229.25"/>
<text text-anchor="start" x="559" y="-215.75" font-family="Helvetica,sans-Serif" font-size="10.00">includes/Tensorium</text>
<text text-anchor="middle" x="649" y="-203" font-family="Helvetica,sans-Serif" font-size="10.00">/DiffGeometry/ChristoffelSymbol.hpp</text>
</a>
</g>
</g>
<!-- Node7&#45;&gt;Node8 -->
<g id="edge10_Node000007_Node000008" class="edge">
<title>Node7&#45;&gt;Node8</title>
<g id="a_edge10_Node000007_Node000008"><a xlink:title=" ">
<path fill="none" stroke="#63b8ff" d="M642.45,-259.99C642.01,-249.72 642.3,-238.4 643.33,-229.5"/>
<polygon fill="#63b8ff" stroke="#63b8ff" points="638.96,-260.13 643.21,-269.84 645.94,-259.6 638.96,-260.13"/>
</a>
</g>
</g>
<!-- Node10 -->
<g id="Node000010" class="node">
<title>Node10</title>
<g id="a_Node000010"><a xlink:href="RiemannTensor_8hpp.html" target="_top" xlink:title=" ">
<polygon fill="white" stroke="#666666" points="605.62,-159.75 422.38,-159.75 422.38,-126.25 605.62,-126.25 605.62,-159.75"/>
<text text-anchor="start" x="430.38" y="-146.25" font-family="Helvetica,sans-Serif" font-size="10.00">includes/Tensorium</text>
<text text-anchor="middle" x="514" y="-133.5" font-family="Helvetica,sans-Serif" font-size="10.00">/DiffGeometry/RiemannTensor.hpp</text>
</a>
</g>
</g>
<!-- Node7&#45;&gt;Node10 -->
<g id="edge18_Node000007_Node000010" class="edge">
<title>Node7&#45;&gt;Node10</title>
<g id="a_edge18_Node000007_Node000010"><a xlink:title=" ">
<path fill="none" stroke="#63b8ff" d="M583.64,-266.43C565.01,-257.37 546.25,-245.14 533,-229.25 516.24,-209.15 509.42,-178.72 509.25,-160.17"/>
<polygon fill="#63b8ff" stroke="#63b8ff" points="582,-269.53 592.55,-270.5 584.91,-263.16 582,-269.53"/>
</a>
</g>
</g>
<!-- Node11 -->
<g id="Node000011" class="node">
<title>Node11</title>
<g id="a_Node000011"><a xlink:href="Tensorium_8hpp.html" target="_top" xlink:title=" ">
<polygon fill="white" stroke="#666666" points="718.88,-90.25 609.12,-90.25 609.12,-56.75 718.88,-56.75 718.88,-90.25"/>
<text text-anchor="start" x="617.12" y="-76.75" font-family="Helvetica,sans-Serif" font-size="10.00">includes/Tensorium</text>
<text text-anchor="middle" x="664" y="-64" font-family="Helvetica,sans-Serif" font-size="10.00">/Tensorium.hpp</text>
</a>
</g>
</g>
<!-- Node7&#45;&gt;Node11 -->
<g id="edge19_Node000007_Node000011" class="edge">
<title>Node7&#45;&gt;Node11</title>
<g id="a_edge19_Node000007_Node000011"><a xlink:title=" ">
<path fill="none" stroke="#63b8ff" d="M716.56,-266.89C736.62,-258.03 757.16,-245.8 772,-229.25 793.81,-204.92 790.59,-191.98 796,-159.75 798.46,-145.07 804.39,-138.55 796,-126.25 778.73,-100.93 747.04,-88 719.04,-81.4"/>
<polygon fill="#63b8ff" stroke="#63b8ff" points="715.44,-263.57 707.55,-270.64 718.12,-270.03 715.44,-263.57"/>
</a>
</g>
</g>
<!-- Node8&#45;&gt;Node7 -->
<g id="edge17_Node000008_Node000007" class="edge">
<title>Node8&#45;&gt;Node7</title>
<g id="a_edge17_Node000008_Node000007"><a xlink:title=" ">
<path fill="none" stroke="#63b8ff" d="M655.54,-240.85C655.99,-251.11 655.71,-262.44 654.68,-271.35"/>
<polygon fill="#63b8ff" stroke="#63b8ff" points="659.04,-240.71 654.79,-231.01 652.06,-241.25 659.04,-240.71"/>
</a>
</g>
</g>
<!-- Node9 -->
<g id="Node000009" class="node">
<title>Node9</title>
<g id="a_Node000009"><a xlink:href="RicciTensor_8hpp.html" target="_top" xlink:title=" ">
<polygon fill="white" stroke="#666666" points="786.5,-159.75 623.5,-159.75 623.5,-126.25 786.5,-126.25 786.5,-159.75"/>
<text text-anchor="start" x="631.5" y="-146.25" font-family="Helvetica,sans-Serif" font-size="10.00">includes/Tensorium</text>
<text text-anchor="middle" x="705" y="-133.5" font-family="Helvetica,sans-Serif" font-size="10.00">/DiffGeometry/RicciTensor.hpp</text>
</a>
</g>
</g>
<!-- Node8&#45;&gt;Node9 -->
<g id="edge11_Node000008_Node000009" class="edge">
<title>Node8&#45;&gt;Node9</title>
<g id="a_edge11_Node000008_Node000009"><a xlink:title=" ">
<path fill="none" stroke="#63b8ff" d="M669.4,-186.91C676.88,-177.89 685.14,-167.93 691.82,-159.88"/>
<polygon fill="#63b8ff" stroke="#63b8ff" points="666.93,-184.41 663.24,-194.34 672.32,-188.88 666.93,-184.41"/>
</a>
</g>
</g>
<!-- Node8&#45;&gt;Node10 -->
<g id="edge13_Node000008_Node000010" class="edge">
<title>Node8&#45;&gt;Node10</title>
<g id="a_edge13_Node000008_Node000010"><a xlink:title=" ">
<path fill="none" stroke="#63b8ff" d="M606.49,-190.24C586.94,-180.47 564.14,-169.07 546.07,-160.04"/>
<polygon fill="#63b8ff" stroke="#63b8ff" points="604.8,-193.31 615.31,-194.66 607.93,-187.05 604.8,-193.31"/>
</a>
</g>
</g>
<!-- Node9&#45;&gt;Node7 -->
<g id="edge12_Node000009_Node000007" class="edge">
<title>Node9&#45;&gt;Node7</title>
<g id="a_edge12_Node000009_Node000007"><a xlink:title=" ">
<path fill="none" stroke="#63b8ff" d="M736.14,-167.86C744.14,-175.77 751.7,-185.27 756,-195.75 761.65,-209.53 763.61,-216.45 756,-229.25 744.33,-248.87 723.46,-262.28 703.23,-271.23"/>
<polygon fill="#63b8ff" stroke="#63b8ff" points="738.62,-165.39 728.88,-161.23 733.91,-170.56 738.62,-165.39"/>
</a>
</g>
</g>
<!-- Node10&#45;&gt;Node7 -->
<g id="edge14_Node000010_Node000007" class="edge">
<title>Node10&#45;&gt;Node7</title>
<g id="a_edge14_Node000010_Node000007"><a xlink:title=" ">
<path fill="none" stroke="#63b8ff" d="M525.2,-171.19C530.19,-189.32 537.25,-212.76 551,-229.25 566.71,-248.08 590.15,-261.78 610.26,-271.13"/>
<polygon fill="#63b8ff" stroke="#63b8ff" points="528.59,-170.34 522.57,-161.63 521.84,-172.2 528.59,-170.34"/>
</a>
</g>
</g>
<!-- Node10&#45;&gt;Node11 -->
<g id="edge15_Node000010_Node000011" class="edge">
<title>Node10&#45;&gt;Node11</title>
<g id="a_edge15_Node000010_Node000011"><a xlink:title=" ">
<path fill="none" stroke="#63b8ff" d="M560.3,-121.17C582.13,-111.34 607.78,-99.8 628.1,-90.65"/>
<polygon fill="#63b8ff" stroke="#63b8ff" points="558.99,-117.92 551.31,-125.21 561.86,-124.3 558.99,-117.92"/>
</a>
</g>
</g>
<!-- Node12 -->
<g id="Node000012" class="node">
<title>Node12</title>
<g id="a_Node000012"><a xlink:href="test_8cpp.html" target="_top" xlink:title=" ">
<polygon fill="white" stroke="#666666" points="710.62,-20.75 617.38,-20.75 617.38,0 710.62,0 710.62,-20.75"/>
<text text-anchor="middle" x="664" y="-7.25" font-family="Helvetica,sans-Serif" font-size="10.00">Plugins/test.cpp</text>
</a>
</g>
</g>
<!-- Node11&#45;&gt;Node12 -->
<g id="edge16_Node000011_Node000012" class="edge">
<title>Node11&#45;&gt;Node12</title>
<g id="a_edge16_Node000011_Node000012"><a xlink:title=" ">
<path fill="none" stroke="#63b8ff" d="M664,-44.94C664,-36.46 664,-27.67 664,-21.22"/>
<polygon fill="#63b8ff" stroke="#63b8ff" points="660.5,-44.93 664,-54.93 667.5,-44.93 660.5,-44.93"/>
</a>
</g>
</g>
</g>
</svg>
