<?xml version="1.0" encoding="UTF-8" standalone="no"?>
<!DOCTYPE svg PUBLIC "-//W3C//DTD SVG 1.1//EN"
 "http://www.w3.org/Graphics/SVG/1.1/DTD/svg11.dtd">
<!-- Generated by graphviz version 10.0.1 (0)
 -->
<!-- Title: tensorium::Matrix::size Pages: 1 -->
<svg width="450pt" height="107pt"
 viewBox="0.00 0.00 449.75 106.75" xmlns="http://www.w3.org/2000/svg" xmlns:xlink="http://www.w3.org/1999/xlink">
<g id="graph0" class="graph" transform="scale(1 1) rotate(0) translate(4 102.75)">
<title>tensorium::Matrix::size</title>
<!-- Node1 -->
<g id="Node000001" class="node">
<title>Node1</title>
<g id="a_Node000001"><a xlink:title="Return the total number of elements.">
<polygon fill="#999999" stroke="#666666" points="441.75,-59.75 313.25,-59.75 313.25,-39 441.75,-39 441.75,-59.75"/>
<text text-anchor="middle" x="377.5" y="-46.25" font-family="Helvetica,sans-Serif" font-size="10.00">tensorium::Matrix::size</text>
</a>
</g>
</g>
<!-- Node2 -->
<g id="Node000002" class="node">
<title>Node2</title>
<g id="a_Node000002"><a xlink:href="classtensorium_1_1Matrix.html#ada624dd42a3a0031194fb48e84166b8a" target="_top" xlink:title="In&#45;place matrix addition: this += m.">
<polygon fill="white" stroke="#666666" points="277.25,-98.75 150.25,-98.75 150.25,-78 277.25,-78 277.25,-98.75"/>
<text text-anchor="middle" x="213.75" y="-85.25" font-family="Helvetica,sans-Serif" font-size="10.00">tensorium::Matrix::add</text>
</a>
</g>
</g>
<!-- Node1&#45;&gt;Node2 -->
<g id="edge1_Node000001_Node000002" class="edge">
<title>Node1&#45;&gt;Node2</title>
<g id="a_edge1_Node000001_Node000002"><a xlink:title=" ">
<path fill="none" stroke="#63b8ff" d="M320.4,-62.9C300.6,-67.68 278.61,-72.98 259.85,-77.5"/>
<polygon fill="#63b8ff" stroke="#63b8ff" points="321.07,-66.34 329.97,-60.59 319.43,-59.53 321.07,-66.34"/>
</a>
</g>
</g>
<!-- Node4 -->
<g id="Node000004" class="node">
<title>Node4</title>
<g id="a_Node000004"><a xlink:href="classtensorium_1_1Matrix.html#a841f4fd9ec371374184466c1b810b461" target="_top" xlink:title="In&#45;place scalar multiplication: this *= a.">
<polygon fill="white" stroke="#666666" points="275,-59.75 152.5,-59.75 152.5,-39 275,-39 275,-59.75"/>
<text text-anchor="middle" x="213.75" y="-46.25" font-family="Helvetica,sans-Serif" font-size="10.00">tensorium::Matrix::scl</text>
</a>
</g>
</g>
<!-- Node1&#45;&gt;Node4 -->
<g id="edge3_Node000001_Node000004" class="edge">
<title>Node1&#45;&gt;Node4</title>
<g id="a_edge3_Node000001_Node000004"><a xlink:title=" ">
<path fill="none" stroke="#63b8ff" d="M301.59,-49.38C292.81,-49.38 283.94,-49.38 275.39,-49.38"/>
<polygon fill="#63b8ff" stroke="#63b8ff" points="301.52,-52.88 311.52,-49.38 301.52,-45.88 301.52,-52.88"/>
</a>
</g>
</g>
<!-- Node6 -->
<g id="Node000006" class="node">
<title>Node6</title>
<g id="a_Node000006"><a xlink:href="classtensorium_1_1Matrix.html#ab4b1f06030c000b858095307ad1b9a64" target="_top" xlink:title="In&#45;place matrix subtraction: this &#45;= m.">
<polygon fill="white" stroke="#666666" points="276.88,-20.75 150.62,-20.75 150.62,0 276.88,0 276.88,-20.75"/>
<text text-anchor="middle" x="213.75" y="-7.25" font-family="Helvetica,sans-Serif" font-size="10.00">tensorium::Matrix::sub</text>
</a>
</g>
</g>
<!-- Node1&#45;&gt;Node6 -->
<g id="edge5_Node000001_Node000006" class="edge">
<title>Node1&#45;&gt;Node6</title>
<g id="a_edge5_Node000001_Node000006"><a xlink:title=" ">
<path fill="none" stroke="#63b8ff" d="M320.4,-35.85C300.6,-31.07 278.61,-25.77 259.85,-21.25"/>
<polygon fill="#63b8ff" stroke="#63b8ff" points="319.43,-39.22 329.97,-38.16 321.07,-32.41 319.43,-39.22"/>
</a>
</g>
</g>
<!-- Node3 -->
<g id="Node000003" class="node">
<title>Node3</title>
<g id="a_Node000003"><a xlink:href="namespacetensorium.html#a9a79e5e316fefceb930f22229ba6e12b" target="_top" xlink:title=" ">
<polygon fill="white" stroke="#666666" points="114.25,-98.75 0,-98.75 0,-78 114.25,-78 114.25,-98.75"/>
<text text-anchor="middle" x="57.12" y="-85.25" font-family="Helvetica,sans-Serif" font-size="10.00">tensorium::add_mat</text>
</a>
</g>
</g>
<!-- Node2&#45;&gt;Node3 -->
<g id="edge2_Node000002_Node000003" class="edge">
<title>Node2&#45;&gt;Node3</title>
<g id="a_edge2_Node000002_Node000003"><a xlink:title=" ">
<path fill="none" stroke="#63b8ff" d="M138.51,-88.38C130.43,-88.38 122.31,-88.38 114.5,-88.38"/>
<polygon fill="#63b8ff" stroke="#63b8ff" points="138.34,-91.88 148.34,-88.38 138.34,-84.88 138.34,-91.88"/>
</a>
</g>
</g>
<!-- Node5 -->
<g id="Node000005" class="node">
<title>Node5</title>
<g id="a_Node000005"><a xlink:href="namespacetensorium.html#a2207f906782c6a186c09559e5857fc57" target="_top" xlink:title=" ">
<polygon fill="white" stroke="#666666" points="112,-59.75 2.25,-59.75 2.25,-39 112,-39 112,-59.75"/>
<text text-anchor="middle" x="57.12" y="-46.25" font-family="Helvetica,sans-Serif" font-size="10.00">tensorium::scl_mat</text>
</a>
</g>
</g>
<!-- Node4&#45;&gt;Node5 -->
<g id="edge4_Node000004_Node000005" class="edge">
<title>Node4&#45;&gt;Node5</title>
<g id="a_edge4_Node000004_Node000005"><a xlink:title=" ">
<path fill="none" stroke="#63b8ff" d="M140.82,-49.38C131.15,-49.38 121.37,-49.38 112.09,-49.38"/>
<polygon fill="#63b8ff" stroke="#63b8ff" points="140.57,-52.88 150.57,-49.38 140.57,-45.88 140.57,-52.88"/>
</a>
</g>
</g>
<!-- Node7 -->
<g id="Node000007" class="node">
<title>Node7</title>
<g id="a_Node000007"><a xlink:href="namespacetensorium.html#a91dac89d785ff89280a4a316e954a7a2" target="_top" xlink:title=" ">
<polygon fill="white" stroke="#666666" points="113.88,-20.75 0.38,-20.75 0.38,0 113.88,0 113.88,-20.75"/>
<text text-anchor="middle" x="57.12" y="-7.25" font-family="Helvetica,sans-Serif" font-size="10.00">tensorium::sub_mat</text>
</a>
</g>
</g>
<!-- Node6&#45;&gt;Node7 -->
<g id="edge6_Node000006_Node000007" class="edge">
<title>Node6&#45;&gt;Node7</title>
<g id="a_edge6_Node000006_Node000007"><a xlink:title=" ">
<path fill="none" stroke="#63b8ff" d="M139.04,-10.38C130.73,-10.38 122.36,-10.38 114.32,-10.38"/>
<polygon fill="#63b8ff" stroke="#63b8ff" points="138.79,-13.88 148.79,-10.38 138.79,-6.88 138.79,-13.88"/>
</a>
</g>
</g>
</g>
</svg>
