<?xml version="1.0" encoding="UTF-8" standalone="no"?>
<!DOCTYPE svg PUBLIC "-//W3C//DTD SVG 1.1//EN"
 "http://www.w3.org/Graphics/SVG/1.1/DTD/svg11.dtd">
<!-- Generated by graphviz version 10.0.1 (0)
 -->
<!-- Title: tensorium::SpectalChebyshev::compute Pages: 1 -->
<svg width="472pt" height="119pt"
 viewBox="0.00 0.00 471.50 118.75" xmlns="http://www.w3.org/2000/svg" xmlns:xlink="http://www.w3.org/1999/xlink">
<g id="graph0" class="graph" transform="scale(1 1) rotate(0) translate(4 114.75)">
<title>tensorium::SpectalChebyshev::compute</title>
<!-- Node1 -->
<g id="Node000001" class="node">
<title>Node1</title>
<g id="a_Node000001"><a xlink:title="Dummy computation using Chebyshev&#45;like cosine weights.">
<polygon fill="#999999" stroke="#666666" points="161.5,-72.12 0,-72.12 0,-38.62 161.5,-38.62 161.5,-72.12"/>
<text text-anchor="start" x="8" y="-58.62" font-family="Helvetica,sans-Serif" font-size="10.00">tensorium::SpectalChebyshev</text>
<text text-anchor="middle" x="80.75" y="-45.88" font-family="Helvetica,sans-Serif" font-size="10.00">::compute</text>
</a>
</g>
</g>
<!-- Node2 -->
<g id="Node000002" class="node">
<title>Node2</title>
<g id="a_Node000002"><a xlink:href="classtensorium_1_1Tensor.html#ac8095607d268d35f800adf0fe804a97e" target="_top" xlink:title="Fill tensor with a constant value.">
<polygon fill="white" stroke="#666666" points="318.5,-110.75 197.5,-110.75 197.5,-90 318.5,-90 318.5,-110.75"/>
<text text-anchor="middle" x="258" y="-97.25" font-family="Helvetica,sans-Serif" font-size="10.00">tensorium::Tensor::fill</text>
</a>
</g>
</g>
<!-- Node1&#45;&gt;Node2 -->
<g id="edge1_Node000001_Node000002" class="edge">
<title>Node1&#45;&gt;Node2</title>
<g id="a_edge1_Node000001_Node000002"><a xlink:title=" ">
<path fill="none" stroke="#63b8ff" d="M148.5,-72.52C166.75,-77.2 186.29,-82.22 203.68,-86.68"/>
<polygon fill="#63b8ff" stroke="#63b8ff" points="202.74,-90.06 213.3,-89.15 204.48,-83.28 202.74,-90.06"/>
</a>
</g>
</g>
<!-- Node3 -->
<g id="Node000003" class="node">
<title>Node3</title>
<g id="a_Node000003"><a xlink:href="classtensorium_1_1Tensor.html#a06a4e5ac39fcbbe14fca3d05924befbe" target="_top" xlink:title="Resize 2D tensor.">
<polygon fill="white" stroke="#666666" points="312.5,-72.12 203.5,-72.12 203.5,-38.62 312.5,-38.62 312.5,-72.12"/>
<text text-anchor="start" x="211.5" y="-58.62" font-family="Helvetica,sans-Serif" font-size="10.00">tensorium::Tensor::</text>
<text text-anchor="middle" x="258" y="-45.88" font-family="Helvetica,sans-Serif" font-size="10.00">resize</text>
</a>
</g>
</g>
<!-- Node1&#45;&gt;Node3 -->
<g id="edge2_Node000001_Node000003" class="edge">
<title>Node1&#45;&gt;Node3</title>
<g id="a_edge2_Node000001_Node000003"><a xlink:title=" ">
<path fill="none" stroke="#63b8ff" d="M161.94,-55.38C171.98,-55.38 182.15,-55.38 191.92,-55.38"/>
<polygon fill="#63b8ff" stroke="#63b8ff" points="191.66,-58.88 201.66,-55.38 191.66,-51.88 191.66,-58.88"/>
</a>
</g>
</g>
<!-- Node5 -->
<g id="Node000005" class="node">
<title>Node5</title>
<g id="a_Node000005"><a xlink:href="TensoriumDispatchPlugin_8cpp.html#aaf4ed39d5feb1b385de1cd66358ce087" target="_top" xlink:title="Register the plugin under the name &quot;tensorium&#45;dispatch&quot;.">
<polygon fill="white" stroke="#666666" points="272.4,-20.75 243.6,-20.75 243.6,0 272.4,0 272.4,-20.75"/>
<text text-anchor="middle" x="258" y="-7.25" font-family="Helvetica,sans-Serif" font-size="10.00">X</text>
</a>
</g>
</g>
<!-- Node1&#45;&gt;Node5 -->
<g id="edge4_Node000001_Node000005" class="edge">
<title>Node1&#45;&gt;Node5</title>
<g id="a_edge4_Node000001_Node000005"><a xlink:title=" ">
<path fill="none" stroke="#63b8ff" d="M148.5,-38.23C177.89,-30.69 210.59,-22.29 232.34,-16.71"/>
<polygon fill="#63b8ff" stroke="#63b8ff" points="232.92,-20.17 241.73,-14.3 231.18,-13.39 232.92,-20.17"/>
</a>
</g>
</g>
<!-- Node4 -->
<g id="Node000004" class="node">
<title>Node4</title>
<g id="a_Node000004"><a xlink:href="classtensorium_1_1Tensor.html#a1692653b53c6959ae6e1ec213dafdda9" target="_top" xlink:title=" ">
<polygon fill="white" stroke="#666666" points="463.5,-72.12 354.5,-72.12 354.5,-38.62 463.5,-38.62 463.5,-72.12"/>
<text text-anchor="start" x="362.5" y="-58.62" font-family="Helvetica,sans-Serif" font-size="10.00">tensorium::Tensor::</text>
<text text-anchor="middle" x="409" y="-45.88" font-family="Helvetica,sans-Serif" font-size="10.00">update_strides</text>
</a>
</g>
</g>
<!-- Node3&#45;&gt;Node4 -->
<g id="edge3_Node000003_Node000004" class="edge">
<title>Node3&#45;&gt;Node4</title>
<g id="a_edge3_Node000003_Node000004"><a xlink:title=" ">
<path fill="none" stroke="#63b8ff" d="M312.79,-55.38C322.6,-55.38 332.94,-55.38 343.03,-55.38"/>
<polygon fill="#63b8ff" stroke="#63b8ff" points="342.77,-58.88 352.77,-55.38 342.77,-51.88 342.77,-58.88"/>
</a>
</g>
</g>
</g>
</svg>
