<?xml version="1.0" encoding="UTF-8" standalone="no"?>
<!DOCTYPE svg PUBLIC "-//W3C//DTD SVG 1.1//EN"
 "http://www.w3.org/Graphics/SVG/1.1/DTD/svg11.dtd">
<!-- Generated by graphviz version 10.0.1 (0)
 -->
<!-- Title: tensorium::ExtrinsicCurvature::compute_K_scalar Pages: 1 -->
<svg width="524pt" height="77pt"
 viewBox="0.00 0.00 524.00 77.12" xmlns="http://www.w3.org/2000/svg" xmlns:xlink="http://www.w3.org/1999/xlink">
<g id="graph0" class="graph" transform="scale(1 1) rotate(0) translate(4 73.12)">
<title>tensorium::ExtrinsicCurvature::compute_K_scalar</title>
<!-- Node1 -->
<g id="Node000001" class="node">
<title>Node1</title>
<g id="a_Node000001"><a xlink:title=" ">
<polygon fill="#999999" stroke="#666666" points="161.5,-46.12 0,-46.12 0,-12.62 161.5,-12.62 161.5,-46.12"/>
<text text-anchor="start" x="8" y="-32.62" font-family="Helvetica,sans-Serif" font-size="10.00">tensorium::ExtrinsicCurvature</text>
<text text-anchor="middle" x="80.75" y="-19.88" font-family="Helvetica,sans-Serif" font-size="10.00">::compute_K_scalar</text>
</a>
</g>
</g>
<!-- Node2 -->
<g id="Node000002" class="node">
<title>Node2</title>
<g id="a_Node000002"><a xlink:href="classtensorium_1_1ExtrinsicCurvature.html#a3e261159572bb823f3148730474751aa" target="_top" xlink:title=" ">
<polygon fill="white" stroke="#666666" points="359,-69.12 197.5,-69.12 197.5,-35.62 359,-35.62 359,-69.12"/>
<text text-anchor="start" x="205.5" y="-55.62" font-family="Helvetica,sans-Serif" font-size="10.00">tensorium::ExtrinsicCurvature</text>
<text text-anchor="middle" x="278.25" y="-42.88" font-family="Helvetica,sans-Serif" font-size="10.00">::compute_K_tensor</text>
</a>
</g>
</g>
<!-- Node1&#45;&gt;Node2 -->
<g id="edge1_Node000001_Node000002" class="edge">
<title>Node1&#45;&gt;Node2</title>
<g id="a_edge1_Node000001_Node000002"><a xlink:title=" ">
<path fill="none" stroke="#63b8ff" d="M161.83,-38.8C169.79,-39.73 177.9,-40.69 185.96,-41.64"/>
<polygon fill="#63b8ff" stroke="#63b8ff" points="185.45,-45.1 195.79,-42.79 186.27,-38.15 185.45,-45.1"/>
</a>
</g>
</g>
<!-- Node4 -->
<g id="Node000004" class="node">
<title>Node4</title>
<g id="a_Node000004"><a xlink:href="TensoriumDispatchPlugin_8cpp.html#aaf4ed39d5feb1b385de1cd66358ce087" target="_top" xlink:title="Register the plugin under the name &quot;tensorium&#45;dispatch&quot;.">
<polygon fill="white" stroke="#666666" points="469.9,-20.75 441.1,-20.75 441.1,0 469.9,0 469.9,-20.75"/>
<text text-anchor="middle" x="455.5" y="-7.25" font-family="Helvetica,sans-Serif" font-size="10.00">X</text>
</a>
</g>
</g>
<!-- Node1&#45;&gt;Node4 -->
<g id="edge4_Node000001_Node000004" class="edge">
<title>Node1&#45;&gt;Node4</title>
<g id="a_edge4_Node000001_Node000004"><a xlink:title=" ">
<path fill="none" stroke="#63b8ff" d="M161.71,-25.3C246.48,-20.98 375.4,-14.41 429.36,-11.66"/>
<polygon fill="#63b8ff" stroke="#63b8ff" points="429.52,-15.15 439.33,-11.15 429.16,-8.16 429.52,-15.15"/>
</a>
</g>
</g>
<!-- Node3 -->
<g id="Node000003" class="node">
<title>Node3</title>
<g id="a_Node000003"><a xlink:href="classtensorium_1_1Tensor.html#ac8095607d268d35f800adf0fe804a97e" target="_top" xlink:title="Fill tensor with a constant value.">
<polygon fill="white" stroke="#666666" points="516,-62.75 395,-62.75 395,-42 516,-42 516,-62.75"/>
<text text-anchor="middle" x="455.5" y="-49.25" font-family="Helvetica,sans-Serif" font-size="10.00">tensorium::Tensor::fill</text>
</a>
</g>
</g>
<!-- Node2&#45;&gt;Node3 -->
<g id="edge2_Node000002_Node000003" class="edge">
<title>Node2&#45;&gt;Node3</title>
<g id="a_edge2_Node000002_Node000003"><a xlink:title=" ">
<path fill="none" stroke="#63b8ff" d="M359.44,-52.38C367.37,-52.38 375.39,-52.38 383.22,-52.38"/>
<polygon fill="#63b8ff" stroke="#63b8ff" points="383.02,-55.88 393.02,-52.38 383.02,-48.88 383.02,-55.88"/>
</a>
</g>
</g>
<!-- Node2&#45;&gt;Node4 -->
<g id="edge3_Node000002_Node000004" class="edge">
<title>Node2&#45;&gt;Node4</title>
<g id="a_edge3_Node000002_Node000004"><a xlink:title=" ">
<path fill="none" stroke="#63b8ff" d="M351.04,-35.17C379.04,-28.46 409.27,-21.22 429.78,-16.3"/>
<polygon fill="#63b8ff" stroke="#63b8ff" points="430.53,-19.72 439.44,-13.98 428.9,-12.91 430.53,-19.72"/>
</a>
</g>
</g>
</g>
</svg>
