<?xml version="1.0" encoding="UTF-8" standalone="no"?>
<!DOCTYPE svg PUBLIC "-//W3C//DTD SVG 1.1//EN"
 "http://www.w3.org/Graphics/SVG/1.1/DTD/svg11.dtd">
<!-- Generated by graphviz version 10.0.1 (0)
 -->
<!-- Title: includes/Tensorium/Core/Matrix.hpp Pages: 1 -->
<svg width="983pt" height="281pt"
 viewBox="0.00 0.00 982.97 281.25" xmlns="http://www.w3.org/2000/svg" xmlns:xlink="http://www.w3.org/1999/xlink">
<g id="graph0" class="graph" transform="scale(1 1) rotate(0) translate(4 277.25)">
<title>includes/Tensorium/Core/Matrix.hpp</title>
<!-- Node1 -->
<g id="Node000001" class="node">
<title>Node1</title>
<g id="a_Node000001"><a xlink:title=" ">
<polygon fill="#999999" stroke="#666666" points="543.38,-273.25 433.62,-273.25 433.62,-239.75 543.38,-239.75 543.38,-273.25"/>
<text text-anchor="start" x="441.62" y="-259.75" font-family="Helvetica,sans-Serif" font-size="10.00">includes/Tensorium</text>
<text text-anchor="middle" x="488.5" y="-247" font-family="Helvetica,sans-Serif" font-size="10.00">/Core/Matrix.hpp</text>
</a>
</g>
</g>
<!-- Node2 -->
<g id="Node000002" class="node">
<title>Node2</title>
<g id="a_Node000002"><a xlink:href="MathsUtils_8hpp.html" target="_top" xlink:title=" ">
<polygon fill="white" stroke="#666666" points="398.88,-134.25 250.12,-134.25 250.12,-113.5 398.88,-113.5 398.88,-134.25"/>
<text text-anchor="middle" x="324.5" y="-120.75" font-family="Helvetica,sans-Serif" font-size="10.00">../MathUtils/MathsUtils.hpp</text>
</a>
</g>
</g>
<!-- Node1&#45;&gt;Node2 -->
<g id="edge1_Node000001_Node000002" class="edge">
<title>Node1&#45;&gt;Node2</title>
<g id="a_edge1_Node000001_Node000002"><a xlink:title=" ">
<path fill="none" stroke="#63b8ff" d="M462.92,-239.3C447.88,-229.49 428.71,-216.44 412.5,-203.75 387.19,-183.93 359.9,-158.83 342.53,-142.33"/>
<polygon fill="#63b8ff" stroke="#63b8ff" points="345.15,-139.99 335.51,-135.61 340.31,-145.05 345.15,-139.99"/>
</a>
</g>
</g>
<!-- Node3 -->
<g id="Node000003" class="node">
<title>Node3</title>
<g id="a_Node000003"><a xlink:href="Allocator_8hpp.html" target="_top" xlink:title=" ">
<polygon fill="white" stroke="#666666" points="610.12,-134.25 492.88,-134.25 492.88,-113.5 610.12,-113.5 610.12,-134.25"/>
<text text-anchor="middle" x="551.5" y="-120.75" font-family="Helvetica,sans-Serif" font-size="10.00">../SIMD/Allocator.hpp</text>
</a>
</g>
</g>
<!-- Node1&#45;&gt;Node3 -->
<g id="edge2_Node000001_Node000003" class="edge">
<title>Node1&#45;&gt;Node3</title>
<g id="a_edge2_Node000001_Node000003"><a xlink:title=" ">
<path fill="none" stroke="#63b8ff" d="M496.23,-239.48C507.73,-215.63 529.35,-170.79 541.87,-144.83"/>
<polygon fill="#63b8ff" stroke="#63b8ff" points="544.92,-146.57 546.11,-136.04 538.62,-143.53 544.92,-146.57"/>
</a>
</g>
</g>
<!-- Node4 -->
<g id="Node000004" class="node">
<title>Node4</title>
<g id="a_Node000004"><a xlink:href="SIMD_8hpp.html" target="_top" xlink:title=" ">
<polygon fill="white" stroke="#666666" points="634.75,-77.5 572.25,-77.5 572.25,-56.75 634.75,-56.75 634.75,-77.5"/>
<text text-anchor="middle" x="603.5" y="-64" font-family="Helvetica,sans-Serif" font-size="10.00">SIMD.hpp</text>
</a>
</g>
</g>
<!-- Node1&#45;&gt;Node4 -->
<g id="edge20_Node000001_Node000004" class="edge">
<title>Node1&#45;&gt;Node4</title>
<g id="a_edge20_Node000001_Node000004"><a xlink:title=" ">
<path fill="none" stroke="#63b8ff" d="M543.4,-248.27C594.33,-240.29 664.71,-225.63 681.5,-203.75 695.1,-186.02 669,-115.7 667.5,-113.5 659.11,-101.19 646.21,-91.11 634.18,-83.61"/>
<polygon fill="#63b8ff" stroke="#63b8ff" points="636.11,-80.69 625.71,-78.68 632.59,-86.74 636.11,-80.69"/>
</a>
</g>
</g>
<!-- Node5 -->
<g id="Node000005" class="node">
<title>Node5</title>
<g id="a_Node000005"><a xlink:title=" ">
<polygon fill="#e0e0e0" stroke="#999999" points="73,-20.75 0,-20.75 0,0 73,0 73,-20.75"/>
<text text-anchor="middle" x="36.5" y="-7.25" font-family="Helvetica,sans-Serif" font-size="10.00">immintrin.h</text>
</a>
</g>
</g>
<!-- Node1&#45;&gt;Node5 -->
<g id="edge39_Node000001_Node000005" class="edge">
<title>Node1&#45;&gt;Node5</title>
<g id="a_edge39_Node000001_Node000005"><a xlink:title=" ">
<path fill="none" stroke="#63b8ff" d="M433.45,-255.4C334.1,-254.15 130.06,-246.31 75.5,-203.75 23.26,-163 27.87,-73.19 33.12,-32.34"/>
<polygon fill="#63b8ff" stroke="#63b8ff" points="36.55,-33.03 34.52,-22.63 29.63,-32.02 36.55,-33.03"/>
</a>
</g>
</g>
<!-- Node8 -->
<g id="Node000008" class="node">
<title>Node8</title>
<g id="a_Node000008"><a xlink:title=" ">
<polygon fill="#e0e0e0" stroke="#999999" points="423.88,-20.75 377.12,-20.75 377.12,0 423.88,0 423.88,-20.75"/>
<text text-anchor="middle" x="400.5" y="-7.25" font-family="Helvetica,sans-Serif" font-size="10.00">vector</text>
</a>
</g>
</g>
<!-- Node1&#45;&gt;Node8 -->
<g id="edge41_Node000001_Node000008" class="edge">
<title>Node1&#45;&gt;Node8</title>
<g id="a_edge41_Node000001_Node000008"><a xlink:title=" ">
<path fill="none" stroke="#63b8ff" d="M433.25,-251.01C348.31,-243.5 190.05,-226.89 138.5,-203.75 94.61,-184.05 75.86,-177.85 55.5,-134.25 51.6,-125.89 49.98,-120.89 55.5,-113.5 93.22,-63 285.89,-28.65 365.76,-16.37"/>
<polygon fill="#63b8ff" stroke="#63b8ff" points="365.83,-19.9 375.19,-14.95 364.78,-12.98 365.83,-19.9"/>
</a>
</g>
</g>
<!-- Node12 -->
<g id="Node000012" class="node">
<title>Node12</title>
<g id="a_Node000012"><a xlink:title=" ">
<polygon fill="#e0e0e0" stroke="#999999" points="874.25,-20.75 814.75,-20.75 814.75,0 874.25,0 874.25,-20.75"/>
<text text-anchor="middle" x="844.5" y="-7.25" font-family="Helvetica,sans-Serif" font-size="10.00">iostream</text>
</a>
</g>
</g>
<!-- Node1&#45;&gt;Node12 -->
<g id="edge40_Node000001_Node000012" class="edge">
<title>Node1&#45;&gt;Node12</title>
<g id="a_edge40_Node000001_Node000012"><a xlink:title=" ">
<path fill="none" stroke="#63b8ff" d="M543.62,-253.7C614.85,-249.99 741.9,-238.62 844.5,-203.75 904.32,-183.42 936.56,-188.76 968.5,-134.25 995.73,-87.77 925.37,-46.6 879.81,-25.77"/>
<polygon fill="#63b8ff" stroke="#63b8ff" points="881.34,-22.62 870.77,-21.77 878.5,-29.02 881.34,-22.62"/>
</a>
</g>
</g>
<!-- Node13 -->
<g id="Node000013" class="node">
<title>Node13</title>
<g id="a_Node000013"><a xlink:title=" ">
<polygon fill="#e0e0e0" stroke="#999999" points="478.88,-77.5 432.12,-77.5 432.12,-56.75 478.88,-56.75 478.88,-77.5"/>
<text text-anchor="middle" x="455.5" y="-64" font-family="Helvetica,sans-Serif" font-size="10.00">cmath</text>
</a>
</g>
</g>
<!-- Node1&#45;&gt;Node13 -->
<g id="edge38_Node000001_Node000013" class="edge">
<title>Node1&#45;&gt;Node13</title>
<g id="a_edge38_Node000001_Node000013"><a xlink:title=" ">
<path fill="none" stroke="#63b8ff" d="M485.26,-239.45C480.62,-216.27 471.94,-172.06 465.5,-134.25 462.9,-118.98 460.29,-101.68 458.39,-88.6"/>
<polygon fill="#63b8ff" stroke="#63b8ff" points="461.91,-88.46 457.03,-79.06 454.98,-89.45 461.91,-88.46"/>
</a>
</g>
</g>
<!-- Node14 -->
<g id="Node000014" class="node">
<title>Node14</title>
<g id="a_Node000014"><a xlink:href="CPU__id_8hpp.html" target="_top" xlink:title=" ">
<polygon fill="white" stroke="#666666" points="890,-134.25 781,-134.25 781,-113.5 890,-113.5 890,-134.25"/>
<text text-anchor="middle" x="835.5" y="-120.75" font-family="Helvetica,sans-Serif" font-size="10.00">../SIMD/CPU_id.hpp</text>
</a>
</g>
</g>
<!-- Node1&#45;&gt;Node14 -->
<g id="edge15_Node000001_Node000014" class="edge">
<title>Node1&#45;&gt;Node14</title>
<g id="a_edge15_Node000001_Node000014"><a xlink:title=" ">
<path fill="none" stroke="#63b8ff" d="M543.84,-255.68C602.71,-253.58 696.77,-243.5 766.5,-203.75 791.61,-189.44 812.12,-162.53 824.07,-144.16"/>
<polygon fill="#63b8ff" stroke="#63b8ff" points="826.98,-146.11 829.29,-135.77 821.04,-142.41 826.98,-146.11"/>
</a>
</g>
</g>
<!-- Node17 -->
<g id="Node000017" class="node">
<title>Node17</title>
<g id="a_Node000017"><a xlink:href="GemmKernel__bigger_8hpp.html" target="_top" xlink:title=" ">
<polygon fill="white" stroke="#666666" points="297.62,-203.75 147.38,-203.75 147.38,-170.25 297.62,-170.25 297.62,-203.75"/>
<text text-anchor="start" x="155.38" y="-190.25" font-family="Helvetica,sans-Serif" font-size="10.00">MatrixKernels/GemmKernel</text>
<text text-anchor="middle" x="222.5" y="-177.5" font-family="Helvetica,sans-Serif" font-size="10.00">_bigger.hpp</text>
</a>
</g>
</g>
<!-- Node1&#45;&gt;Node17 -->
<g id="edge21_Node000001_Node000017" class="edge">
<title>Node1&#45;&gt;Node17</title>
<g id="a_edge21_Node000001_Node000017"><a xlink:title=" ">
<path fill="none" stroke="#63b8ff" d="M433.38,-242.88C392.09,-232.79 335.42,-218.47 291.19,-206.99"/>
<polygon fill="#63b8ff" stroke="#63b8ff" points="292.26,-203.65 281.7,-204.52 290.49,-210.42 292.26,-203.65"/>
</a>
</g>
</g>
<!-- Node20 -->
<g id="Node000020" class="node">
<title>Node20</title>
<g id="a_Node000020"><a xlink:href="Vector_8hpp.html" target="_top" xlink:title=" ">
<polygon fill="white" stroke="#666666" points="672,-197.38 605,-197.38 605,-176.62 672,-176.62 672,-197.38"/>
<text text-anchor="middle" x="638.5" y="-183.88" font-family="Helvetica,sans-Serif" font-size="10.00">Vector.hpp</text>
</a>
</g>
</g>
<!-- Node1&#45;&gt;Node20 -->
<g id="edge28_Node000001_Node000020" class="edge">
<title>Node1&#45;&gt;Node20</title>
<g id="a_edge28_Node000001_Node000020"><a xlink:title=" ">
<path fill="none" stroke="#63b8ff" d="M524.43,-239.33C549.38,-228.1 582.34,-213.27 606.41,-202.44"/>
<polygon fill="#63b8ff" stroke="#63b8ff" points="607.72,-205.69 615.41,-198.39 604.85,-199.3 607.72,-205.69"/>
</a>
</g>
</g>
<!-- Node21 -->
<g id="Node000021" class="node">
<title>Node21</title>
<g id="a_Node000021"><a xlink:title=" ">
<polygon fill="#e0e0e0" stroke="#999999" points="959.12,-134.25 907.88,-134.25 907.88,-113.5 959.12,-113.5 959.12,-134.25"/>
<text text-anchor="middle" x="933.5" y="-120.75" font-family="Helvetica,sans-Serif" font-size="10.00">cassert</text>
</a>
</g>
</g>
<!-- Node1&#45;&gt;Node21 -->
<g id="edge37_Node000001_Node000021" class="edge">
<title>Node1&#45;&gt;Node21</title>
<g id="a_edge37_Node000001_Node000021"><a xlink:title=" ">
<path fill="none" stroke="#63b8ff" d="M543.78,-252.32C607,-247.32 712.81,-234.75 798.5,-203.75 841.09,-188.34 885.51,-159.51 911.28,-141.3"/>
<polygon fill="#63b8ff" stroke="#63b8ff" points="913.21,-144.23 919.28,-135.55 909.12,-138.55 913.21,-144.23"/>
</a>
</g>
</g>
<!-- Node3&#45;&gt;Node4 -->
<g id="edge3_Node000003_Node000004" class="edge">
<title>Node3&#45;&gt;Node4</title>
<g id="a_edge3_Node000003_Node000004"><a xlink:title=" ">
<path fill="none" stroke="#63b8ff" d="M560.8,-113.09C567.9,-105.61 577.87,-95.11 586.4,-86.13"/>
<polygon fill="#63b8ff" stroke="#63b8ff" points="588.89,-88.59 593.24,-78.93 583.82,-83.77 588.89,-88.59"/>
</a>
</g>
</g>
<!-- Node3&#45;&gt;Node8 -->
<g id="edge14_Node000003_Node000008" class="edge">
<title>Node3&#45;&gt;Node8</title>
<g id="a_edge14_Node000003_Node000008"><a xlink:title=" ">
<path fill="none" stroke="#63b8ff" d="M544.02,-113.4C532.82,-99.66 510.55,-73.95 487.5,-56.75 471.26,-44.63 451.33,-33.98 434.65,-26.04"/>
<polygon fill="#63b8ff" stroke="#63b8ff" points="436.14,-22.88 425.6,-21.87 433.21,-29.24 436.14,-22.88"/>
</a>
</g>
</g>
<!-- Node3&#45;&gt;Node12 -->
<g id="edge12_Node000003_Node000012" class="edge">
<title>Node3&#45;&gt;Node12</title>
<g id="a_edge12_Node000003_Node000012"><a xlink:title=" ">
<path fill="none" stroke="#63b8ff" d="M594.31,-113.03C626.94,-104.97 672.72,-92.49 711.5,-77.5 716.79,-75.46 777.64,-44.98 815.18,-26.13"/>
<polygon fill="#63b8ff" stroke="#63b8ff" points="816.36,-29.45 823.73,-21.83 813.22,-23.19 816.36,-29.45"/>
</a>
</g>
</g>
<!-- Node3&#45;&gt;Node13 -->
<g id="edge13_Node000003_Node000013" class="edge">
<title>Node3&#45;&gt;Node13</title>
<g id="a_edge13_Node000003_Node000013"><a xlink:title=" ">
<path fill="none" stroke="#63b8ff" d="M534.34,-113.09C519.87,-104.83 498.91,-92.88 482.24,-83.38"/>
<polygon fill="#63b8ff" stroke="#63b8ff" points="484.25,-80.49 473.83,-78.58 480.78,-86.57 484.25,-80.49"/>
</a>
</g>
</g>
<!-- Node4&#45;&gt;Node5 -->
<g id="edge4_Node000004_Node000005" class="edge">
<title>Node4&#45;&gt;Node5</title>
<g id="a_edge4_Node000004_Node000005"><a xlink:title=" ">
<path fill="none" stroke="#63b8ff" d="M571.8,-63.06C477.42,-53.95 197.83,-26.95 84.76,-16.03"/>
<polygon fill="#63b8ff" stroke="#63b8ff" points="85.19,-12.56 74.9,-15.08 84.52,-19.53 85.19,-12.56"/>
</a>
</g>
</g>
<!-- Node6 -->
<g id="Node000006" class="node">
<title>Node6</title>
<g id="a_Node000006"><a xlink:title=" ">
<polygon fill="#e0e0e0" stroke="#999999" points="645.5,-20.75 593.5,-20.75 593.5,0 645.5,0 645.5,-20.75"/>
<text text-anchor="middle" x="619.5" y="-7.25" font-family="Helvetica,sans-Serif" font-size="10.00">cstddef</text>
</a>
</g>
</g>
<!-- Node4&#45;&gt;Node6 -->
<g id="edge5_Node000004_Node000006" class="edge">
<title>Node4&#45;&gt;Node6</title>
<g id="a_edge5_Node000004_Node000006"><a xlink:title=" ">
<path fill="none" stroke="#63b8ff" d="M606.36,-56.34C608.34,-49.56 611.05,-40.3 613.49,-31.94"/>
<polygon fill="#63b8ff" stroke="#63b8ff" points="616.79,-33.11 616.24,-22.53 610.08,-31.15 616.79,-33.11"/>
</a>
</g>
</g>
<!-- Node7 -->
<g id="Node000007" class="node">
<title>Node7</title>
<g id="a_Node000007"><a xlink:title=" ">
<polygon fill="#e0e0e0" stroke="#999999" points="727.5,-20.75 663.5,-20.75 663.5,0 727.5,0 727.5,-20.75"/>
<text text-anchor="middle" x="695.5" y="-7.25" font-family="Helvetica,sans-Serif" font-size="10.00">stdexcept</text>
</a>
</g>
</g>
<!-- Node4&#45;&gt;Node7 -->
<g id="edge6_Node000004_Node000007" class="edge">
<title>Node4&#45;&gt;Node7</title>
<g id="a_edge6_Node000004_Node000007"><a xlink:title=" ">
<path fill="none" stroke="#63b8ff" d="M619.95,-56.34C633.68,-48.16 653.52,-36.36 669.42,-26.9"/>
<polygon fill="#63b8ff" stroke="#63b8ff" points="671.09,-29.97 677.89,-21.85 667.51,-23.96 671.09,-29.97"/>
</a>
</g>
</g>
<!-- Node4&#45;&gt;Node8 -->
<g id="edge7_Node000004_Node000008" class="edge">
<title>Node4&#45;&gt;Node8</title>
<g id="a_edge7_Node000004_Node000008"><a xlink:title=" ">
<path fill="none" stroke="#63b8ff" d="M571.92,-58C539.77,-49.68 488.21,-36.18 435.21,-21.46"/>
<polygon fill="#63b8ff" stroke="#63b8ff" points="436.28,-18.13 425.7,-18.81 434.4,-24.87 436.28,-18.13"/>
</a>
</g>
</g>
<!-- Node9 -->
<g id="Node000009" class="node">
<title>Node9</title>
<g id="a_Node000009"><a xlink:title=" ">
<polygon fill="#e0e0e0" stroke="#999999" points="797.12,-20.75 745.88,-20.75 745.88,0 797.12,0 797.12,-20.75"/>
<text text-anchor="middle" x="771.5" y="-7.25" font-family="Helvetica,sans-Serif" font-size="10.00">cpuid.h</text>
</a>
</g>
</g>
<!-- Node4&#45;&gt;Node9 -->
<g id="edge8_Node000004_Node000009" class="edge">
<title>Node4&#45;&gt;Node9</title>
<g id="a_edge8_Node000004_Node000009"><a xlink:title=" ">
<path fill="none" stroke="#63b8ff" d="M633.54,-56.34C661.95,-47.08 704.64,-33.16 735,-23.27"/>
<polygon fill="#63b8ff" stroke="#63b8ff" points="735.72,-26.72 744.14,-20.29 733.55,-20.06 735.72,-26.72"/>
</a>
</g>
</g>
<!-- Node10 -->
<g id="Node000010" class="node">
<title>Node10</title>
<g id="a_Node000010"><a xlink:title=" ">
<polygon fill="#e0e0e0" stroke="#999999" points="499.12,-20.75 441.88,-20.75 441.88,0 499.12,0 499.12,-20.75"/>
<text text-anchor="middle" x="470.5" y="-7.25" font-family="Helvetica,sans-Serif" font-size="10.00">memory</text>
</a>
</g>
</g>
<!-- Node4&#45;&gt;Node10 -->
<g id="edge9_Node000004_Node000010" class="edge">
<title>Node4&#45;&gt;Node10</title>
<g id="a_edge9_Node000004_Node000010"><a xlink:title=" ">
<path fill="none" stroke="#63b8ff" d="M579.72,-56.34C558.82,-47.73 528.16,-35.11 504.64,-25.43"/>
<polygon fill="#63b8ff" stroke="#63b8ff" points="506.05,-22.22 495.47,-21.65 503.39,-28.7 506.05,-22.22"/>
</a>
</g>
</g>
<!-- Node11 -->
<g id="Node000011" class="node">
<title>Node11</title>
<g id="a_Node000011"><a xlink:title=" ">
<polygon fill="#e0e0e0" stroke="#999999" points="575.5,-20.75 517.5,-20.75 517.5,0 575.5,0 575.5,-20.75"/>
<text text-anchor="middle" x="546.5" y="-7.25" font-family="Helvetica,sans-Serif" font-size="10.00">complex</text>
</a>
</g>
</g>
<!-- Node4&#45;&gt;Node11 -->
<g id="edge10_Node000004_Node000011" class="edge">
<title>Node4&#45;&gt;Node11</title>
<g id="a_edge10_Node000004_Node000011"><a xlink:title=" ">
<path fill="none" stroke="#63b8ff" d="M593.31,-56.34C585.37,-48.71 574.13,-37.92 564.66,-28.82"/>
<polygon fill="#63b8ff" stroke="#63b8ff" points="567.33,-26.53 557.69,-22.13 562.48,-31.58 567.33,-26.53"/>
</a>
</g>
</g>
<!-- Node4&#45;&gt;Node12 -->
<g id="edge11_Node000004_Node000012" class="edge">
<title>Node4&#45;&gt;Node12</title>
<g id="a_edge11_Node000004_Node000012"><a xlink:title=" ">
<path fill="none" stroke="#63b8ff" d="M634.83,-58.94C638.1,-58.2 641.37,-57.46 644.5,-56.75 713.08,-41.29 732.86,-37.89 803.8,-21.35"/>
<polygon fill="#63b8ff" stroke="#63b8ff" points="804.23,-24.84 813.17,-19.15 802.64,-18.03 804.23,-24.84"/>
</a>
</g>
</g>
<!-- Node14&#45;&gt;Node9 -->
<g id="edge16_Node000014_Node000009" class="edge">
<title>Node14&#45;&gt;Node9</title>
<g id="a_edge16_Node000014_Node000009"><a xlink:title=" ">
<path fill="none" stroke="#63b8ff" d="M830.04,-113.37C819.61,-95.19 796.64,-55.17 782.78,-31.02"/>
<polygon fill="#63b8ff" stroke="#63b8ff" points="785.89,-29.42 777.88,-22.49 779.82,-32.9 785.89,-29.42"/>
</a>
</g>
</g>
<!-- Node14&#45;&gt;Node12 -->
<g id="edge19_Node000014_Node000012" class="edge">
<title>Node14&#45;&gt;Node12</title>
<g id="a_edge19_Node000014_Node000012"><a xlink:title=" ">
<path fill="none" stroke="#63b8ff" d="M836.27,-113.37C837.71,-95.52 840.85,-56.61 842.81,-32.34"/>
<polygon fill="#63b8ff" stroke="#63b8ff" points="846.27,-32.93 843.59,-22.68 839.29,-32.37 846.27,-32.93"/>
</a>
</g>
</g>
<!-- Node15 -->
<g id="Node000015" class="node">
<title>Node15</title>
<g id="a_Node000015"><a xlink:title=" ">
<polygon fill="#e0e0e0" stroke="#999999" points="702,-77.5 653,-77.5 653,-56.75 702,-56.75 702,-77.5"/>
<text text-anchor="middle" x="677.5" y="-64" font-family="Helvetica,sans-Serif" font-size="10.00">cstring</text>
</a>
</g>
</g>
<!-- Node14&#45;&gt;Node15 -->
<g id="edge17_Node000014_Node000015" class="edge">
<title>Node14&#45;&gt;Node15</title>
<g id="a_edge17_Node000014_Node000015"><a xlink:title=" ">
<path fill="none" stroke="#63b8ff" d="M807.25,-113.09C780.92,-103.96 741.55,-90.32 713.09,-80.46"/>
<polygon fill="#63b8ff" stroke="#63b8ff" points="714.41,-77.21 703.81,-77.24 712.12,-83.82 714.41,-77.21"/>
</a>
</g>
</g>
<!-- Node16 -->
<g id="Node000016" class="node">
<title>Node16</title>
<g id="a_Node000016"><a xlink:title=" ">
<polygon fill="#e0e0e0" stroke="#999999" points="916.38,-77.5 872.62,-77.5 872.62,-56.75 916.38,-56.75 916.38,-77.5"/>
<text text-anchor="middle" x="894.5" y="-64" font-family="Helvetica,sans-Serif" font-size="10.00">string</text>
</a>
</g>
</g>
<!-- Node14&#45;&gt;Node16 -->
<g id="edge18_Node000014_Node000016" class="edge">
<title>Node14&#45;&gt;Node16</title>
<g id="a_edge18_Node000014_Node000016"><a xlink:title=" ">
<path fill="none" stroke="#63b8ff" d="M846.05,-113.09C854.27,-105.46 865.9,-94.67 875.7,-85.57"/>
<polygon fill="#63b8ff" stroke="#63b8ff" points="877.98,-88.23 882.93,-78.86 873.22,-83.09 877.98,-88.23"/>
</a>
</g>
</g>
<!-- Node17&#45;&gt;Node1 -->
<g id="edge23_Node000017_Node000001" class="edge">
<title>Node17&#45;&gt;Node1</title>
<g id="a_edge23_Node000017_Node000001"><a xlink:title=" ">
<path fill="none" stroke="#63b8ff" d="M292.35,-204.24C332.5,-214.14 382.59,-226.84 422.14,-237.12"/>
<polygon fill="#63b8ff" stroke="#63b8ff" points="421.23,-240.5 431.79,-239.63 423,-233.72 421.23,-240.5"/>
</a>
</g>
</g>
<!-- Node17&#45;&gt;Node2 -->
<g id="edge22_Node000017_Node000002" class="edge">
<title>Node17&#45;&gt;Node2</title>
<g id="a_edge22_Node000017_Node000002"><a xlink:title=" ">
<path fill="none" stroke="#63b8ff" d="M249.57,-169.78C264.72,-160.7 283.52,-149.43 298.5,-140.46"/>
<polygon fill="#63b8ff" stroke="#63b8ff" points="300.09,-143.59 306.86,-135.44 296.49,-137.58 300.09,-143.59"/>
</a>
</g>
</g>
<!-- Node17&#45;&gt;Node5 -->
<g id="edge27_Node000017_Node000005" class="edge">
<title>Node17&#45;&gt;Node5</title>
<g id="a_edge27_Node000017_Node000005"><a xlink:title=" ">
<path fill="none" stroke="#63b8ff" d="M147.07,-180.25C114.32,-173.81 78.3,-160.68 55.5,-134.25 30.91,-105.75 31,-59.06 33.56,-32.19"/>
<polygon fill="#63b8ff" stroke="#63b8ff" points="37,-32.91 34.7,-22.57 30.05,-32.09 37,-32.91"/>
</a>
</g>
</g>
<!-- Node17&#45;&gt;Node15 -->
<g id="edge26_Node000017_Node000015" class="edge">
<title>Node17&#45;&gt;Node15</title>
<g id="a_edge26_Node000017_Node000015"><a xlink:title=" ">
<path fill="none" stroke="#63b8ff" d="M221.78,-169.98C221.99,-153.16 225.2,-127.28 241.5,-113.5 307.51,-57.68 537.75,-90.87 641.61,-77.24"/>
<polygon fill="#63b8ff" stroke="#63b8ff" points="641.9,-80.74 651.24,-75.74 640.82,-73.82 641.9,-80.74"/>
</a>
</g>
</g>
<!-- Node18 -->
<g id="Node000018" class="node">
<title>Node18</title>
<g id="a_Node000018"><a xlink:title=" ">
<polygon fill="#e0e0e0" stroke="#999999" points="194.12,-134.25 130.88,-134.25 130.88,-113.5 194.12,-113.5 194.12,-134.25"/>
<text text-anchor="middle" x="162.5" y="-120.75" font-family="Helvetica,sans-Serif" font-size="10.00">algorithm</text>
</a>
</g>
</g>
<!-- Node17&#45;&gt;Node18 -->
<g id="edge24_Node000017_Node000018" class="edge">
<title>Node17&#45;&gt;Node18</title>
<g id="a_edge24_Node000017_Node000018"><a xlink:title=" ">
<path fill="none" stroke="#63b8ff" d="M206.74,-169.94C198.59,-161.64 188.63,-151.49 180.22,-142.93"/>
<polygon fill="#63b8ff" stroke="#63b8ff" points="182.72,-140.48 173.22,-135.8 177.73,-145.39 182.72,-140.48"/>
</a>
</g>
</g>
<!-- Node19 -->
<g id="Node000019" class="node">
<title>Node19</title>
<g id="a_Node000019"><a xlink:title=" ">
<polygon fill="#e0e0e0" stroke="#999999" points="112.62,-134.25 64.38,-134.25 64.38,-113.5 112.62,-113.5 112.62,-134.25"/>
<text text-anchor="middle" x="88.5" y="-120.75" font-family="Helvetica,sans-Serif" font-size="10.00">cstdlib</text>
</a>
</g>
</g>
<!-- Node17&#45;&gt;Node19 -->
<g id="edge25_Node000017_Node000019" class="edge">
<title>Node17&#45;&gt;Node19</title>
<g id="a_edge25_Node000017_Node000019"><a xlink:title=" ">
<path fill="none" stroke="#63b8ff" d="M186.94,-169.78C166.27,-160.35 140.43,-148.56 120.41,-139.43"/>
<polygon fill="#63b8ff" stroke="#63b8ff" points="121.89,-136.26 111.34,-135.29 118.98,-142.63 121.89,-136.26"/>
</a>
</g>
</g>
<!-- Node20&#45;&gt;Node2 -->
<g id="edge29_Node000020_Node000002" class="edge">
<title>Node20&#45;&gt;Node2</title>
<g id="a_edge29_Node000020_Node000002"><a xlink:title=" ">
<path fill="none" stroke="#63b8ff" d="M604.6,-179.4C552.35,-169.23 451.38,-149.57 386.01,-136.85"/>
<polygon fill="#63b8ff" stroke="#63b8ff" points="387.01,-133.48 376.53,-135 385.67,-140.35 387.01,-133.48"/>
</a>
</g>
</g>
<!-- Node20&#45;&gt;Node3 -->
<g id="edge30_Node000020_Node000003" class="edge">
<title>Node20&#45;&gt;Node3</title>
<g id="a_edge30_Node000020_Node000003"><a xlink:title=" ">
<path fill="none" stroke="#63b8ff" d="M624.52,-176.18C611.08,-166.73 590.51,-152.28 574.62,-141.12"/>
<polygon fill="#63b8ff" stroke="#63b8ff" points="576.88,-138.43 566.68,-135.54 572.85,-144.15 576.88,-138.43"/>
</a>
</g>
</g>
<!-- Node20&#45;&gt;Node4 -->
<g id="edge32_Node000020_Node000004" class="edge">
<title>Node20&#45;&gt;Node4</title>
<g id="a_edge32_Node000020_Node000004"><a xlink:title=" ">
<path fill="none" stroke="#63b8ff" d="M643.91,-176.22C651.06,-161.9 661.74,-134.64 652.5,-113.5 647.49,-102.03 637.98,-92.16 628.67,-84.58"/>
<polygon fill="#63b8ff" stroke="#63b8ff" points="630.91,-81.89 620.8,-78.7 626.72,-87.49 630.91,-81.89"/>
</a>
</g>
</g>
<!-- Node20&#45;&gt;Node8 -->
<g id="edge36_Node000020_Node000008" class="edge">
<title>Node20&#45;&gt;Node8</title>
<g id="a_edge36_Node000020_Node000008"><a xlink:title=" ">
<path fill="none" stroke="#63b8ff" d="M638.34,-176.24C637.62,-161.21 634.25,-132.2 619.5,-113.5 602.95,-92.52 537.71,-68.05 513.5,-56.75 487.61,-44.66 457.56,-32.69 434.95,-24.08"/>
<polygon fill="#63b8ff" stroke="#63b8ff" points="436.2,-20.81 425.61,-20.56 433.73,-27.36 436.2,-20.81"/>
</a>
</g>
</g>
<!-- Node20&#45;&gt;Node12 -->
<g id="edge35_Node000020_Node000012" class="edge">
<title>Node20&#45;&gt;Node12</title>
<g id="a_edge35_Node000020_Node000012"><a xlink:title=" ">
<path fill="none" stroke="#63b8ff" d="M649.87,-176.36C683.27,-148.05 781.46,-64.82 824.21,-28.57"/>
<polygon fill="#63b8ff" stroke="#63b8ff" points="826.39,-31.31 831.76,-22.18 821.87,-25.97 826.39,-31.31"/>
</a>
</g>
</g>
<!-- Node20&#45;&gt;Node13 -->
<g id="edge34_Node000020_Node000013" class="edge">
<title>Node20&#45;&gt;Node13</title>
<g id="a_edge34_Node000020_Node000013"><a xlink:title=" ">
<path fill="none" stroke="#63b8ff" d="M604.8,-182.81C570.35,-177.89 517.25,-165.45 483.5,-134.25 470.48,-122.22 463.29,-103.15 459.46,-88.58"/>
<polygon fill="#63b8ff" stroke="#63b8ff" points="462.95,-88.1 457.32,-79.12 456.12,-89.65 462.95,-88.1"/>
</a>
</g>
</g>
<!-- Node20&#45;&gt;Node14 -->
<g id="edge31_Node000020_Node000014" class="edge">
<title>Node20&#45;&gt;Node14</title>
<g id="a_edge31_Node000020_Node000014"><a xlink:title=" ">
<path fill="none" stroke="#63b8ff" d="M670.15,-176.18C703.47,-165.84 756.1,-149.51 793.01,-138.06"/>
<polygon fill="#63b8ff" stroke="#63b8ff" points="793.97,-141.43 802.48,-135.12 791.89,-134.74 793.97,-141.43"/>
</a>
</g>
</g>
<!-- Node20&#45;&gt;Node21 -->
<g id="edge33_Node000020_Node000021" class="edge">
<title>Node20&#45;&gt;Node21</title>
<g id="a_edge33_Node000020_Node000021"><a xlink:title=" ">
<path fill="none" stroke="#63b8ff" d="M672.46,-180.09C720.37,-171.57 810.77,-154.85 896.58,-134.82"/>
<polygon fill="#63b8ff" stroke="#63b8ff" points="897.16,-138.28 906.09,-132.58 895.55,-131.47 897.16,-138.28"/>
</a>
</g>
</g>
</g>
</svg>
