<?xml version="1.0" encoding="UTF-8" standalone="no"?>
<!DOCTYPE svg PUBLIC "-//W3C//DTD SVG 1.1//EN"
 "http://www.w3.org/Graphics/SVG/1.1/DTD/svg11.dtd">
<!-- Generated by graphviz version 14.1.1 (20251213.1925)
 -->
<!-- Title: tensorium_RG::compute_second_derivatives_scalar Pages: 1 -->
<svg width="1148pt" height="186pt"
 viewBox="0.00 0.00 1148.00 186.00" xmlns="http://www.w3.org/2000/svg" xmlns:xlink="http://www.w3.org/1999/xlink">
<g id="graph0" class="graph" transform="scale(1 1) rotate(0) translate(4 181.5)">
<title>tensorium_RG::compute_second_derivatives_scalar</title>
<!-- Node1 -->
<g id="Node000001" class="node">
<title>Node1</title>
<g id="a_Node000001"><a xlink:title=" ">
<polygon fill="#999999" stroke="#666666" points="1139.5,-103.5 1002.75,-103.5 1002.75,-73 1139.5,-73 1139.5,-103.5"/>
<text xml:space="preserve" text-anchor="start" x="1010.75" y="-90" font-family="Helvetica,sans-Serif" font-size="10.00">tensorium_RG::compute</text>
<text xml:space="preserve" text-anchor="middle" x="1071.12" y="-78.75" font-family="Helvetica,sans-Serif" font-size="10.00">_second_derivatives_scalar</text>
</a>
</g>
</g>
<!-- Node2 -->
<g id="Node000002" class="node">
<title>Node2</title>
<g id="a_Node000002"><a xlink:href="structtensorium___r_g_1_1_chi_context.html#a9097d269c12e8adae4f97eaa233bacc1" target="_top" xlink:title=" ">
<polygon fill="white" stroke="#666666" points="604,-177.5 469.5,-177.5 469.5,-147 604,-147 604,-177.5"/>
<text xml:space="preserve" text-anchor="start" x="477.5" y="-164" font-family="Helvetica,sans-Serif" font-size="10.00">tensorium_RG::ChiContext</text>
<text xml:space="preserve" text-anchor="middle" x="536.75" y="-152.75" font-family="Helvetica,sans-Serif" font-size="10.00">::compute</text>
</a>
</g>
</g>
<!-- Node1&#45;&gt;Node2 -->
<g id="edge1_Node000001_Node000002" class="edge">
<title>Node1&#45;&gt;Node2</title>
<g id="a_edge1_Node000001_Node000002"><a xlink:title=" ">
<path fill="none" stroke="#63b8ff" d="M1034.53,-109.31C1015.17,-119.66 990.4,-131.2 966.75,-137.25 841.71,-169.23 689.75,-169.41 604.36,-166.16"/>
<polygon fill="#63b8ff" stroke="#63b8ff" points="1036.01,-112.49 1043.08,-104.6 1032.64,-106.35 1036.01,-112.49"/>
</a>
</g>
</g>
<!-- Node7 -->
<g id="Node000007" class="node">
<title>Node7</title>
<g id="a_Node000007"><a xlink:href="classtensorium___r_g_1_1_ricci_tilde_tensor.html#a897a50d0b88519ab33b11369ed47b6cf" target="_top" xlink:title="Compute &#160;&#160;using scalar autodiff.">
<polygon fill="white" stroke="#666666" points="966.75,-128.5 809.75,-128.5 809.75,-98 966.75,-98 966.75,-128.5"/>
<text xml:space="preserve" text-anchor="start" x="817.75" y="-115" font-family="Helvetica,sans-Serif" font-size="10.00">tensorium_RG::RicciTilde</text>
<text xml:space="preserve" text-anchor="middle" x="888.25" y="-103.75" font-family="Helvetica,sans-Serif" font-size="10.00">Tensor::compute_laplacian_term</text>
</a>
</g>
</g>
<!-- Node1&#45;&gt;Node7 -->
<g id="edge6_Node000001_Node000007" class="edge">
<title>Node1&#45;&gt;Node7</title>
<g id="a_edge6_Node000001_Node000007"><a xlink:title=" ">
<path fill="none" stroke="#63b8ff" d="M990.87,-99.2C983.03,-100.29 975.06,-101.39 967.23,-102.47"/>
<polygon fill="#63b8ff" stroke="#63b8ff" points="991.33,-102.67 1000.76,-97.84 990.37,-95.74 991.33,-102.67"/>
</a>
</g>
</g>
<!-- Node10 -->
<g id="Node000010" class="node">
<title>Node10</title>
<g id="a_Node000010"><a xlink:href="namespacetensorium___r_g.html#a658ca32d07531f6c932d234c5c051b54" target="_top" xlink:title=" ">
<polygon fill="white" stroke="#666666" points="950.62,-79.5 825.88,-79.5 825.88,-49 950.62,-49 950.62,-79.5"/>
<text xml:space="preserve" text-anchor="start" x="833.88" y="-66" font-family="Helvetica,sans-Serif" font-size="10.00">tensorium_RG::covariant</text>
<text xml:space="preserve" text-anchor="middle" x="888.25" y="-54.75" font-family="Helvetica,sans-Serif" font-size="10.00">_scalar_second</text>
</a>
</g>
</g>
<!-- Node1&#45;&gt;Node10 -->
<g id="edge11_Node000001_Node000010" class="edge">
<title>Node1&#45;&gt;Node10</title>
<g id="a_edge11_Node000001_Node000010"><a xlink:title=" ">
<path fill="none" stroke="#63b8ff" d="M991.07,-77.76C977.63,-75.98 963.85,-74.15 950.94,-72.43"/>
<polygon fill="#63b8ff" stroke="#63b8ff" points="990.39,-81.2 1000.76,-79.05 991.31,-74.26 990.39,-81.2"/>
</a>
</g>
</g>
<!-- Node12 -->
<g id="Node000012" class="node">
<title>Node12</title>
<g id="a_Node000012"><a xlink:href="namespacetensorium___r_g.html#aa8b5ab2441cbf4db047fe92d71b6ea1c" target="_top" xlink:title=" ">
<polygon fill="white" stroke="#666666" points="950.62,-30.5 825.88,-30.5 825.88,0 950.62,0 950.62,-30.5"/>
<text xml:space="preserve" text-anchor="start" x="833.88" y="-17" font-family="Helvetica,sans-Serif" font-size="10.00">tensorium_RG::covariant</text>
<text xml:space="preserve" text-anchor="middle" x="888.25" y="-5.75" font-family="Helvetica,sans-Serif" font-size="10.00">_scalar_second_3D</text>
</a>
</g>
</g>
<!-- Node1&#45;&gt;Node12 -->
<g id="edge13_Node000001_Node000012" class="edge">
<title>Node1&#45;&gt;Node12</title>
<g id="a_edge13_Node000001_Node000012"><a xlink:title=" ">
<path fill="none" stroke="#63b8ff" d="M1028.65,-67.58C1009.97,-58.63 987.48,-48.37 966.75,-40.25 958.46,-37 949.55,-33.84 940.84,-30.91"/>
<polygon fill="#63b8ff" stroke="#63b8ff" points="1027,-70.66 1037.53,-71.87 1030.05,-64.36 1027,-70.66"/>
</a>
</g>
</g>
<!-- Node3 -->
<g id="Node000003" class="node">
<title>Node3</title>
<g id="a_Node000003"><a xlink:href="classtensorium___r_g_1_1_b_s_s_n.html#a4d6a4978559683a9e176a1fa38c50abd" target="_top" xlink:title=" ">
<polygon fill="white" stroke="#666666" points="428.25,-134.5 315.5,-134.5 315.5,-104 428.25,-104 428.25,-134.5"/>
<text xml:space="preserve" text-anchor="start" x="323.5" y="-121" font-family="Helvetica,sans-Serif" font-size="10.00">tensorium_RG::BSSN</text>
<text xml:space="preserve" text-anchor="middle" x="371.88" y="-109.75" font-family="Helvetica,sans-Serif" font-size="10.00">::init_BSSN</text>
</a>
</g>
</g>
<!-- Node2&#45;&gt;Node3 -->
<g id="edge2_Node000002_Node000003" class="edge">
<title>Node2&#45;&gt;Node3</title>
<g id="a_edge2_Node000002_Node000003"><a xlink:title=" ">
<path fill="none" stroke="#63b8ff" d="M465.7,-143.76C453.29,-140.48 440.52,-137.11 428.57,-133.95"/>
<polygon fill="#63b8ff" stroke="#63b8ff" points="464.46,-147.05 475.02,-146.22 466.25,-140.28 464.46,-147.05"/>
</a>
</g>
</g>
<!-- Node4 -->
<g id="Node000004" class="node">
<title>Node4</title>
<g id="a_Node000004"><a xlink:href="classtensorium___r_g_1_1_b_s_s_n.html#ac8d886a72d7d53ed7a7f2085932de8b8" target="_top" xlink:title=" ">
<polygon fill="white" stroke="#666666" points="275,-156.5 162.25,-156.5 162.25,-126 275,-126 275,-156.5"/>
<text xml:space="preserve" text-anchor="start" x="170.25" y="-143" font-family="Helvetica,sans-Serif" font-size="10.00">tensorium_RG::BSSN</text>
<text xml:space="preserve" text-anchor="middle" x="218.62" y="-131.75" font-family="Helvetica,sans-Serif" font-size="10.00">::init_BSSN</text>
</a>
</g>
</g>
<!-- Node3&#45;&gt;Node4 -->
<g id="edge3_Node000003_Node000004" class="edge">
<title>Node3&#45;&gt;Node4</title>
<g id="a_edge3_Node000003_Node000004"><a xlink:title=" ">
<path fill="none" stroke="#63b8ff" d="M304.22,-128.95C294.58,-130.35 284.73,-131.78 275.33,-133.15"/>
<polygon fill="#63b8ff" stroke="#63b8ff" points="304.52,-132.44 313.92,-127.53 303.52,-125.51 304.52,-132.44"/>
</a>
</g>
</g>
<!-- Node5 -->
<g id="Node000005" class="node">
<title>Node5</title>
<g id="a_Node000005"><a xlink:href="namespacetensorium.html#a324a3d1ee242e7d8d82528be584333a7" target="_top" xlink:title=" ">
<polygon fill="white" stroke="#666666" points="279.5,-107.88 157.75,-107.88 157.75,-88.62 279.5,-88.62 279.5,-107.88"/>
<text xml:space="preserve" text-anchor="middle" x="218.62" y="-94.38" font-family="Helvetica,sans-Serif" font-size="10.00">tensorium::setup_BSSN</text>
</a>
</g>
</g>
<!-- Node3&#45;&gt;Node5 -->
<g id="edge4_Node000003_Node000005" class="edge">
<title>Node3&#45;&gt;Node5</title>
<g id="a_edge4_Node000003_Node000005"><a xlink:title=" ">
<path fill="none" stroke="#63b8ff" d="M304.15,-109.99C296.08,-108.87 287.88,-107.73 279.92,-106.62"/>
<polygon fill="#63b8ff" stroke="#63b8ff" points="303.53,-113.43 313.91,-111.34 304.49,-106.5 303.53,-113.43"/>
</a>
</g>
</g>
<!-- Node6 -->
<g id="Node000006" class="node">
<title>Node6</title>
<g id="a_Node000006"><a xlink:href="namespacetensorium.html#a21158d87bb9dbf16b2b9d142ace4f7eb" target="_top" xlink:title=" ">
<polygon fill="white" stroke="#666666" points="121.75,-107.88 0,-107.88 0,-88.62 121.75,-88.62 121.75,-107.88"/>
<text xml:space="preserve" text-anchor="middle" x="60.88" y="-94.38" font-family="Helvetica,sans-Serif" font-size="10.00">tensorium::setup_BSSN</text>
</a>
</g>
</g>
<!-- Node5&#45;&gt;Node6 -->
<g id="edge5_Node000005_Node000006" class="edge">
<title>Node5&#45;&gt;Node6</title>
<g id="a_edge5_Node000005_Node000006"><a xlink:title=" ">
<path fill="none" stroke="#63b8ff" d="M146.17,-98.25C138.15,-98.25 130.05,-98.25 122.19,-98.25"/>
<polygon fill="#63b8ff" stroke="#63b8ff" points="145.89,-101.75 155.89,-98.25 145.89,-94.75 145.89,-101.75"/>
</a>
</g>
</g>
<!-- Node8 -->
<g id="Node000008" class="node">
<title>Node8</title>
<g id="a_Node000008"><a xlink:href="classtensorium___r_g_1_1_ricci_tilde_tensor.html#a6378f16a0a94a50f0d969583fef94ddb" target="_top" xlink:title="Combine all four contributions to compute the conformal Ricci tensor:">
<polygon fill="white" stroke="#666666" points="773.75,-134.12 645.25,-134.12 645.25,-92.38 773.75,-92.38 773.75,-134.12"/>
<text xml:space="preserve" text-anchor="start" x="653.25" y="-120.62" font-family="Helvetica,sans-Serif" font-size="10.00">tensorium_RG::RicciTilde</text>
<text xml:space="preserve" text-anchor="start" x="653.25" y="-109.38" font-family="Helvetica,sans-Serif" font-size="10.00">Tensor::compute_Ricci</text>
<text xml:space="preserve" text-anchor="middle" x="709.5" y="-98.12" font-family="Helvetica,sans-Serif" font-size="10.00">_Tilde_tensor</text>
</a>
</g>
</g>
<!-- Node7&#45;&gt;Node8 -->
<g id="edge7_Node000007_Node000008" class="edge">
<title>Node7&#45;&gt;Node8</title>
<g id="a_edge7_Node000007_Node000008"><a xlink:title=" ">
<path fill="none" stroke="#63b8ff" d="M798.02,-113.25C789.92,-113.25 781.82,-113.25 774,-113.25"/>
<polygon fill="#63b8ff" stroke="#63b8ff" points="797.95,-116.75 807.95,-113.25 797.95,-109.75 797.95,-116.75"/>
</a>
</g>
</g>
<!-- Node8&#45;&gt;Node3 -->
<g id="edge10_Node000008_Node000003" class="edge">
<title>Node8&#45;&gt;Node3</title>
<g id="a_edge10_Node000008_Node000003"><a xlink:title=" ">
<path fill="none" stroke="#63b8ff" d="M633.69,-114.59C571.61,-115.7 484.72,-117.25 428.62,-118.25"/>
<polygon fill="#63b8ff" stroke="#63b8ff" points="633.53,-118.09 643.46,-114.41 633.4,-111.09 633.53,-118.09"/>
</a>
</g>
</g>
<!-- Node9 -->
<g id="Node000009" class="node">
<title>Node9</title>
<g id="a_Node000009"><a xlink:href="classtensorium___r_g_1_1_ricci_physical_tensor.html#acd197d723568eaead792e516a55c7e7e" target="_top" xlink:title="Compute the full Ricci tensor &#160;as the sum of &#160;and .">
<polygon fill="white" stroke="#666666" points="609.25,-91.5 464.25,-91.5 464.25,-61 609.25,-61 609.25,-91.5"/>
<text xml:space="preserve" text-anchor="start" x="472.25" y="-78" font-family="Helvetica,sans-Serif" font-size="10.00">tensorium_RG::RicciPhysical</text>
<text xml:space="preserve" text-anchor="middle" x="536.75" y="-66.75" font-family="Helvetica,sans-Serif" font-size="10.00">Tensor::compute_Ricci_total</text>
</a>
</g>
</g>
<!-- Node8&#45;&gt;Node9 -->
<g id="edge8_Node000008_Node000009" class="edge">
<title>Node8&#45;&gt;Node9</title>
<g id="a_edge8_Node000008_Node000009"><a xlink:title=" ">
<path fill="none" stroke="#63b8ff" d="M633.75,-97.05C625.77,-95.32 617.67,-93.57 609.72,-91.84"/>
<polygon fill="#63b8ff" stroke="#63b8ff" points="632.93,-100.45 643.44,-99.15 634.41,-93.61 632.93,-100.45"/>
</a>
</g>
</g>
<!-- Node9&#45;&gt;Node3 -->
<g id="edge9_Node000009_Node000003" class="edge">
<title>Node9&#45;&gt;Node3</title>
<g id="a_edge9_Node000009_Node000003"><a xlink:title=" ">
<path fill="none" stroke="#63b8ff" d="M465.7,-94.74C453.29,-98.02 440.52,-101.39 428.57,-104.55"/>
<polygon fill="#63b8ff" stroke="#63b8ff" points="466.25,-98.22 475.02,-92.28 464.46,-91.45 466.25,-98.22"/>
</a>
</g>
</g>
<!-- Node11 -->
<g id="Node000011" class="node">
<title>Node11</title>
<g id="a_Node000011"><a xlink:href="namespacetensorium___r_g.html#a1e83b6a29b042da98a47a29ccb8e7162" target="_top" xlink:title=" ">
<polygon fill="white" stroke="#666666" points="768.12,-74.5 650.88,-74.5 650.88,-44 768.12,-44 768.12,-74.5"/>
<text xml:space="preserve" text-anchor="start" x="658.88" y="-61" font-family="Helvetica,sans-Serif" font-size="10.00">tensorium_RG::autodiff</text>
<text xml:space="preserve" text-anchor="middle" x="709.5" y="-49.75" font-family="Helvetica,sans-Serif" font-size="10.00">_scalar_second</text>
</a>
</g>
</g>
<!-- Node10&#45;&gt;Node11 -->
<g id="edge12_Node000010_Node000011" class="edge">
<title>Node10&#45;&gt;Node11</title>
<g id="a_edge12_Node000010_Node000011"><a xlink:title=" ">
<path fill="none" stroke="#63b8ff" d="M813.97,-62.18C798.78,-61.75 782.98,-61.3 768.43,-60.89"/>
<polygon fill="#63b8ff" stroke="#63b8ff" points="813.82,-65.67 823.92,-62.46 814.02,-58.68 813.82,-65.67"/>
</a>
</g>
</g>
</g>
</svg>
